G75*
G70*
%OFA0B0*%
%FSLAX24Y24*%
%IPPOS*%
%LPD*%
%AMOC8*
5,1,8,0,0,1.08239X$1,22.5*
%
%ADD10C,0.0190*%
%ADD11C,0.0160*%
%ADD12C,0.0120*%
%ADD13C,0.0357*%
%ADD14C,0.0060*%
%ADD15C,0.0100*%
D10*
X001062Y000972D03*
X001062Y001366D03*
X001062Y001760D03*
X001062Y002154D03*
X001062Y002547D03*
X001062Y002941D03*
X001062Y003335D03*
X001062Y003728D03*
X001456Y003728D03*
X001456Y003335D03*
X001850Y003335D03*
X001850Y003728D03*
X002244Y003728D03*
X002244Y003335D03*
X001850Y002941D03*
X001456Y002941D03*
X001456Y002547D03*
X001456Y002154D03*
X001456Y001760D03*
X001456Y001366D03*
X001456Y000972D03*
X001850Y000972D03*
X001850Y001366D03*
X002244Y001366D03*
X002244Y000972D03*
X002637Y000972D03*
X002637Y001366D03*
X003031Y001366D03*
X003031Y000972D03*
X003425Y000972D03*
X003425Y001366D03*
X003818Y001366D03*
X003818Y000972D03*
X003818Y001760D03*
X003818Y002154D03*
X003818Y002547D03*
X003818Y002941D03*
X003425Y002941D03*
X003425Y002547D03*
X003425Y002154D03*
X003425Y001760D03*
X003031Y001760D03*
X003031Y002941D03*
X003031Y003335D03*
X003031Y003728D03*
X003425Y003728D03*
X003425Y003335D03*
X003818Y003335D03*
X003818Y003728D03*
X002637Y003728D03*
X002637Y003335D03*
X001850Y001760D03*
D11*
X001062Y002547D02*
X001062Y002941D01*
X001062Y003335D01*
X001065Y003125D01*
X000885Y002935D01*
X000835Y002935D01*
X000735Y002935D01*
X003415Y001356D02*
X003415Y000695D01*
X003415Y000685D02*
X003495Y000605D01*
X003425Y000972D02*
X003818Y000972D01*
X003992Y000972D01*
X004205Y001355D01*
X003818Y001760D02*
X003425Y001366D01*
D12*
X003495Y000605D02*
X003525Y000605D01*
X001850Y001760D02*
X001850Y002941D01*
X001869Y002921D01*
X002185Y002605D01*
X002255Y003715D02*
X002255Y003717D01*
X001062Y003728D02*
X000745Y004036D01*
D13*
X000745Y004055D03*
X000505Y003315D03*
X000735Y002935D03*
X000675Y002355D03*
X000625Y001595D03*
X000655Y000935D03*
X000855Y000535D03*
X001305Y000535D03*
X001725Y000525D03*
X002255Y000615D03*
X002525Y001695D03*
X002385Y002085D03*
X002185Y002605D03*
X001445Y004065D03*
X002075Y004075D03*
X002510Y004070D03*
X003475Y004060D03*
X004290Y003870D03*
X004290Y003445D03*
X004195Y002595D03*
X004245Y002055D03*
X004205Y001355D03*
X003525Y000605D03*
X004145Y000505D03*
D14*
X000855Y000535D02*
X000475Y000535D01*
X000385Y000625D01*
X000385Y001175D01*
X000475Y001265D01*
X000685Y001265D01*
X000985Y001565D01*
X002005Y001565D01*
X002095Y001655D01*
X002095Y002235D01*
X002635Y002525D01*
X002635Y003335D01*
X002637Y003335D01*
X002835Y003525D02*
X002835Y002215D01*
X002705Y002085D01*
X002385Y002085D01*
X002525Y001695D02*
X002425Y001585D01*
X002425Y001175D01*
X002244Y000994D01*
X002244Y000972D01*
X002055Y000815D02*
X002055Y001175D01*
X002244Y001366D01*
X002055Y000815D02*
X002255Y000615D01*
X001645Y000865D02*
X001315Y000535D01*
X001305Y000535D01*
X001645Y000865D02*
X001645Y001175D01*
X001456Y001364D01*
X001456Y001366D01*
X001275Y001165D02*
X000885Y001165D01*
X000655Y000935D01*
X000625Y001595D02*
X000725Y001695D01*
X000725Y001875D01*
X000785Y001935D01*
X001265Y001935D01*
X001456Y002126D01*
X001456Y002154D01*
X001466Y002166D01*
X001665Y002365D01*
X001665Y003065D01*
X001725Y003125D01*
X002205Y003125D01*
X002245Y003165D01*
X002245Y003265D01*
X002215Y003295D01*
X002244Y003335D02*
X002244Y003356D01*
X002070Y003530D01*
X002255Y003715D01*
X002255Y003717D02*
X002244Y003728D01*
X002070Y003530D02*
X002025Y003525D01*
X001375Y003525D01*
X001205Y003705D01*
X001102Y003708D01*
X001062Y003728D01*
X001155Y003525D02*
X000735Y003525D01*
X000505Y003315D01*
X001155Y003525D02*
X001275Y003405D01*
X001275Y003085D01*
X001419Y002941D01*
X001456Y002941D01*
X001456Y002547D02*
X001447Y002527D01*
X001275Y002355D01*
X000675Y002355D01*
X001275Y001165D02*
X001456Y000984D01*
X001456Y000972D01*
X003015Y001776D02*
X003031Y001760D01*
X003015Y001776D02*
X003015Y002545D01*
X003361Y002891D01*
X003419Y002941D01*
X003625Y003145D01*
X003935Y003145D01*
X004195Y002885D01*
X004195Y002595D01*
X004115Y002335D02*
X004245Y002195D01*
X004245Y002055D01*
X004075Y001965D01*
X003665Y001965D01*
X003460Y001760D01*
X003425Y001760D01*
X003425Y001366D02*
X003415Y001356D01*
X003818Y001366D02*
X003818Y001398D01*
X004145Y001725D01*
X004405Y001725D01*
X004555Y001875D01*
X004555Y004015D01*
X004425Y004145D01*
X003855Y004145D01*
X003765Y004060D01*
X003475Y004060D01*
X003325Y003535D02*
X003965Y003535D01*
X004290Y003870D01*
X004290Y003445D02*
X004185Y003335D01*
X003818Y003335D01*
X003818Y002941D02*
X003801Y002941D01*
X003625Y002765D01*
X003625Y002445D01*
X003735Y002335D01*
X004115Y002335D01*
X003425Y002941D02*
X003419Y002941D01*
X003225Y003105D02*
X003225Y003435D01*
X003325Y003535D01*
X003225Y003105D02*
X003061Y002941D01*
X003031Y002941D01*
X002835Y003525D02*
X002637Y003723D01*
X000745Y004036D02*
X000745Y004055D01*
X003031Y000972D02*
X003031Y000579D01*
X003275Y000335D01*
X003975Y000335D01*
X004145Y000505D01*
X003275Y000335D02*
X003265Y000335D01*
X003031Y000569D01*
X003031Y000972D01*
D15*
X002637Y003723D02*
X002637Y003728D01*
X002075Y004075D02*
X001850Y003850D01*
X001850Y003728D01*
X001456Y003728D02*
X001456Y004054D01*
X001445Y004065D01*
M02*
