G75*
G70*
%OFA0B0*%
%FSLAX24Y24*%
%IPPOS*%
%LPD*%
%AMOC8*
5,1,8,0,0,1.08239X$1,22.5*
%
%ADD10C,0.0050*%
%ADD11C,0.0040*%
%ADD12C,0.0020*%
D10*
X000716Y001200D02*
X000716Y001999D01*
X002216Y001999D01*
X002216Y001200D01*
X000716Y001200D01*
X000713Y001899D02*
X000634Y001899D01*
X000634Y002056D01*
X000713Y002056D01*
X000713Y001899D01*
X001423Y002756D02*
X002053Y002756D01*
X002053Y003898D01*
X001423Y003898D01*
X001423Y002756D01*
X000862Y003497D02*
X000744Y003497D01*
X000744Y003734D01*
X000862Y003734D01*
X000862Y003497D01*
X000591Y003606D02*
X000591Y003763D01*
X000513Y003763D01*
X000513Y003606D01*
X000591Y003606D01*
X002589Y001350D02*
X002589Y001272D01*
X002747Y001272D01*
X002747Y001350D01*
X002589Y001350D01*
X002594Y001156D02*
X002437Y001156D01*
X002437Y001077D01*
X002594Y001077D01*
X002594Y001156D01*
X002784Y001471D02*
X002863Y001471D01*
X002863Y001629D01*
X002784Y001629D01*
X002784Y001471D01*
X003065Y001670D02*
X003380Y001670D01*
X003380Y001040D01*
X003065Y001040D01*
X003065Y001670D01*
X003184Y002073D02*
X003184Y002467D01*
X003381Y002467D01*
X003381Y002073D01*
X003184Y002073D01*
X003509Y002016D02*
X003627Y002016D01*
X003627Y002252D01*
X003509Y002252D01*
X003509Y002016D01*
X003751Y001991D02*
X003830Y001991D01*
X003830Y002149D01*
X003751Y002149D01*
X003751Y001991D01*
X003929Y001995D02*
X003929Y002152D01*
X004007Y002152D01*
X004007Y001995D01*
X003929Y001995D01*
X003969Y001672D02*
X003654Y001672D01*
X003654Y001042D01*
X003969Y001042D01*
X003969Y001672D01*
X004141Y001053D02*
X004259Y001053D01*
X004259Y000816D01*
X004141Y000816D01*
X004141Y001053D01*
X003885Y000705D02*
X003806Y000705D01*
X003806Y000547D01*
X003885Y000547D01*
X003885Y000705D01*
X003141Y000662D02*
X003141Y000465D01*
X002747Y000465D01*
X002747Y000662D01*
X003141Y000662D01*
X003648Y002526D02*
X003805Y002526D01*
X003805Y002605D01*
X003648Y002605D01*
X003648Y002526D01*
X003400Y002733D02*
X003006Y002733D01*
X003006Y002930D01*
X003400Y002930D01*
X003400Y002733D01*
X003648Y002906D02*
X003805Y002906D01*
X003805Y002985D01*
X003648Y002985D01*
X003648Y002906D01*
X003778Y003351D02*
X002991Y003351D01*
X002991Y003843D01*
X003286Y003843D01*
X003778Y003843D01*
X003778Y003351D01*
X003207Y004145D02*
X003049Y004145D01*
X003049Y004224D01*
X003207Y004224D01*
X003207Y004145D01*
D11*
X003102Y002461D02*
X002872Y002461D01*
X002795Y002384D01*
X002795Y002078D01*
X002872Y002001D01*
X003102Y002001D01*
X003102Y002461D01*
X003256Y002308D02*
X003256Y002001D01*
X003256Y002231D02*
X003563Y002231D01*
X003563Y002308D02*
X003409Y002461D01*
X003256Y002308D01*
X003563Y002308D02*
X003563Y002001D01*
X002642Y002001D02*
X002642Y002461D01*
X002412Y002461D01*
X002335Y002384D01*
X002335Y002231D01*
X002412Y002154D01*
X002642Y002154D01*
X002181Y002001D02*
X001875Y002001D01*
X002028Y002001D02*
X002028Y002461D01*
X002181Y002308D01*
X001721Y002461D02*
X001414Y002461D01*
X001414Y002384D01*
X001721Y002078D01*
X001721Y002001D01*
X001261Y002001D02*
X000954Y002001D01*
X000800Y002078D02*
X000493Y002384D01*
X000493Y002078D01*
X000570Y002001D01*
X000724Y002001D01*
X000800Y002078D01*
X000800Y002384D01*
X000724Y002461D01*
X000570Y002461D01*
X000493Y002384D01*
X001107Y002461D02*
X001107Y002001D01*
X001261Y002308D02*
X001107Y002461D01*
D12*
X000774Y002419D02*
X000554Y002419D01*
X000554Y002492D02*
X000554Y002345D01*
X000554Y002271D02*
X000628Y002198D01*
X000628Y002235D02*
X000628Y002124D01*
X000554Y002124D02*
X000774Y002124D01*
X000774Y002235D01*
X000738Y002271D01*
X000664Y002271D01*
X000628Y002235D01*
X000701Y002345D02*
X000774Y002419D01*
X000865Y002965D02*
X000828Y003001D01*
X000828Y003075D01*
X000865Y003111D01*
X000865Y003186D02*
X000828Y003222D01*
X000828Y003296D01*
X000865Y003332D01*
X001011Y003332D01*
X001048Y003296D01*
X001048Y003222D01*
X001011Y003186D01*
X000975Y003186D01*
X000938Y003222D01*
X000938Y003332D01*
X001011Y003111D02*
X001048Y003075D01*
X001048Y003001D01*
X001011Y002965D01*
X000865Y002965D01*
X000703Y003031D02*
X000703Y003142D01*
X000666Y003178D01*
X000593Y003178D01*
X000556Y003142D01*
X000556Y003031D01*
X000483Y003031D02*
X000703Y003031D01*
X000556Y003105D02*
X000483Y003178D01*
X000483Y003252D02*
X000630Y003399D01*
X000666Y003399D01*
X000703Y003363D01*
X000703Y003289D01*
X000666Y003252D01*
X000483Y003252D02*
X000483Y003399D01*
X002335Y002737D02*
X002482Y002737D01*
X002409Y002737D02*
X002409Y002957D01*
X002482Y002884D01*
X002556Y002737D02*
X002703Y002737D01*
X002777Y002774D02*
X002814Y002737D01*
X002888Y002737D01*
X002924Y002774D01*
X002924Y002920D01*
X002888Y002957D01*
X002814Y002957D01*
X002777Y002920D01*
X002703Y002884D02*
X002630Y002957D01*
X002630Y002737D01*
X002844Y002387D02*
X002807Y002350D01*
X002807Y002277D01*
X002844Y002240D01*
X002917Y002240D02*
X002954Y002313D01*
X002954Y002350D01*
X002917Y002387D01*
X002844Y002387D01*
X002917Y002240D02*
X003027Y002240D01*
X003027Y002387D01*
X002991Y002166D02*
X003027Y002129D01*
X003027Y002056D01*
X002991Y002019D01*
X002844Y002019D01*
X002807Y002056D01*
X002807Y002129D01*
X002844Y002166D01*
X003155Y001701D02*
X003155Y001554D01*
X003155Y001627D02*
X003375Y001627D01*
X003302Y001554D01*
X003338Y001480D02*
X003265Y001480D01*
X003228Y001443D01*
X003228Y001333D01*
X003228Y001406D02*
X003155Y001480D01*
X003155Y001333D02*
X003375Y001333D01*
X003375Y001443D01*
X003338Y001480D01*
X003424Y001473D02*
X003424Y001399D01*
X003460Y001363D01*
X003607Y001363D01*
X003644Y001399D01*
X003644Y001473D01*
X003607Y001510D01*
X003570Y001584D02*
X003644Y001657D01*
X003424Y001657D01*
X003424Y001584D02*
X003424Y001730D01*
X003460Y001805D02*
X003424Y001841D01*
X003424Y001915D01*
X003460Y001951D01*
X003607Y001951D01*
X003460Y001805D01*
X003607Y001805D01*
X003644Y001841D01*
X003644Y001915D01*
X003607Y001951D01*
X003744Y001632D02*
X003817Y001558D01*
X003817Y001595D02*
X003817Y001485D01*
X003744Y001485D02*
X003964Y001485D01*
X003964Y001595D01*
X003927Y001632D01*
X003854Y001632D01*
X003817Y001595D01*
X003854Y001411D02*
X003817Y001374D01*
X003817Y001264D01*
X003744Y001264D02*
X003964Y001264D01*
X003964Y001374D01*
X003927Y001411D01*
X003854Y001411D01*
X003817Y001337D02*
X003744Y001411D01*
X003744Y001190D02*
X003744Y001043D01*
X003964Y001043D01*
X003964Y001190D01*
X004075Y001170D02*
X004075Y001244D01*
X004112Y001280D01*
X004075Y001355D02*
X004222Y001501D01*
X004259Y001501D01*
X004295Y001465D01*
X004295Y001391D01*
X004259Y001355D01*
X004259Y001280D02*
X004295Y001244D01*
X004295Y001170D01*
X004259Y001134D01*
X004112Y001134D01*
X004075Y001170D01*
X004075Y001355D02*
X004075Y001501D01*
X003854Y001116D02*
X003854Y001043D01*
X003964Y000969D02*
X003964Y000822D01*
X003744Y000822D01*
X003854Y000822D02*
X003854Y000895D01*
X004026Y000667D02*
X004136Y000557D01*
X003990Y000557D01*
X004026Y000667D02*
X004026Y000446D01*
X004211Y000446D02*
X004284Y000520D01*
X004247Y000520D02*
X004357Y000520D01*
X004357Y000446D02*
X004357Y000667D01*
X004247Y000667D01*
X004211Y000630D01*
X004211Y000557D01*
X004247Y000520D01*
X003375Y000670D02*
X003375Y000817D01*
X003375Y000891D02*
X003155Y000891D01*
X003155Y001038D01*
X003155Y001112D02*
X003375Y001112D01*
X003375Y001222D01*
X003338Y001259D01*
X003265Y001259D01*
X003228Y001222D01*
X003228Y001112D01*
X003228Y001185D02*
X003155Y001259D01*
X003375Y001038D02*
X003375Y000891D01*
X003265Y000891D02*
X003265Y000965D01*
X003265Y000744D02*
X003265Y000670D01*
X003155Y000670D02*
X003375Y000670D01*
X003015Y000756D02*
X002978Y000719D01*
X002905Y000719D01*
X002868Y000756D01*
X002794Y000719D02*
X002647Y000719D01*
X002721Y000719D02*
X002721Y000939D01*
X002794Y000866D01*
X002868Y000903D02*
X002905Y000939D01*
X002978Y000939D01*
X003015Y000903D01*
X003015Y000756D01*
X002419Y000771D02*
X002308Y000771D01*
X002272Y000807D01*
X002272Y000881D01*
X002308Y000918D01*
X002419Y000918D01*
X002419Y000697D01*
X002345Y000771D02*
X002272Y000697D01*
X002198Y000734D02*
X002161Y000697D01*
X002087Y000697D01*
X002051Y000734D01*
X002051Y000771D01*
X002087Y000807D01*
X002124Y000807D01*
X002087Y000807D02*
X002051Y000844D01*
X002051Y000881D01*
X002087Y000918D01*
X002161Y000918D01*
X002198Y000881D01*
X003424Y001473D02*
X003460Y001510D01*
X002806Y003374D02*
X002659Y003374D01*
X002623Y003410D01*
X002623Y003484D01*
X002659Y003520D01*
X002659Y003595D02*
X002623Y003631D01*
X002623Y003705D01*
X002659Y003741D01*
X002696Y003741D01*
X002733Y003705D01*
X002733Y003631D01*
X002770Y003595D01*
X002806Y003595D01*
X002843Y003631D01*
X002843Y003705D01*
X002806Y003741D01*
X002770Y003741D01*
X002733Y003705D01*
X002733Y003631D02*
X002696Y003595D01*
X002659Y003595D01*
X002806Y003520D02*
X002843Y003484D01*
X002843Y003410D01*
X002806Y003374D01*
X002750Y003984D02*
X002823Y004057D01*
X002787Y004057D02*
X002897Y004057D01*
X002897Y003984D02*
X002897Y004204D01*
X002787Y004204D01*
X002750Y004167D01*
X002750Y004094D01*
X002787Y004057D01*
X002676Y004021D02*
X002639Y003984D01*
X002566Y003984D01*
X002529Y004021D01*
X002529Y004094D01*
X002566Y004131D01*
X002602Y004131D01*
X002676Y004094D01*
X002676Y004204D01*
X002529Y004204D01*
M02*
