G75*
G70*
%OFA0B0*%
%FSLAX24Y24*%
%IPPOS*%
%LPD*%
%AMOC8*
5,1,8,0,0,1.08239X$1,22.5*
%
%ADD10C,0.0060*%
%ADD11C,0.0357*%
%ADD12C,0.0160*%
D10*
X000876Y000793D02*
X000913Y000884D01*
X000913Y000986D01*
X000874Y001081D01*
X000801Y001154D01*
X000706Y001193D01*
X000604Y001193D01*
X000509Y001154D01*
X000436Y001081D01*
X000415Y001031D01*
X000415Y001440D01*
X000479Y001376D01*
X000574Y001337D01*
X000676Y001337D01*
X000771Y001376D01*
X000844Y001449D01*
X000883Y001544D01*
X000883Y001646D01*
X000844Y001741D01*
X000771Y001814D01*
X000676Y001853D01*
X000574Y001853D01*
X000479Y001814D01*
X000415Y001750D01*
X000415Y003073D01*
X000454Y003057D01*
X000556Y003057D01*
X000651Y003096D01*
X000724Y003169D01*
X000763Y003264D01*
X000763Y003366D01*
X000724Y003461D01*
X000651Y003534D01*
X000556Y003573D01*
X000454Y003573D01*
X000415Y003557D01*
X000415Y004210D01*
X000535Y004210D01*
X000526Y004201D01*
X000487Y004106D01*
X000487Y004004D01*
X000526Y003909D01*
X000599Y003836D01*
X000694Y003797D01*
X000796Y003797D01*
X000891Y003836D01*
X000964Y003909D01*
X001003Y004004D01*
X001003Y004106D01*
X000964Y004201D01*
X000955Y004210D01*
X001225Y004210D01*
X001187Y004116D01*
X001187Y004014D01*
X001226Y003919D01*
X001299Y003846D01*
X001394Y003807D01*
X001496Y003807D01*
X001591Y003846D01*
X001664Y003919D01*
X001703Y004014D01*
X001703Y004116D01*
X001665Y004210D01*
X001851Y004210D01*
X001817Y004126D01*
X001817Y004024D01*
X001856Y003929D01*
X001929Y003856D01*
X002024Y003817D01*
X002126Y003817D01*
X002221Y003856D01*
X002290Y003925D01*
X002291Y003924D01*
X002364Y003851D01*
X002459Y003812D01*
X002561Y003812D01*
X002656Y003851D01*
X002729Y003924D01*
X002768Y004019D01*
X002768Y004121D01*
X002732Y004210D01*
X003260Y004210D01*
X003256Y004206D01*
X003217Y004111D01*
X003217Y004009D01*
X003256Y003914D01*
X003329Y003841D01*
X003424Y003802D01*
X003526Y003802D01*
X003621Y003841D01*
X003694Y003914D01*
X003733Y004009D01*
X003733Y004111D01*
X003694Y004206D01*
X003690Y004210D01*
X004515Y004210D01*
X004515Y003695D01*
X004362Y003695D01*
X004341Y003703D01*
X004239Y003703D01*
X004218Y003695D01*
X002715Y003695D01*
X002715Y001870D01*
X002671Y001914D01*
X002605Y001941D01*
X002643Y002034D01*
X002643Y002136D01*
X002604Y002231D01*
X002531Y002304D01*
X002436Y002343D01*
X002334Y002343D01*
X002239Y002304D01*
X002166Y002231D01*
X002127Y002136D01*
X002127Y002034D01*
X002166Y001939D01*
X002239Y001866D01*
X002305Y001839D01*
X002267Y001746D01*
X000839Y001746D01*
X000781Y001805D02*
X002291Y001805D01*
X002267Y001746D02*
X002267Y001644D01*
X002306Y001549D01*
X002379Y001476D01*
X002474Y001437D01*
X002576Y001437D01*
X002671Y001476D01*
X002744Y001549D01*
X002763Y001595D01*
X004515Y001595D01*
X004512Y000355D01*
X004360Y000355D01*
X004364Y000359D01*
X004403Y000454D01*
X004403Y000556D01*
X004364Y000651D01*
X004291Y000724D01*
X004196Y000763D01*
X004094Y000763D01*
X003999Y000724D01*
X003926Y000651D01*
X003887Y000556D01*
X003887Y000454D01*
X003926Y000359D01*
X003930Y000355D01*
X001490Y000355D01*
X001524Y000389D01*
X001563Y000484D01*
X001563Y000586D01*
X001524Y000681D01*
X001451Y000754D01*
X001356Y000793D01*
X001254Y000793D01*
X001159Y000754D01*
X001086Y000681D01*
X001080Y000667D01*
X001074Y000681D01*
X001001Y000754D01*
X000906Y000793D01*
X000876Y000793D01*
X000883Y000810D02*
X002085Y000810D01*
X002109Y000834D02*
X002036Y000761D01*
X001997Y000666D01*
X001997Y000564D01*
X002036Y000469D01*
X002109Y000396D01*
X002204Y000357D01*
X002306Y000357D01*
X002401Y000396D01*
X002474Y000469D01*
X002513Y000564D01*
X002513Y000666D01*
X002474Y000761D01*
X002401Y000834D01*
X002306Y000873D01*
X002204Y000873D01*
X002109Y000834D01*
X002032Y000752D02*
X001454Y000752D01*
X001512Y000693D02*
X002008Y000693D01*
X001997Y000635D02*
X001544Y000635D01*
X001563Y000576D02*
X001997Y000576D01*
X002016Y000518D02*
X001563Y000518D01*
X001553Y000459D02*
X002046Y000459D01*
X002104Y000401D02*
X001529Y000401D01*
X001156Y000752D02*
X001004Y000752D01*
X001062Y000693D02*
X001098Y000693D01*
X000907Y000869D02*
X002192Y000869D01*
X002318Y000869D02*
X004513Y000869D01*
X004513Y000927D02*
X000913Y000927D01*
X000913Y000986D02*
X004513Y000986D01*
X004514Y001044D02*
X000890Y001044D01*
X000853Y001103D02*
X004514Y001103D01*
X004514Y001161D02*
X000785Y001161D01*
X000790Y001395D02*
X004514Y001395D01*
X004514Y001337D02*
X000415Y001337D01*
X000415Y001395D02*
X000460Y001395D01*
X000415Y001278D02*
X004514Y001278D01*
X004514Y001220D02*
X000415Y001220D01*
X000415Y001161D02*
X000525Y001161D01*
X000457Y001103D02*
X000415Y001103D01*
X000415Y001044D02*
X000420Y001044D01*
X000846Y001454D02*
X002433Y001454D01*
X002343Y001512D02*
X000870Y001512D01*
X000883Y001571D02*
X002297Y001571D01*
X002273Y001629D02*
X000883Y001629D01*
X000866Y001688D02*
X002267Y001688D01*
X002246Y001863D02*
X000415Y001863D01*
X000415Y001805D02*
X000469Y001805D01*
X000415Y001922D02*
X002183Y001922D01*
X002149Y001980D02*
X000415Y001980D01*
X000415Y002039D02*
X002127Y002039D01*
X002127Y002097D02*
X000727Y002097D01*
X000726Y002097D02*
X000821Y002136D01*
X000894Y002209D01*
X000933Y002304D01*
X000933Y002406D01*
X000894Y002501D01*
X000821Y002574D01*
X000726Y002613D01*
X000624Y002613D01*
X000529Y002574D01*
X000456Y002501D01*
X000417Y002406D01*
X000417Y002304D01*
X000456Y002209D01*
X000529Y002136D01*
X000624Y002097D01*
X000726Y002097D01*
X000841Y002156D02*
X002134Y002156D01*
X002159Y002214D02*
X000896Y002214D01*
X000921Y002273D02*
X002207Y002273D01*
X002304Y002331D02*
X000933Y002331D01*
X000933Y002390D02*
X002715Y002390D01*
X002715Y002448D02*
X000916Y002448D01*
X000889Y002507D02*
X002715Y002507D01*
X002715Y002565D02*
X000830Y002565D01*
X000520Y002565D02*
X000415Y002565D01*
X000415Y002507D02*
X000461Y002507D01*
X000434Y002448D02*
X000415Y002448D01*
X000415Y002390D02*
X000417Y002390D01*
X000415Y002331D02*
X000417Y002331D01*
X000415Y002273D02*
X000429Y002273D01*
X000415Y002214D02*
X000454Y002214D01*
X000415Y002156D02*
X000509Y002156D01*
X000415Y002097D02*
X000623Y002097D01*
X000415Y002624D02*
X002715Y002624D01*
X002715Y002682D02*
X000415Y002682D01*
X000415Y002741D02*
X002715Y002741D01*
X002715Y002799D02*
X000415Y002799D01*
X000415Y002858D02*
X002715Y002858D01*
X002715Y002916D02*
X000415Y002916D01*
X000415Y002975D02*
X002715Y002975D01*
X002715Y003033D02*
X000415Y003033D01*
X000641Y003092D02*
X002715Y003092D01*
X002715Y003150D02*
X000705Y003150D01*
X000741Y003209D02*
X002715Y003209D01*
X002715Y003267D02*
X000763Y003267D01*
X000763Y003326D02*
X002715Y003326D01*
X002715Y003384D02*
X000756Y003384D01*
X000732Y003443D02*
X002715Y003443D01*
X002715Y003501D02*
X000684Y003501D01*
X000590Y003560D02*
X002715Y003560D01*
X002715Y003618D02*
X000415Y003618D01*
X000415Y003560D02*
X000420Y003560D01*
X000415Y003677D02*
X002715Y003677D01*
X002657Y003852D02*
X003318Y003852D01*
X003259Y003911D02*
X002716Y003911D01*
X002748Y003969D02*
X003233Y003969D01*
X003217Y004028D02*
X002768Y004028D01*
X002768Y004086D02*
X003217Y004086D01*
X003230Y004145D02*
X002759Y004145D01*
X002735Y004203D02*
X003255Y004203D01*
X003632Y003852D02*
X004515Y003852D01*
X004515Y003794D02*
X000415Y003794D01*
X000415Y003852D02*
X000583Y003852D01*
X000525Y003911D02*
X000415Y003911D01*
X000415Y003969D02*
X000501Y003969D01*
X000487Y004028D02*
X000415Y004028D01*
X000415Y004086D02*
X000487Y004086D01*
X000502Y004145D02*
X000415Y004145D01*
X000415Y004203D02*
X000528Y004203D01*
X000907Y003852D02*
X001293Y003852D01*
X001234Y003911D02*
X000965Y003911D01*
X000989Y003969D02*
X001205Y003969D01*
X001187Y004028D02*
X001003Y004028D01*
X001003Y004086D02*
X001187Y004086D01*
X001198Y004145D02*
X000988Y004145D01*
X000962Y004203D02*
X001222Y004203D01*
X001597Y003852D02*
X001938Y003852D01*
X001874Y003911D02*
X001656Y003911D01*
X001685Y003969D02*
X001839Y003969D01*
X001817Y004028D02*
X001703Y004028D01*
X001703Y004086D02*
X001817Y004086D01*
X001824Y004145D02*
X001692Y004145D01*
X001668Y004203D02*
X001848Y004203D01*
X002212Y003852D02*
X002363Y003852D01*
X002304Y003911D02*
X002276Y003911D01*
X002865Y003545D02*
X004052Y003545D01*
X004032Y003496D01*
X004032Y003394D01*
X004071Y003299D01*
X004144Y003226D01*
X004239Y003187D01*
X004341Y003187D01*
X004436Y003226D01*
X004509Y003299D01*
X004515Y003313D01*
X004515Y001745D01*
X002865Y001745D01*
X002865Y003545D01*
X002865Y003501D02*
X004033Y003501D01*
X004032Y003443D02*
X002865Y003443D01*
X002865Y003384D02*
X004036Y003384D01*
X004060Y003326D02*
X002865Y003326D01*
X002865Y003267D02*
X004103Y003267D01*
X004186Y003209D02*
X002865Y003209D01*
X002865Y003150D02*
X004515Y003150D01*
X004515Y003092D02*
X002865Y003092D01*
X002865Y003033D02*
X004515Y003033D01*
X004515Y002975D02*
X002865Y002975D01*
X002865Y002916D02*
X004515Y002916D01*
X004515Y002858D02*
X002865Y002858D01*
X002865Y002799D02*
X004515Y002799D01*
X004515Y002741D02*
X002865Y002741D01*
X002865Y002682D02*
X004515Y002682D01*
X004515Y002624D02*
X002865Y002624D01*
X002865Y002565D02*
X004515Y002565D01*
X004515Y002507D02*
X002865Y002507D01*
X002865Y002448D02*
X004515Y002448D01*
X004515Y002390D02*
X002865Y002390D01*
X002865Y002331D02*
X004515Y002331D01*
X004515Y002273D02*
X004393Y002273D01*
X004391Y002274D02*
X004296Y002313D01*
X004194Y002313D01*
X004099Y002274D01*
X004026Y002201D01*
X003987Y002106D01*
X003987Y002004D01*
X004026Y001909D01*
X004099Y001836D01*
X004194Y001797D01*
X004296Y001797D01*
X004391Y001836D01*
X004464Y001909D01*
X004503Y002004D01*
X004503Y002106D01*
X004464Y002201D01*
X004391Y002274D01*
X004451Y002214D02*
X004515Y002214D01*
X004515Y002156D02*
X004483Y002156D01*
X004503Y002097D02*
X004515Y002097D01*
X004515Y002039D02*
X004503Y002039D01*
X004494Y001980D02*
X004515Y001980D01*
X004515Y001922D02*
X004469Y001922D01*
X004515Y001863D02*
X004418Y001863D01*
X004515Y001805D02*
X004316Y001805D01*
X004174Y001805D02*
X002865Y001805D01*
X002865Y001863D02*
X004072Y001863D01*
X004021Y001922D02*
X002865Y001922D01*
X002865Y001980D02*
X003996Y001980D01*
X003987Y002039D02*
X002865Y002039D01*
X002865Y002097D02*
X003987Y002097D01*
X004007Y002156D02*
X002865Y002156D01*
X002865Y002214D02*
X004039Y002214D01*
X004097Y002273D02*
X002865Y002273D01*
X002715Y002273D02*
X002563Y002273D01*
X002611Y002214D02*
X002715Y002214D01*
X002715Y002156D02*
X002636Y002156D01*
X002643Y002097D02*
X002715Y002097D01*
X002715Y002039D02*
X002643Y002039D01*
X002621Y001980D02*
X002715Y001980D01*
X002715Y001922D02*
X002653Y001922D01*
X002865Y001746D02*
X004515Y001746D01*
X004515Y001571D02*
X002753Y001571D01*
X002707Y001512D02*
X004515Y001512D01*
X004515Y001454D02*
X002617Y001454D01*
X002425Y000810D02*
X004513Y000810D01*
X004513Y000752D02*
X004225Y000752D01*
X004322Y000693D02*
X004513Y000693D01*
X004512Y000635D02*
X004371Y000635D01*
X004395Y000576D02*
X004512Y000576D01*
X004512Y000518D02*
X004403Y000518D01*
X004403Y000459D02*
X004512Y000459D01*
X004512Y000401D02*
X004381Y000401D01*
X004065Y000752D02*
X002478Y000752D01*
X002502Y000693D02*
X003968Y000693D01*
X003919Y000635D02*
X002513Y000635D01*
X002513Y000576D02*
X003895Y000576D01*
X003887Y000518D02*
X002494Y000518D01*
X002464Y000459D02*
X003887Y000459D01*
X003909Y000401D02*
X002406Y000401D01*
X002466Y002331D02*
X002715Y002331D01*
X002505Y002725D02*
X002505Y002745D01*
X003055Y002745D01*
X003055Y002725D01*
X002505Y002725D01*
X002505Y002741D02*
X003055Y002741D01*
X003691Y003911D02*
X004515Y003911D01*
X004515Y003969D02*
X003717Y003969D01*
X003733Y004028D02*
X004515Y004028D01*
X004515Y004086D02*
X003733Y004086D01*
X003720Y004145D02*
X004515Y004145D01*
X004515Y004203D02*
X003695Y004203D01*
X004515Y003735D02*
X000415Y003735D01*
X004394Y003209D02*
X004515Y003209D01*
X004515Y003267D02*
X004477Y003267D01*
D11*
X000855Y000535D03*
X000655Y000935D03*
X000625Y001595D03*
X000675Y002355D03*
X000735Y002935D03*
X000505Y003315D03*
X000745Y004055D03*
X001445Y004065D03*
X002075Y004075D03*
X002510Y004070D03*
X003475Y004060D03*
X004290Y003870D03*
X004290Y003445D03*
X004195Y002595D03*
X004245Y002055D03*
X004205Y001355D03*
X003525Y000605D03*
X004145Y000505D03*
X002525Y001695D03*
X002385Y002085D03*
X002185Y002605D03*
X002255Y000615D03*
X001725Y000525D03*
X001305Y000535D03*
D12*
X000735Y002915D02*
X000715Y002995D01*
X000735Y002935D02*
X000735Y002915D01*
M02*
