%FSLAX24Y24*%
%MOIN*%
G04 EasyPC Gerber Version 18.0.1 Build 3581 *
%ADD116R,0.01260X0.06299*%
%ADD14C,0.00500*%
%ADD13C,0.00600*%
%ADD101C,0.00800*%
%ADD117C,0.01600*%
%ADD99C,0.03200*%
%ADD80C,0.06000*%
X0Y0D02*
D02*
D13*
X2262Y1708D02*
X2349D01*
X2262Y2495D02*
Y3511D01*
G75*
G02X2471Y3720I209*
G01*
X14321*
G75*
G02X15109Y2932J-787*
G01*
X3837Y2495D02*
X3888D01*
Y2539*
G75*
G03X2995Y3432I-894*
G01*
X2601*
G75*
G02X2589Y3444J12*
G01*
X14725Y2598D02*
Y2529D01*
G75*
G03X15266Y1988I541*
G01*
X16605*
G75*
G02X16762Y1830J-157*
G01*
X16010Y2499D02*
Y2818D01*
G75*
G03X15817Y3011I-193*
G01*
X16010Y2499D02*
X15502D01*
G75*
G02X15109Y2893J394*
G01*
Y2932*
X16262Y2499D02*
Y3078D01*
G75*
G03X16251Y3090I-12*
G01*
X16514Y2499D02*
X16526D01*
Y3247*
G75*
G03X16280Y3513I-256J10*
G01*
G75*
G03X15404Y2932I-148J-728*
G01*
Y2952*
X16530Y1476D02*
Y1086D01*
G75*
G02X16329Y885I-201*
G01*
X5447*
G75*
G02X4625Y1708J823*
G01*
X16530Y1476D02*
Y1117D01*
G75*
G03X16752Y895I222*
G01*
X17875*
G75*
G03X18908Y1928J1033*
G01*
Y3178*
G75*
G02X18810Y3277J98*
G01*
Y3297*
X16762Y1830D02*
Y1495D01*
G75*
G03X16782Y1476I20*
G01*
X16766Y2499D02*
Y3054D01*
G75*
G02X16812Y3100I45*
G01*
X17018Y2499D02*
Y2312D01*
X17038*
Y2716*
G75*
G03X17215Y2903I-5J182*
G01*
Y3306*
X17254*
X17471Y1161D02*
X17619D01*
G75*
G03X18583Y2125J965*
G01*
X17471Y1161D02*
X17349D01*
G75*
G02X17034Y1476J315*
G01*
X17648Y2017D02*
X16871D01*
G75*
G03X16762Y1909J-108*
G01*
Y1830*
D02*
D14*
X135Y135D02*
X21569D01*
Y3852*
X135*
Y135*
X1877Y1708D02*
G75*
G02X2647I385D01*
G01*
G75*
G02X1877I-385*
G01*
X2147Y2863D02*
Y3511D01*
G75*
G02X2471Y3835I324*
G01*
X14321*
G75*
G02X15208Y3099J-902*
G01*
G75*
G02X15360Y3193I196J-147*
G01*
G75*
G02X16298Y3643I773J-408*
G01*
G75*
G02X16645Y3280I-33J-380*
G01*
G75*
G02X17026Y3219I166J-180*
G01*
G75*
G02X17009Y3306I229J88*
G01*
G75*
G02X17499I245*
G01*
G75*
G02X17330Y3073I-245*
G01*
Y2904*
G75*
G02X17166Y2632I-297J-6*
G01*
Y2132*
X17432*
G75*
G02X17893Y2017I216J-115*
G01*
G75*
G02X17432Y1902I-245*
G01*
X16918*
X16900Y1883*
G75*
G02X16902Y1876I-137J-53*
G01*
X17182*
Y1366*
G75*
G03X17265Y1294I167J110*
G01*
G75*
G02X17686Y1278I206J-133*
G01*
G75*
G03X18444Y1924I-67J847*
G01*
G75*
G02X18338Y2125I139J202*
G01*
G75*
G02X18793Y2252I245*
G01*
Y3052*
G75*
G02X18565Y3297I17J244*
G01*
G75*
G02X19055I245*
G01*
G75*
G02X19023Y3176I-245*
G01*
Y3163*
G75*
G02X19451Y3110I200J-142*
G01*
G75*
G02X19951Y2923I215J-187*
G01*
G75*
G02X19392Y2844I-285*
G01*
G75*
G02X19023Y2879I-169J177*
G01*
Y1928*
G75*
G02X18685Y1115I-1148*
G01*
G75*
G02X19015Y885I85J-230*
G01*
G75*
G02X18525I-245*
G01*
G75*
G02X18556Y1004I245J0*
G01*
G75*
G02X18240Y840I-681J924*
G01*
G75*
G02X18434Y600I-50J-240*
G01*
G75*
G02X17944I-245*
G01*
G75*
G02X18037Y792I245J0*
G01*
G75*
G02X17875Y780I-163J1137*
G01*
X16752*
G75*
G02X16543Y853J337*
G01*
G75*
G02X16507Y825I-214J233*
G01*
G75*
G02X16761Y580I9J-245*
G01*
G75*
G02X16271I-245*
G01*
G75*
G02X16364Y772I245*
G01*
G75*
G02X16329Y770I-35J314*
G01*
X5447*
G75*
G02X4592Y1324J938*
G01*
G75*
G02X4240Y1708I33J384*
G01*
G75*
G02X5010I385*
G01*
G75*
G02X4822Y1377I-385*
G01*
G75*
G03X5447Y1000I626J331*
G01*
X16329*
G75*
G03X16399Y1036J86*
G01*
X16090*
Y1076*
X15878*
Y1311*
X15401*
G75*
G02X15021Y1515I-135J204*
G01*
G75*
G02X15477Y1641I245*
G01*
X15878*
Y1873*
X15266*
G75*
G02X14629Y2372J656*
G01*
G75*
G02X14480Y2598I96J225*
G01*
G75*
G02X14970I245*
G01*
G75*
G02X14862Y2394I-245*
G01*
G75*
G03X15266Y2103I405J134*
G01*
X15862*
Y2384*
X15502*
G75*
G02X14997Y2837J509*
G01*
G75*
G02X14988Y3017I112J96*
G01*
G75*
G03X14321Y3605I-667J-85*
G01*
X2774*
G75*
G02X2811Y3547I-185J-161*
G01*
X2995*
G75*
G02X3950Y2864J-1009*
G01*
G75*
G02X4222Y2495I-112J-368*
G01*
G75*
G02X3452I-385*
G01*
G75*
G02X3705Y2857I385*
G01*
G75*
G03X2995Y3317I-711J-318*
G01*
X2799*
G75*
G02X2377Y3321I-210J127*
G01*
Y2863*
G75*
G02X2647Y2495I-115J-367*
G01*
G75*
G02X1877I-385*
G01*
G75*
G02X2147Y2863I385*
G01*
X2665Y1708D02*
G75*
G02X3435I385D01*
G01*
G75*
G02X2665I-385*
G01*
Y2495D02*
G75*
G02X3435I385D01*
G01*
G75*
G02X2665I-385*
G01*
X3452Y1708D02*
G75*
G02X4222I385D01*
G01*
G75*
G02X3452I-385*
G01*
X4998Y2401D02*
G75*
G02X4240Y2495I-373J95D01*
G01*
G75*
G02X4998Y2590I385*
G01*
G75*
G02X5837Y2495I414J-95*
G01*
G75*
G02X5507Y2081I-425*
G01*
G75*
G02X5797Y1708I-95J-373*
G01*
G75*
G02X5027I-385*
G01*
G75*
G02X5317Y2081I385*
G01*
G75*
G02X4998Y2401I95J414*
G01*
X6084Y1712D02*
G75*
G02X6574I245D01*
G01*
G75*
G02X6084I-245*
G01*
X8121Y1988D02*
G75*
G02X8891I385D01*
G01*
G75*
G02X8121I-385*
G01*
X8909D02*
G75*
G02X9679I385D01*
G01*
G75*
G02X8909I-385*
G01*
X12738Y1893D02*
G75*
G02X11980Y1988I-373J95D01*
G01*
G75*
G02X12738Y2082I385*
G01*
G75*
G02X13577Y1988I414J-95*
G01*
G75*
G02X12738Y1893I-425*
G01*
X17856Y2932D02*
G75*
G02X18346I245D01*
G01*
G75*
G02X17856I-245*
G01*
X19067Y718D02*
G75*
G02X19557I245D01*
G01*
G75*
G02X19067I-245*
G01*
X19341Y1936D02*
G75*
G02X19273Y2106I177J169D01*
G01*
G75*
G02X19763I245*
G01*
G75*
G02X19732Y1986I-245J0*
G01*
G75*
G02X19990Y1741I12J-245*
G01*
G75*
G02X19547Y1597I-245*
G01*
G75*
G02X19076Y1692I-226J96*
G01*
G75*
G02X19341Y1936I245*
G01*
X19588Y915D02*
G75*
G02X20158I285D01*
G01*
G75*
G02X19588I-285*
G01*
X20139Y1909D02*
G75*
G02X20709I285D01*
G01*
G75*
G02X20139I-285*
G01*
X20513Y3336D02*
G75*
G02X21083I285D01*
G01*
G75*
G02X20513I-285*
G01*
X135Y1708D02*
G36*
Y718D01*
X16314*
G75*
G02X16364Y772I203J-138*
G01*
G75*
G02X16329Y770I-35J314*
G01*
X5447*
G75*
G02X4592Y1324J938*
G01*
G75*
G02X4240Y1708I33J384*
G01*
X4222*
G75*
G02X3452I-385*
G01*
X3435*
G75*
G02X2665I-385*
G01*
X2647*
G75*
G02X1877I-385*
G01*
X135*
G37*
X1877D02*
G36*
G75*
G02X2647I385D01*
G01*
X2665*
G75*
G02X3435I385*
G01*
X3452*
G75*
G02X4222I385*
G01*
X4240*
G75*
G02X5010I385*
G01*
X5027*
G75*
G02X5317Y2081I385*
G01*
G75*
G02X4998Y2401I95J414*
G01*
G75*
G02X4240Y2495I-373J95*
G01*
X4222*
G75*
G02X3452I-385*
G01*
X3435*
G75*
G02X2665I-385*
G01*
X2647*
G75*
G02X1877I-385*
G01*
X135*
Y1708*
X1877*
G37*
X5010D02*
G36*
G75*
G02X4822Y1377I-385D01*
G01*
G75*
G03X5447Y1000I626J331*
G01*
X16329*
G75*
G03X16399Y1036J86*
G01*
X16090*
Y1076*
X15878*
Y1311*
X15401*
G75*
G02X15021Y1515I-135J204*
G01*
G75*
G02X15115Y1708I245*
G01*
X13472*
G75*
G02X12738Y1893I-320J280*
G01*
G75*
G02X12100Y1708I-373J95*
G01*
X9559*
G75*
G02X9029I-265J280*
G01*
X8771*
G75*
G02X8242I-265J280*
G01*
X6574*
G75*
G02X6084I-245J4*
G01*
X5797*
G75*
G02X5027I-385*
G01*
X5010*
G37*
X6084D02*
G36*
G75*
G02Y1712I245J2D01*
G01*
G75*
G02X6574I245*
G01*
G75*
G02Y1708I-245J-2*
G01*
X8242*
G75*
G02X8121Y1988I265J280*
G01*
G75*
G02X8891I385*
G01*
G75*
G02X8771Y1708I-385*
G01*
X9029*
G75*
G02X8909Y1988I265J280*
G01*
G75*
G02X9679I385*
G01*
G75*
G02X9559Y1708I-385*
G01*
X12100*
G75*
G02X11980Y1988I265J280*
G01*
G75*
G02X12738Y2082I385*
G01*
G75*
G02X13577Y1988I414J-95*
G01*
G75*
G02X13472Y1708I-425*
G01*
X15115*
G75*
G02X15477Y1641I151J-193*
G01*
X15878*
Y1873*
X15266*
G75*
G02X14629Y2372J656*
G01*
G75*
G02X14502Y2495I96J225*
G01*
X5837*
G75*
G02X5507Y2081I-425*
G01*
G75*
G02X5797Y1708I-95J-373*
G01*
X6084*
G37*
X19002D02*
G36*
G75*
G02X18685Y1115I-1127J221D01*
G01*
G75*
G02X19015Y885I85J-230*
G01*
G75*
G02X18949Y718I-245*
G01*
X19067*
G75*
G02X19557I245*
G01*
X19666*
G75*
G02X19588Y915I206J197*
G01*
G75*
G02X20158I285*
G01*
G75*
G02X20079Y718I-285*
G01*
X21569*
Y1708*
X20626*
G75*
G02X20221I-202J201*
G01*
X19987*
G75*
G02X19547Y1597I-243J33*
G01*
G75*
G02X19076Y1692I-226J96*
G01*
G75*
G02X19077Y1708I245J0*
G01*
X19002*
G37*
X19077D02*
G36*
G75*
G02X19341Y1936I244J-16D01*
G01*
G75*
G02X19273Y2106I177J169*
G01*
G75*
G02X19763I245*
G01*
G75*
G02X19732Y1986I-245J0*
G01*
G75*
G02X19990Y1741I12J-245*
G01*
G75*
G02X19987Y1708I-245J0*
G01*
X20221*
G75*
G02X20139Y1909I202J201*
G01*
G75*
G02X20709I285*
G01*
G75*
G02X20626Y1708I-285*
G01*
X21569*
Y2495*
X19023*
Y1928*
G75*
G02X19002Y1708I-1149J0*
G01*
X19077*
G37*
X1877Y2495D02*
G36*
G75*
G02X2147Y2863I385D01*
G01*
Y2932*
X135*
Y2495*
X1877*
G37*
X2665D02*
G36*
G75*
G02X3435I385D01*
G01*
X3452*
G75*
G02X3705Y2857I385*
G01*
G75*
G03X2995Y3317I-711J-318*
G01*
X2799*
G75*
G02X2377Y3321I-210J127*
G01*
Y2863*
G75*
G02X2647Y2495I-115J-367*
G01*
X2665*
G37*
X4240D02*
G36*
G75*
G02X4998Y2590I385D01*
G01*
G75*
G02X5837Y2495I414J-95*
G01*
X14502*
G75*
G02X14480Y2598I223J102*
G01*
G75*
G02X14970I245*
G01*
G75*
G02X14862Y2394I-245*
G01*
G75*
G03X15266Y2103I405J134*
G01*
X15862*
Y2384*
X15502*
G75*
G02X14997Y2837J509*
G01*
G75*
G02X14988Y3017I112J96*
G01*
G75*
G03X14321Y3605I-667J-85*
G01*
X2774*
G75*
G02X2811Y3547I-185J-161*
G01*
X2995*
G75*
G02X3950Y2864J-1009*
G01*
G75*
G02X4222Y2495I-112J-368*
G01*
X4240*
G37*
X21569D02*
G36*
Y2932D01*
X19951*
G75*
G02X19951Y2923I-285J-9*
G01*
G75*
G02X19392Y2844I-285*
G01*
G75*
G02X19023Y2879I-169J177*
G01*
Y2495*
X21569*
G37*
X2147Y2932D02*
G36*
Y3336D01*
X135*
Y2932*
X2147*
G37*
X17330D02*
G36*
Y2904D01*
G75*
G02X17166Y2632I-297J-6*
G01*
Y2132*
X17432*
G75*
G02X17893Y2017I216J-115*
G01*
G75*
G02X17432Y1902I-245*
G01*
X16918*
X16900Y1883*
G75*
G02X16902Y1876I-137J-53*
G01*
X17182*
Y1366*
G75*
G03X17265Y1294I167J110*
G01*
G75*
G02X17686Y1278I206J-133*
G01*
G75*
G03X18444Y1924I-67J847*
G01*
G75*
G02X18338Y2125I139J202*
G01*
G75*
G02X18793Y2252I245*
G01*
Y2932*
X18346*
G75*
G02X17856I-245*
G01*
X17330*
G37*
X17856D02*
G36*
G75*
G02X18346I245D01*
G01*
X18793*
Y3052*
G75*
G02X18565Y3297I17J244*
G01*
G75*
G02X19051Y3336I245*
G01*
X20513*
G75*
G02X21083I285*
G01*
X21569*
Y3852*
X135*
Y3336*
X2147*
Y3511*
G75*
G02X2471Y3835I324*
G01*
X14321*
G75*
G02X15208Y3099J-902*
G01*
G75*
G02X15360Y3193I196J-147*
G01*
G75*
G02X16298Y3643I773J-408*
G01*
G75*
G02X16645Y3280I-33J-380*
G01*
G75*
G02X17026Y3219I166J-180*
G01*
G75*
G02X17009Y3306I229J88*
G01*
G75*
G02X17499I245*
G01*
G75*
G02X17330Y3073I-245*
G01*
Y2932*
X17856*
G37*
X21569D02*
G36*
Y3336D01*
X21083*
G75*
G02X20513I-285*
G01*
X19051*
G75*
G02X19055Y3297I-242J-39*
G01*
G75*
G02X19023Y3176I-245*
G01*
Y3163*
G75*
G02X19451Y3110I200J-142*
G01*
G75*
G02X19951Y2932I215J-187*
G01*
X21569*
G37*
X135Y718D02*
G36*
Y135D01*
X21569*
Y718*
X20079*
G75*
G02X19666I-206J197*
G01*
X19557*
G75*
G02X19067I-245*
G01*
X18949*
G75*
G02X18525Y885I-179J167*
G01*
G75*
G02X18556Y1004I245J0*
G01*
G75*
G02X18240Y840I-681J924*
G01*
G75*
G02X18434Y600I-50J-240*
G01*
G75*
G02X17944I-245*
G01*
G75*
G02X18037Y792I245J0*
G01*
G75*
G02X17875Y780I-163J1137*
G01*
X16752*
G75*
G02X16543Y853J337*
G01*
G75*
G02X16507Y825I-214J233*
G01*
G75*
G02X16761Y580I9J-245*
G01*
G75*
G02X16271I-245*
G01*
G75*
G02X16314Y718I245J0*
G01*
X135*
G37*
D02*
D80*
X2262Y1708D03*
Y2495D03*
X3050Y1708D03*
Y2495D03*
X3837Y1708D03*
Y2495D03*
X4625Y1708D03*
Y2495D03*
X5412Y1708D03*
Y2495D03*
X8506Y1988D03*
X9294D03*
X12365D03*
X13152D03*
D02*
D99*
X2589Y3444D03*
X6329Y1712D03*
X14725Y2598D03*
X15266Y1515D03*
X15404Y2952D03*
X15817Y3011D03*
X16251Y3090D03*
X16516Y580D03*
X16812Y3100D03*
X17254Y3306D03*
X17471Y1161D03*
X17648Y2017D03*
X18101Y2932D03*
X18189Y600D03*
X18583Y2125D03*
X18770Y885D03*
X18810Y3297D03*
X19223Y3021D03*
X19312Y718D03*
X19321Y1692D03*
X19518Y2106D03*
X19666Y2923D03*
X19745Y1741D03*
X19873Y915D03*
X20424Y1909D03*
X20798Y3336D03*
D02*
D101*
X5228Y2312D02*
X5101Y2184D01*
X5228Y2679D02*
X5101Y2807D01*
X5596Y2312D02*
X5723Y2184D01*
X5596Y2679D02*
X5723Y2807D01*
X12968Y1804D02*
X12841Y1676D01*
X12968Y2171D02*
X12841Y2299D01*
X13336Y1804D02*
X13463Y1676D01*
X13336Y2171D02*
X13463Y2299D01*
X16278Y1201D02*
Y1021D01*
X19666Y2803D02*
Y2623D01*
Y3043D02*
Y3223D01*
X19753Y915D02*
X19573D01*
X19786Y2923D02*
X19966D01*
X19873Y795D02*
Y615D01*
Y1035D02*
Y1215D01*
X19993Y915D02*
X20173D01*
X20304Y1909D02*
X20124D01*
X20424Y1789D02*
Y1609D01*
Y2029D02*
Y2209D01*
X20544Y1909D02*
X20724D01*
X20678Y3336D02*
X20498D01*
X20798Y3216D02*
Y3036D01*
Y3456D02*
Y3636D01*
X20918Y3336D02*
X21098D01*
D02*
D116*
X16010Y2499D03*
X16026Y1476D03*
X16262Y2499D03*
X16278Y1476D03*
X16514Y2499D03*
X16530Y1476D03*
X16766Y2499D03*
X16782Y1476D03*
X17018Y2499D03*
X17034Y1476D03*
D02*
D117*
X16026D02*
X15306D01*
G75*
G02X15266Y1515J39*
G01*
X0Y0D02*
M02*
