%FSLAX24Y24*%
%MOIN*%
G04 EasyPC Gerber Version 18.0.1 Build 3581 *
%ADD120R,0.01181X0.02756*%
%ADD10C,0.00100*%
%ADD14C,0.00500*%
%ADD13C,0.00600*%
%ADD117C,0.01600*%
%ADD99C,0.03200*%
%ADD80C,0.06000*%
X0Y0D02*
D02*
D10*
X19424Y3852D02*
X20282D01*
G75*
G02X20798Y3336J-516*
G01*
X20234Y1561D02*
Y1719D01*
G75*
G02X20424Y1909I189*
G01*
D02*
D13*
X15817Y3011D02*
Y2854D01*
G75*
G03X16959Y1712I1142*
G01*
X18416*
G75*
G02X18652Y1476J-236*
G01*
Y1338*
X16516Y580D02*
X13772D01*
G75*
G02X12365Y1988J1407*
G01*
X16812Y3100D02*
X16900Y3011D01*
X17668*
G75*
G03X17825Y3169I-6J163*
G01*
G75*
G02X18022Y3365I197*
G01*
X18180*
G75*
G02X18534Y3011J-354*
G01*
Y2519*
X18416Y1338D02*
Y1239D01*
G75*
G03X18770Y885I354*
G01*
X18810Y3297D02*
Y2539D01*
G75*
G02X18770Y2519I-30J10*
G01*
X18888Y1338D02*
Y1663D01*
G75*
G03X18701Y1850I-187*
G01*
X17815*
G75*
G02X17648Y2017J167*
G01*
X19243Y2519D02*
Y2224D01*
G75*
G02X19144Y2125I-98*
G01*
X18583*
X19361Y1338D02*
X19351D01*
Y1367*
X19321*
Y1692*
X19479Y2519D02*
Y2145D01*
G75*
G03X19518Y2106I39*
G01*
X19479Y2519D02*
X19459D01*
X19518Y2106D02*
Y2066D01*
X19508*
Y2115*
X19597Y1338D02*
Y1594D01*
G75*
G02X19745Y1741I148*
G01*
D02*
D14*
X8341Y1640D02*
G75*
G02X8121Y1988I165J348D01*
G01*
G75*
G02X8891I385*
G01*
G75*
G02X8671Y1640I-385*
G01*
Y1464*
G75*
G03X9715Y420I1044*
G01*
X16331*
G75*
G02X16300Y465I186J160*
G01*
X13772*
G75*
G02X12298Y1608J1522*
G01*
G75*
G02X11980Y1988I67J379*
G01*
G75*
G02X12750I385*
G01*
G75*
G02X12528Y1639I-385*
G01*
G75*
G03X13772Y695I1245J349*
G01*
X16300*
G75*
G02X16761Y580I216J-115*
G01*
G75*
G02X16702Y420I-245*
G01*
X18023*
G75*
G02X17999Y754I167J179*
G01*
Y1338*
G75*
G02X18036Y1447I181*
G01*
Y1561*
X18502*
G75*
G03X18416Y1597I-86J-85*
G01*
X16959*
G75*
G02X15704Y2794J1257*
G01*
G75*
G02X15629Y2855I114J217*
G01*
G75*
G02X15159Y2952I-225J97*
G01*
G75*
G02X15593Y3109I245*
G01*
G75*
G02X16015Y3156I225J-97*
G01*
G75*
G02X16496Y3090I236J-67*
G01*
G75*
G02X16053Y2945I-245*
G01*
G75*
G02X15934Y2796I-236J66*
G01*
G75*
G03X16959Y1827I1025J58*
G01*
X17494*
G75*
G02X17403Y2017I155J190*
G01*
G75*
G02X17893I245*
G01*
G75*
G02X17887Y1965I-245J0*
G01*
X18398*
G75*
G02X18408Y2296I185J161*
G01*
X18154*
Y2439*
G75*
G02X18133Y2519I144J80*
G01*
Y2689*
G75*
G02X17856Y2932I-32J243*
G01*
G75*
G02X17860Y2979I245J0*
G01*
G75*
G02X17672Y2896I-198J195*
G01*
G75*
G02X17668Y2896I-4J115*
G01*
X16948*
G75*
G02X16567Y3100I-136J204*
G01*
G75*
G02X17026Y3219I245*
G01*
G75*
G02X17009Y3306I229J88*
G01*
G75*
G02X17499I245*
G01*
G75*
G02X17420Y3126I-245*
G01*
X17665*
G75*
G03X17710Y3171I-3J48*
G01*
G75*
G02X18022Y3480I312J-3*
G01*
X18180*
G75*
G02X18565Y3279J-469*
G01*
G75*
G02X18565Y3297I244J18*
G01*
G75*
G02X19055I245*
G01*
G75*
G02X18996Y3138I-245*
G01*
G75*
G02X19014Y3150I207J-304*
G01*
G75*
G02X19468Y3021I209J-129*
G01*
G75*
G02X19197Y2777I-245*
G01*
Y2742*
X19623*
Y2550*
G75*
G02Y2488I-144J-31*
G01*
Y2327*
G75*
G02X19732Y1986I-105J-221*
G01*
G75*
G02X19904Y1927I12J-245*
G01*
Y2296*
X19807*
Y2439*
G75*
G02Y2599I144J80*
G01*
Y2742*
X20020*
G75*
G03X19144Y3555I-876J-65*
G01*
X10079*
G75*
G03X9459Y2934J-620*
G01*
Y2335*
G75*
G02X9679Y1988I-165J-348*
G01*
G75*
G02X8909I-385*
G01*
G75*
G02X9129Y2335I385*
G01*
Y2934*
G75*
G02X9832Y3852I950*
G01*
X135*
Y135*
X9367*
G75*
G02X8341Y1464I348J1329*
G01*
Y1640*
X1877Y1708D02*
G75*
G02X2647I385D01*
G01*
G75*
G02X1877I-385*
G01*
Y2495D02*
G75*
G02X2647I385D01*
G01*
G75*
G02X1877I-385*
G01*
X2344Y3444D02*
G75*
G02X2834I245D01*
G01*
G75*
G02X2344I-245*
G01*
X2665Y1708D02*
G75*
G02X3435I385D01*
G01*
G75*
G02X2665I-385*
G01*
Y2495D02*
G75*
G02X3435I385D01*
G01*
G75*
G02X2665I-385*
G01*
X3452Y1708D02*
G75*
G02X4222I385D01*
G01*
G75*
G02X3452I-385*
G01*
Y2495D02*
G75*
G02X4222I385D01*
G01*
G75*
G02X3452I-385*
G01*
X4240Y1708D02*
G75*
G02X5010I385D01*
G01*
G75*
G02X4240I-385*
G01*
Y2495D02*
G75*
G02X5010I385D01*
G01*
G75*
G02X4240I-385*
G01*
X5752Y1527D02*
G75*
G02X5027Y1708I-340J181D01*
G01*
G75*
G02X5752Y1889I385*
G01*
X6160*
G75*
G02X6574Y1712I170J-177*
G01*
G75*
G02X6168Y1527I-245*
G01*
X5752*
X14480Y2598D02*
G75*
G02X14970I245D01*
G01*
G75*
G02X14480I-245*
G01*
X15021Y1515D02*
G75*
G02X15511I245D01*
G01*
G75*
G02X15021I-245*
G01*
X17226Y1161D02*
G75*
G02X17716I245D01*
G01*
G75*
G02X17226I-245*
G01*
X135Y1708D02*
G36*
Y135D01*
X9367*
G75*
G02X8341Y1464I348J1329*
G01*
Y1640*
G75*
G02X8242Y1708I165J348*
G01*
X6574*
G75*
G02X6168Y1527I-245J4*
G01*
X5752*
G75*
G02X5027Y1708I-340J181*
G01*
X5010*
G75*
G02X4240I-385*
G01*
X4222*
G75*
G02X3452I-385*
G01*
X3435*
G75*
G02X2665I-385*
G01*
X2647*
G75*
G02X1877I-385*
G01*
X135*
G37*
X1877D02*
G36*
G75*
G02X2647I385D01*
G01*
X2665*
G75*
G02X3435I385*
G01*
X3452*
G75*
G02X4222I385*
G01*
X4240*
G75*
G02X5010I385*
G01*
X5027*
G75*
G02X5752Y1889I385*
G01*
X6160*
G75*
G02X6574Y1712I170J-177*
G01*
G75*
G02Y1708I-245J-2*
G01*
X8242*
G75*
G02X8121Y1988I265J280*
G01*
G75*
G02X8891I385*
G01*
G75*
G02X8671Y1640I-385*
G01*
Y1464*
G75*
G03X9715Y420I1044*
G01*
X16331*
G75*
G02X16300Y465I186J160*
G01*
X13772*
G75*
G02X12298Y1608J1522*
G01*
G75*
G02X11980Y1988I67J379*
G01*
G75*
G02X12750I385*
G01*
G75*
G02X12629Y1708I-385*
G01*
X15115*
G75*
G02X15417I151J-193*
G01*
X16443*
G75*
G02X15755Y2495I517J1146*
G01*
X14948*
G75*
G02X14502I-223J102*
G01*
X9459*
Y2335*
G75*
G02X9679Y1988I-165J-348*
G01*
G75*
G02X8909I-385*
G01*
G75*
G02X9129Y2335I385*
G01*
Y2495*
X5010*
G75*
G02X4240I-385*
G01*
X4222*
G75*
G02X3452I-385*
G01*
X3435*
G75*
G02X2665I-385*
G01*
X2647*
G75*
G02X1877I-385*
G01*
X135*
Y1708*
X1877*
G37*
X12629D02*
G36*
G75*
G02X12528Y1639I-265J280D01*
G01*
G75*
G03X12779Y1161I1245J349*
G01*
X17226*
G75*
G02X17716I245*
G01*
X17999*
Y1338*
G75*
G02X18036Y1447I181*
G01*
Y1561*
X18502*
G75*
G03X18416Y1597I-86J-85*
G01*
X16959*
G75*
G02X16443Y1708J1257*
G01*
X15417*
G75*
G02X15511Y1515I-151J-193*
G01*
G75*
G02X15021I-245*
G01*
G75*
G02X15115Y1708I245*
G01*
X12629*
G37*
X1877Y2495D02*
G36*
G75*
G02X2647I385D01*
G01*
X2665*
G75*
G02X3435I385*
G01*
X3452*
G75*
G02X4222I385*
G01*
X4240*
G75*
G02X5010I385*
G01*
X9129*
Y2934*
G75*
G02X9277Y3444I950J0*
G01*
X2834*
G75*
G02X2344I-245*
G01*
X135*
Y2495*
X1877*
G37*
X14502D02*
G36*
G75*
G02X14480Y2598I223J102D01*
G01*
G75*
G02X14970I245*
G01*
G75*
G02X14948Y2495I-245*
G01*
X15755*
G75*
G02X15704Y2794I1205J358*
G01*
G75*
G02X15629Y2855I114J217*
G01*
G75*
G02X15159Y2952I-225J97*
G01*
G75*
G02X15593Y3109I245*
G01*
G75*
G02X16015Y3156I225J-97*
G01*
G75*
G02X16496Y3090I236J-67*
G01*
G75*
G02X16053Y2945I-245*
G01*
G75*
G02X15934Y2796I-236J66*
G01*
G75*
G03X16959Y1827I1025J58*
G01*
X17494*
G75*
G02X17403Y2017I155J190*
G01*
G75*
G02X17893I245*
G01*
G75*
G02X17887Y1965I-245J0*
G01*
X18398*
G75*
G02X18408Y2296I185J161*
G01*
X18154*
Y2439*
G75*
G02X18133Y2519I144J80*
G01*
Y2689*
G75*
G02X17856Y2932I-32J243*
G01*
G75*
G02X17860Y2979I245J0*
G01*
G75*
G02X17672Y2896I-198J195*
G01*
G75*
G02X17668Y2896I-4J115*
G01*
X16948*
G75*
G02X16567Y3100I-136J204*
G01*
G75*
G02X17026Y3219I245*
G01*
G75*
G02X17009Y3306I229J88*
G01*
G75*
G02X17499I245*
G01*
G75*
G02X17420Y3126I-245*
G01*
X17665*
G75*
G03X17710Y3171I-3J48*
G01*
G75*
G02X18022Y3480I312J-3*
G01*
X18180*
G75*
G02X18565Y3279J-469*
G01*
G75*
G02X18565Y3297I244J18*
G01*
G75*
G02X19055I245*
G01*
G75*
G02X18996Y3138I-245*
G01*
G75*
G02X19014Y3150I207J-304*
G01*
G75*
G02X19468Y3021I209J-129*
G01*
G75*
G02X19197Y2777I-245*
G01*
Y2742*
X19623*
Y2550*
G75*
G02Y2488I-144J-31*
G01*
Y2327*
G75*
G02X19732Y1986I-105J-221*
G01*
G75*
G02X19904Y1927I12J-245*
G01*
Y2296*
X19807*
Y2439*
G75*
G02Y2599I144J80*
G01*
Y2742*
X20020*
G75*
G03X19144Y3555I-876J-65*
G01*
X10079*
G75*
G03X9459Y2934J-620*
G01*
Y2495*
X14502*
G37*
X2344Y3444D02*
G36*
G75*
G02X2834I245D01*
G01*
X9277*
G75*
G02X9832Y3852I802J-510*
G01*
X135*
Y3444*
X2344*
G37*
X12779Y1161D02*
G36*
G75*
G03X13772Y695I993J827D01*
G01*
X16300*
G75*
G02X16761Y580I216J-115*
G01*
G75*
G02X16702Y420I-245*
G01*
X18023*
G75*
G02X17999Y754I167J179*
G01*
Y1161*
X17716*
G75*
G02X17226I-245*
G01*
X12779*
G37*
X18356Y420D02*
X19695D01*
G75*
G03X20586Y1115J918*
G01*
X19925*
Y1203*
G75*
G02X19904Y1446I144J135*
G01*
Y1556*
G75*
G02X19741Y1496I-160J186*
G01*
Y1115*
X19305*
Y1051*
X19433Y931*
G75*
G02X19557Y718I-121J-213*
G01*
G75*
G02X19067I-245*
G01*
G75*
G02X19073Y774I245J0*
G01*
X19010Y834*
G75*
G02X18530Y836I-239J52*
G01*
G75*
G02X18360Y1011I240J403*
G01*
Y775*
G75*
G02X18356Y420I-171J-176*
G01*
G36*
X19695*
G75*
G03X20586Y1115J918*
G01*
X19925*
Y1203*
G75*
G02X19904Y1446I144J135*
G01*
Y1556*
G75*
G02X19741Y1496I-160J186*
G01*
Y1115*
X19305*
Y1051*
X19433Y931*
G75*
G02X19557Y718I-121J-213*
G01*
G75*
G02X19067I-245*
G01*
G75*
G02X19073Y774I245J0*
G01*
X19010Y834*
G75*
G02X18530Y836I-239J52*
G01*
G75*
G02X18360Y1011I240J403*
G01*
Y775*
G75*
G02X18356Y420I-171J-176*
G01*
G37*
X19424Y3852D02*
G75*
G02X20351Y2742I-280J-1176D01*
G01*
X20804*
Y2654*
G75*
G02X20820Y2634I-144J-135*
G01*
G75*
G02X20943Y2401I-160J-234*
G01*
Y1446*
G75*
G02X20938Y1222I-165J-108*
G01*
G75*
G02X20027Y135I-1242J116*
G01*
X21569*
Y3852*
X19424*
G36*
G75*
G02X20351Y2742I-280J-1176*
G01*
X20804*
Y2654*
G75*
G02X20820Y2634I-144J-135*
G01*
G75*
G02X20943Y2401I-160J-234*
G01*
Y1446*
G75*
G02X20938Y1222I-165J-108*
G01*
G75*
G02X20027Y135I-1242J116*
G01*
X21569*
Y3852*
X19424*
G37*
X20234Y1561D02*
X20613D01*
Y2296*
X20234*
Y1561*
G36*
X20613*
Y2296*
X20234*
Y1561*
G37*
D02*
D80*
X2262Y1708D03*
Y2495D03*
X3050Y1708D03*
Y2495D03*
X3837Y1708D03*
Y2495D03*
X4625Y1708D03*
Y2495D03*
X5412Y1708D03*
Y2495D03*
X8506Y1988D03*
X9294D03*
X12365D03*
X13152D03*
D02*
D99*
X2589Y3444D03*
X6329Y1712D03*
X14725Y2598D03*
X15266Y1515D03*
X15404Y2952D03*
X15817Y3011D03*
X16251Y3090D03*
X16516Y580D03*
X16812Y3100D03*
X17254Y3306D03*
X17471Y1161D03*
X17648Y2017D03*
X18101Y2932D03*
X18189Y600D03*
X18583Y2125D03*
X18770Y885D03*
X18810Y3297D03*
X19223Y3021D03*
X19312Y718D03*
X19321Y1692D03*
X19518Y2106D03*
X19666Y2923D03*
X19745Y1741D03*
X19873Y915D03*
X20424Y1909D03*
X20798Y3336D03*
D02*
D117*
X5412Y1708D02*
X6325D01*
G75*
G03X6329Y1712J4*
G01*
X8506Y1988D02*
Y1464D01*
G75*
G03X9715Y255I1209*
G01*
X19695*
G75*
G03X20778Y1338J1083*
G01*
X9294Y1988D02*
Y2934D01*
G75*
G02X10079Y3720I785*
G01*
X19144*
G75*
G02X20188Y2676J-1043*
G01*
Y2519*
X18180Y1338D02*
Y944D01*
X18189*
Y600*
X18298Y2519D02*
Y2736D01*
G75*
G03X18101Y2932I-197*
G01*
X19125Y1338D02*
Y974D01*
X19134*
X19312Y797*
Y718*
X19223Y3021D02*
X19203D01*
G75*
G03X19016Y2834J-187*
G01*
Y2519*
X19006*
X19715D02*
Y2873D01*
G75*
G03X19666Y2923I-49*
G01*
X19833Y1338D02*
Y954D01*
G75*
G03X19873Y915I39*
G01*
X20069Y1338D02*
Y2401D01*
G75*
G02X20188Y2519I118*
G01*
X19951*
X20306Y1338D02*
X20069D01*
X20542D02*
X20778D01*
X20660Y2519D02*
X20424D01*
X20778Y1338D02*
Y2401D01*
G75*
G03X20660Y2519I-118*
G01*
D02*
D120*
X17943Y1338D03*
X18062Y2519D03*
X18180Y1338D03*
X18298Y2519D03*
X18416Y1338D03*
X18534Y2519D03*
X18652Y1338D03*
X18770Y2519D03*
X18888Y1338D03*
X19006Y2519D03*
X19125Y1338D03*
X19243Y2519D03*
X19361Y1338D03*
X19479Y2519D03*
X19597Y1338D03*
X19715Y2519D03*
X19833Y1338D03*
X19951Y2519D03*
X20069Y1338D03*
X20188Y2519D03*
X20306Y1338D03*
X20424Y2519D03*
X20542Y1338D03*
X20660Y2519D03*
X20778Y1338D03*
X0Y0D02*
M02*
