%FSLAX24Y24*%
%MOIN*%
G04 EasyPC Gerber Version 18.0.1 Build 3581 *
%ADD10C,0.00100*%
%ADD13C,0.00600*%
%ADD99C,0.03200*%
%ADD80C,0.06000*%
X0Y0D02*
D02*
D10*
X25Y25D02*
X21679D01*
Y3962*
X25*
Y25*
X2192Y2102D02*
G75*
G02X1862Y2495I71J394D01*
G01*
G75*
G02X2528Y2794I400*
G01*
Y2893*
G75*
G02X2617Y3186I524*
G01*
G75*
G02X2329Y3444I-28J258*
G01*
G75*
G02X2814Y3574I260*
G01*
X16999*
G75*
G02X17148Y3543J-376*
G01*
G75*
G02X17514Y3306I107J-237*
G01*
G75*
G02X17384Y3081I-260*
G01*
Y2952*
G75*
G03X17619Y2718I234*
G01*
X17954*
G75*
G02X17841Y2932I147J214*
G01*
G75*
G02X18361I260*
G01*
G75*
G02X18248Y2718I-260*
G01*
X19420*
G75*
G02X19514Y2711I0J-681*
G01*
G75*
G02X19417Y2848I152J211*
G01*
G75*
G02X18963Y3021I-194J173*
G01*
G75*
G02X18974Y3095I260J0*
G01*
G75*
G02X18550Y3297I-164J202*
G01*
G75*
G02X19070I260*
G01*
G75*
G02X19059Y3223I-260J0*
G01*
G75*
G02X19472Y3096I164J-202*
G01*
G75*
G02X19626Y3179I194J-173*
G01*
Y3077*
G75*
G03X19511Y2963I40J-155*
G01*
X19476*
G75*
G02X19443Y2883I-253J58*
G01*
X19511*
G75*
G03X19626Y2768I155J40*
G01*
Y2686*
G75*
G02X20101Y2037I-206J-649*
G01*
Y1869*
G75*
G02X19991Y1658I-258*
G01*
G75*
G02X19550Y1569I-246J83*
G01*
G75*
G02X19096Y1562I-229J123*
G01*
X15940*
G75*
G02X15916I-12J379*
G01*
G75*
G02X15294Y2184J622*
G01*
Y2717*
G75*
G02X15144Y2952I110J235*
G01*
G75*
G02X15144Y2960I260J0*
G01*
X14681*
G75*
G02X14779Y2852I-291J-362*
G01*
G75*
G02X14985Y2598I-54J-254*
G01*
G75*
G02X14465I-260*
G01*
G75*
G02X14519Y2757I260*
G01*
G75*
G03X14390Y2802I-129J-159*
G01*
X5668*
G75*
G02X5810Y2535I-256J-307*
G01*
X5709*
G75*
G03X5452Y2793I-297J-40*
G01*
Y2802*
X5372*
Y2793*
G75*
G03X5115Y2535I40J-297*
G01*
X5023*
G75*
G02X5025Y2495I-398J-40*
G01*
G75*
G02X5023Y2455I-400J0*
G01*
X5115*
G75*
G03X5372Y2198I297J40*
G01*
Y2106*
G75*
G02X5452I40J-398*
G01*
Y2198*
G75*
G03X5709Y2455I-40J297*
G01*
X5810*
G75*
G02X5483Y2102I-398J40*
G01*
G75*
G02X5812Y1708I-71J-394*
G01*
G75*
G02X5018Y1637I-400*
G01*
G75*
G02X4231I-394J71*
G01*
G75*
G02X3967Y1330I-394J71*
G01*
Y946*
G75*
G03X4508Y405I541*
G01*
X16324*
G75*
G02X16256Y580I192J175*
G01*
G75*
G02X16776I260*
G01*
G75*
G02X16708Y405I-260*
G01*
X16930*
G75*
G03X17341Y816J411*
G01*
Y936*
G75*
G02X17211Y1161I130J225*
G01*
G75*
G02X17731I260*
G01*
G75*
G02X17601Y936I-260*
G01*
Y816*
G75*
G02X16930Y145I-671*
G01*
X4508*
G75*
G02X3707Y946J801*
G01*
Y1330*
G75*
G02X3443Y1637I130J378*
G01*
G75*
G02X2656I-394J71*
G01*
G75*
G02X1862Y1708I-394J71*
G01*
G75*
G02X2192Y2102I400*
G01*
X6069Y1712D02*
G75*
G02X6589I260D01*
G01*
G75*
G02X6069I-260*
G01*
X8900Y1917D02*
G75*
G02X8106Y1988I-394J71D01*
G01*
G75*
G02X8900Y2058I400*
G01*
G75*
G02X9694Y1988I394J-71*
G01*
G75*
G02X8900Y1917I-400*
G01*
X12758D02*
G75*
G02X11965Y1988I-394J71D01*
G01*
G75*
G02X12758Y2058I400*
G01*
G75*
G02X13112Y2386I394J-71*
G01*
Y2285*
G75*
G03X12855Y2028I40J-297*
G01*
X12763*
G75*
G02X12765Y1988I-398J-40*
G01*
G75*
G02X12763Y1948I-400J0*
G01*
X12855*
G75*
G03X13112Y1690I297J40*
G01*
Y1590*
G75*
G02X12758Y1917I40J398*
G01*
X13192Y1690D02*
G75*
G03X13449Y1948I-40J297D01*
G01*
X13550*
G75*
G02X13192Y1590I-398J40*
G01*
Y1690*
X13449Y2028D02*
G75*
G03X13192Y2285I-297J-40D01*
G01*
Y2386*
G75*
G02X13550Y2028I-40J-398*
G01*
X13449*
X15006Y1515D02*
G75*
G02X15526I260D01*
G01*
G75*
G02X15006I-260*
G01*
X17929Y600D02*
G75*
G02X18449I260D01*
G01*
G75*
G02X17929I-260*
G01*
X18510Y885D02*
G75*
G02X19030I260D01*
G01*
G75*
G02X18510I-260*
G01*
X19052Y718D02*
G75*
G02X19572I260D01*
G01*
G75*
G02X19052I-260*
G01*
X19706Y2768D02*
G75*
G03X19821Y2883I-40J155D01*
G01*
X19923*
G75*
G02X19706Y2666I-257J40*
G01*
Y2768*
X19718Y875D02*
G75*
G03X19833Y760I155J40D01*
G01*
Y658*
G75*
G02X19616Y875I40J257*
G01*
X19718*
X19821Y2963D02*
G75*
G03X19706Y3077I-155J-40D01*
G01*
Y3179*
G75*
G02X19923Y2963I-40J-257*
G01*
X19821*
X19833Y1070D02*
G75*
G03X19718Y955I40J-155D01*
G01*
X19616*
G75*
G02X19833Y1172I257J-40*
G01*
Y1070*
X19913Y760D02*
G75*
G03X20027Y875I-40J155D01*
G01*
X20129*
G75*
G02X19913Y658I-257J40*
G01*
Y760*
X20027Y955D02*
G75*
G03X19913Y1070I-155J-40D01*
G01*
Y1172*
G75*
G02X20129Y955I-40J-257*
G01*
X20027*
X20269Y1869D02*
G75*
G03X20384Y1754I155J40D01*
G01*
Y1652*
G75*
G02X20167Y1869I40J257*
G01*
X20269*
X20384Y2064D02*
G75*
G03X20269Y1949I40J-155D01*
G01*
X20167*
G75*
G02X20384Y2166I257J-40*
G01*
Y2064*
X20464Y1754D02*
G75*
G03X20579Y1869I-40J155D01*
G01*
X20681*
G75*
G02X20464Y1652I-257J40*
G01*
Y1754*
X20579Y1949D02*
G75*
G03X20464Y2064I-155J-40D01*
G01*
Y2166*
G75*
G02X20681Y1949I-40J-257*
G01*
X20579*
X20643Y3296D02*
G75*
G03X20758Y3181I155J40D01*
G01*
Y3079*
G75*
G02X20541Y3296I40J257*
G01*
X20643*
X20758Y3491D02*
G75*
G03X20643Y3376I40J-155D01*
G01*
X20541*
G75*
G02X20758Y3593I257J-40*
G01*
Y3491*
X20838Y3181D02*
G75*
G03X20953Y3296I-40J155D01*
G01*
X21055*
G75*
G02X20838Y3079I-257J40*
G01*
Y3181*
X20953Y3376D02*
G75*
G03X20838Y3491I-155J-40D01*
G01*
Y3593*
G75*
G02X21055Y3376I-40J-257*
G01*
X20953*
X25Y1925D02*
G36*
Y1760D01*
X1866*
G75*
G02X1926Y1925I397J-52*
G01*
X25*
G37*
X1926D02*
G36*
G75*
G02X2067Y2057I336J-217D01*
G01*
X25*
Y1925*
X1926*
G37*
X5748D02*
G36*
G75*
G02X5809Y1760I-336J-217D01*
G01*
X6074*
G75*
G02X6180Y1925I255J-48*
G01*
X5748*
G37*
X6180D02*
G36*
G75*
G02X6479I150J-213D01*
G01*
X8111*
G75*
G02X8106Y1988I395J63*
G01*
G75*
G02X8113Y2057I400J0*
G01*
X5607*
G75*
G02X5748Y1925I-195J-349*
G01*
X6180*
G37*
X6479D02*
G36*
G75*
G02X6585Y1760I-150J-213D01*
G01*
X8177*
G75*
G02X8111Y1925I329J227*
G01*
X6479*
G37*
X9689D02*
G36*
G75*
G02X9623Y1760I-395J63D01*
G01*
X12035*
G75*
G02X11970Y1925I329J227*
G01*
X9689*
G37*
X11970D02*
G36*
G75*
G02X11965Y1988I395J63D01*
G01*
G75*
G02X11971Y2057I400J0*
G01*
X9688*
G75*
G02X9694Y1988I-394J-70*
G01*
G75*
G02X9689Y1925I-400J0*
G01*
X11970*
G37*
X12859D02*
G36*
G75*
G03X12956Y1760I293J63D01*
G01*
X13348*
G75*
G03X13445Y1925I-196J227*
G01*
X12859*
G37*
X13445D02*
G36*
G75*
G03X13449Y1948I-293J63D01*
G01*
X13550*
G75*
G02X13547Y1925I-398J40*
G01*
X15351*
G75*
G02X15307Y2057I565J260*
G01*
X13546*
G75*
G02X13550Y2028I-394J-69*
G01*
X13449*
G75*
G03X13444Y2057I-297J-40*
G01*
X12860*
G75*
G03X12855Y2028I292J-70*
G01*
X12763*
G75*
G02Y1948I-398J-40*
G01*
X12855*
G75*
G03X12859Y1925I297J40*
G01*
X13445*
G37*
X13547D02*
G36*
G75*
G02X13481Y1760I-395J63D01*
G01*
X15180*
G75*
G02X15353I86J-245*
G01*
X15461*
G75*
G02X15351Y1925I455J424*
G01*
X13547*
G37*
X20101D02*
G36*
Y1869D01*
G75*
G02X20077Y1760I-258*
G01*
X20210*
G75*
G02X20167Y1869I213J148*
G01*
X20269*
G75*
G03X20364Y1760I155J40*
G01*
X20483*
G75*
G03X20579Y1869I-60J148*
G01*
X20681*
G75*
G02X20637Y1760I-257J40*
G01*
X21679*
Y1925*
X20101*
G37*
X21679D02*
G36*
Y2057D01*
X20637*
G75*
G02X20681Y1949I-213J-148*
G01*
X20579*
G75*
G03X20484Y2057I-155J-40*
G01*
X20364*
G75*
G03X20269Y1949I60J-148*
G01*
X20167*
G75*
G02X20210Y2057I257J-40*
G01*
X20101*
G75*
G02X20101Y2037I-681J-21*
G01*
Y1925*
X21679*
G37*
X25Y2206D02*
G36*
Y2057D01*
X2067*
G75*
G02X2192Y2102I195J-349*
G01*
G75*
G02X1986Y2206I71J394*
G01*
X25*
G37*
X1986D02*
G36*
G75*
G02X1862Y2495I277J289D01*
G01*
G75*
G02X1975Y2774I400*
G01*
X25*
Y2206*
X1986*
G37*
X5689D02*
G36*
G75*
G02X5483Y2102I-277J289D01*
G01*
G75*
G02X5607Y2057I-71J-394*
G01*
X8113*
G75*
G02X8172Y2206I394J-70*
G01*
X5689*
G37*
X8172D02*
G36*
G75*
G02X8900Y2058I335J-219D01*
G01*
G75*
G02X9629Y2206I394J-71*
G01*
X12030*
G75*
G02X12758Y2058I335J-219*
G01*
G75*
G02X13112Y2386I394J-71*
G01*
Y2285*
G75*
G03X12947Y2206I40J-297*
G01*
X13357*
G75*
G03X13192Y2285I-205J-219*
G01*
Y2386*
G75*
G02X13487Y2206I-40J-398*
G01*
X15294*
Y2717*
G75*
G02X15144Y2952I110J235*
G01*
G75*
G02X15144Y2960I260J0*
G01*
X14681*
G75*
G02X14779Y2852I-291J-362*
G01*
G75*
G02X14985Y2598I-54J-254*
G01*
G75*
G02X14465I-260*
G01*
G75*
G02X14519Y2757I260*
G01*
G75*
G03X14390Y2802I-129J-159*
G01*
X5668*
G75*
G02X5810Y2535I-256J-307*
G01*
X5709*
G75*
G03X5452Y2793I-297J-40*
G01*
Y2802*
X5372*
Y2793*
G75*
G03X5115Y2535I40J-297*
G01*
X5023*
G75*
G02Y2455I-398J-40*
G01*
X5115*
G75*
G03X5372Y2198I297J40*
G01*
Y2106*
G75*
G02X5452I40J-398*
G01*
Y2198*
G75*
G03X5709Y2455I-40J297*
G01*
X5810*
G75*
G02X5689Y2206I-398J40*
G01*
X8172*
G37*
X9629D02*
G36*
G75*
G02X9688Y2057I-335J-219D01*
G01*
X11971*
G75*
G02X12030Y2206I394J-70*
G01*
X9629*
G37*
X12947D02*
G36*
G75*
G03X12860Y2057I205J-219D01*
G01*
X13444*
G75*
G03X13357Y2206I-292J-70*
G01*
X12947*
G37*
X13487D02*
G36*
G75*
G02X13546Y2057I-335J-219D01*
G01*
X15307*
G75*
G02X15294Y2184I609J127*
G01*
Y2206*
X13487*
G37*
X20079D02*
G36*
G75*
G02X20101Y2057I-660J-170D01*
G01*
X20210*
G75*
G02X20384Y2166I213J-148*
G01*
Y2064*
G75*
G03X20364Y2057I40J-155*
G01*
X20484*
G75*
G03X20464Y2064I-60J-148*
G01*
Y2166*
G75*
G02X20637Y2057I-40J-257*
G01*
X21679*
Y2206*
X20079*
G37*
X21679D02*
G36*
Y2774D01*
X19879*
G75*
G02X19706Y2666I-213J148*
G01*
Y2768*
G75*
G03X19726Y2774I-40J155*
G01*
X19606*
G75*
G03X19626Y2768I60J148*
G01*
Y2686*
G75*
G02X20079Y2206I-206J-649*
G01*
X21679*
G37*
X25Y1515D02*
G36*
Y1063D01*
X3707*
Y1330*
G75*
G02X3443Y1637I130J378*
G01*
G75*
G02X2656I-394J71*
G01*
G75*
G02X1912Y1515I-394J71*
G01*
X25*
G37*
X1912D02*
G36*
G75*
G02X1862Y1708I350J193D01*
G01*
G75*
G02X1866Y1760I400J0*
G01*
X25*
Y1515*
X1912*
G37*
X5762D02*
G36*
G75*
G02X5018Y1637I-350J193D01*
G01*
G75*
G02X4231I-394J71*
G01*
G75*
G02X3967Y1330I-394J71*
G01*
Y946*
G75*
G03X4508Y405I541*
G01*
X16324*
G75*
G02X16256Y580I192J175*
G01*
G75*
G02X16776I260*
G01*
G75*
G02X16708Y405I-260*
G01*
X16930*
G75*
G03X17341Y816J411*
G01*
Y936*
G75*
G02X17211Y1161I130J225*
G01*
G75*
G02X17731I260*
G01*
G75*
G02X17712Y1063I-260J0*
G01*
X18581*
G75*
G02X18960I190J-178*
G01*
X19659*
G75*
G02X19833Y1172I213J-148*
G01*
Y1070*
G75*
G03X19813Y1063I40J-155*
G01*
X19932*
G75*
G03X19913Y1070I-60J-148*
G01*
Y1172*
G75*
G02X20086Y1063I-40J-257*
G01*
X21679*
Y1515*
X19872*
G75*
G02X19550Y1569I-128J226*
G01*
G75*
G02X19131Y1515I-229J123*
G01*
X15526*
G75*
G02X15006I-260*
G01*
X6499*
G75*
G02X6159I-170J197*
G01*
X5762*
G37*
X6159D02*
G36*
G75*
G02X6069Y1712I170J197D01*
G01*
G75*
G02X6074Y1760I260J0*
G01*
X5809*
G75*
G02X5812Y1708I-397J-52*
G01*
G75*
G02X5762Y1515I-400J0*
G01*
X6159*
G37*
X15006D02*
G36*
G75*
G02X15180Y1760I260D01*
G01*
X13481*
G75*
G02X13192Y1590I-329J227*
G01*
Y1690*
G75*
G03X13348Y1760I-40J297*
G01*
X12956*
G75*
G03X13112Y1690I196J227*
G01*
Y1590*
G75*
G02X12758Y1917I40J398*
G01*
G75*
G02X12035Y1760I-394J71*
G01*
X9623*
G75*
G02X8900Y1917I-329J227*
G01*
G75*
G02X8177Y1760I-394J71*
G01*
X6585*
G75*
G02X6589Y1712I-256J-48*
G01*
G75*
G02X6499Y1515I-260*
G01*
X15006*
G37*
X19131D02*
G36*
G75*
G02X19096Y1562I190J177D01*
G01*
X15940*
G75*
G02X15916I-12J379*
G01*
G75*
G02X15461Y1760J622*
G01*
X15353*
G75*
G02X15526Y1515I-86J-245*
G01*
X19131*
G37*
X21679D02*
G36*
Y1760D01*
X20637*
G75*
G02X20464Y1652I-213J148*
G01*
Y1754*
G75*
G03X20483Y1760I-40J155*
G01*
X20364*
G75*
G03X20384Y1754I60J148*
G01*
Y1652*
G75*
G02X20210Y1760I40J257*
G01*
X20077*
G75*
G02X19991Y1658I-234J109*
G01*
G75*
G02X19872Y1515I-246J83*
G01*
X21679*
G37*
X25Y600D02*
G36*
Y25D01*
X21679*
Y600*
X19543*
G75*
G02X19080I-232J118*
G01*
X18449*
G75*
G02X17929I-260*
G01*
X17565*
G75*
G02X16930Y145I-635J217*
G01*
X4508*
G75*
G02X3786Y600J801*
G01*
X25*
G37*
X3786D02*
G36*
G75*
G02X3728Y766I722J346D01*
G01*
X25*
Y600*
X3786*
G37*
X17929D02*
G36*
G75*
G02X17990Y766I260D01*
G01*
X17599*
G75*
G02X17565Y600I-669J50*
G01*
X17929*
G37*
X19080D02*
G36*
G75*
G02X19052Y718I232J118D01*
G01*
G75*
G02X19056Y766I260J0*
G01*
X19001*
G75*
G02X18539I-231J119*
G01*
X18389*
G75*
G02X18449Y600I-200J-166*
G01*
X19080*
G37*
X21679D02*
G36*
Y766D01*
X20086*
G75*
G02X19913Y658I-213J148*
G01*
Y760*
G75*
G03X19932Y766I-40J155*
G01*
X19813*
G75*
G03X19833Y760I60J148*
G01*
Y658*
G75*
G02X19659Y766I40J257*
G01*
X19567*
G75*
G02X19572Y718I-256J-48*
G01*
G75*
G02X19543Y600I-260*
G01*
X21679*
G37*
X25Y885D02*
G36*
Y766D01*
X3728*
G75*
G02X3709Y885I781J180*
G01*
X25*
G37*
X3709D02*
G36*
G75*
G02X3707Y946I799J61D01*
G01*
Y1063*
X25*
Y885*
X3709*
G37*
X17601D02*
G36*
Y816D01*
G75*
G02X17599Y766I-671J0*
G01*
X17990*
G75*
G02X18389I200J-166*
G01*
X18539*
G75*
G02X18510Y885I231J119*
G01*
X17601*
G37*
X18510D02*
G36*
G75*
G02X18581Y1063I260D01*
G01*
X17712*
G75*
G02X17601Y936I-241J98*
G01*
Y885*
X18510*
G37*
X19030D02*
G36*
G75*
G02X19001Y766I-260J0D01*
G01*
X19056*
G75*
G02X19113Y885I255J-48*
G01*
X19030*
G37*
X19113D02*
G36*
G75*
G02X19511I199J-167D01*
G01*
X21679*
Y1063*
X20086*
G75*
G02X20129Y955I-213J-148*
G01*
X20027*
G75*
G03X19932Y1063I-155J-40*
G01*
X19813*
G75*
G03X19718Y955I60J-148*
G01*
X19616*
G75*
G02X19659Y1063I257J-40*
G01*
X18960*
G75*
G02X19030Y885I-190J-178*
G01*
X19113*
G37*
X19511D02*
G36*
G75*
G02X19567Y766I-199J-167D01*
G01*
X19659*
G75*
G02X19616Y875I213J148*
G01*
X19718*
G75*
G03X19813Y766I155J40*
G01*
X19932*
G75*
G03X20027Y875I-60J148*
G01*
X20129*
G75*
G02X20086Y766I-257J40*
G01*
X21679*
Y885*
X19511*
G37*
X1975Y2774D02*
G36*
G75*
G02X2528Y2794I287J-279D01*
G01*
Y2893*
G75*
G02X2559Y3071I524J0*
G01*
X25*
Y2774*
X1975*
G37*
X19726D02*
G36*
G75*
G03X19821Y2883I-60J148D01*
G01*
X19923*
G75*
G02X19879Y2774I-257J40*
G01*
X21679*
Y3071*
X19879*
G75*
G02X19923Y2963I-213J-148*
G01*
X19821*
G75*
G03X19726Y3071I-155J-40*
G01*
X19606*
G75*
G03X19511Y2963I60J-148*
G01*
X19476*
G75*
G02X19443Y2883I-253J58*
G01*
X19511*
G75*
G03X19606Y2774I155J40*
G01*
X19726*
G37*
X2559Y3071D02*
G36*
G75*
G02X2617Y3186I493J-178D01*
G01*
G75*
G02X2548Y3187I-28J258*
G01*
X25*
Y3071*
X2559*
G37*
X19726D02*
G36*
G75*
G03X19706Y3077I-60J-148D01*
G01*
Y3179*
G75*
G02X19879Y3071I-40J-257*
G01*
X21679*
Y3187*
X21011*
G75*
G02X20838Y3079I-213J148*
G01*
Y3181*
G75*
G03X20857Y3187I-40J155*
G01*
X20738*
G75*
G03X20758Y3181I60J148*
G01*
Y3079*
G75*
G02X20584Y3187I40J257*
G01*
X19423*
G75*
G02X19472Y3096I-200J-166*
G01*
G75*
G02X19626Y3179I194J-173*
G01*
Y3077*
G75*
G03X19606Y3071I40J-155*
G01*
X19726*
G37*
X2548Y3187D02*
G36*
G75*
G02X2329Y3444I41J257D01*
G01*
G75*
G02X2332Y3484I260J0*
G01*
X25*
Y3187*
X2548*
G37*
X20584D02*
G36*
G75*
G02X20541Y3296I213J148D01*
G01*
X20643*
G75*
G03X20738Y3187I155J40*
G01*
X20857*
G75*
G03X20953Y3296I-60J148*
G01*
X21055*
G75*
G02X21011Y3187I-257J40*
G01*
X21679*
Y3484*
X21011*
G75*
G02X21055Y3376I-213J-148*
G01*
X20953*
G75*
G03X20858Y3484I-155J-40*
G01*
X20738*
G75*
G03X20643Y3376I60J-148*
G01*
X20541*
G75*
G02X20584Y3484I257J-40*
G01*
X18989*
G75*
G02X19070Y3297I-180J-188*
G01*
G75*
G02X19059Y3223I-260J0*
G01*
G75*
G02X19423Y3187I164J-202*
G01*
X20584*
G37*
X2332Y3484D02*
G36*
G75*
G02X2814Y3574I257J-40D01*
G01*
X16999*
G75*
G02X17148Y3543J-376*
G01*
G75*
G02X17384Y3081I107J-237*
G01*
Y2952*
G75*
G03X17619Y2718I234*
G01*
X17954*
G75*
G02X17841Y2932I147J214*
G01*
G75*
G02X18361I260*
G01*
G75*
G02X18248Y2718I-260*
G01*
X19420*
G75*
G02X19514Y2711I0J-681*
G01*
G75*
G02X19417Y2848I152J211*
G01*
G75*
G02X18974Y3095I-194J173*
G01*
G75*
G02X18550Y3297I-164J202*
G01*
G75*
G02X18989Y3484I260*
G01*
X20584*
G75*
G02X20758Y3593I213J-148*
G01*
Y3491*
G75*
G03X20738Y3484I40J-155*
G01*
X20858*
G75*
G03X20838Y3491I-60J-148*
G01*
Y3593*
G75*
G02X21011Y3484I-40J-257*
G01*
X21679*
Y3962*
X25*
Y3484*
X2332*
G37*
X2333Y2102D02*
G75*
G02X2528Y2007I-71J-394D01*
G01*
Y2196*
G75*
G02X2333Y2102I-266J299*
G01*
G36*
G75*
G02X2528Y2007I-71J-394*
G01*
Y2196*
G75*
G02X2333Y2102I-266J299*
G01*
G37*
X2788Y2010D02*
G75*
G02X2979Y2102I262J-302D01*
G01*
G75*
G02X2788Y2193I71J394*
G01*
Y2010*
G36*
G75*
G02X2979Y2102I262J-302*
G01*
G75*
G02X2788Y2193I71J394*
G01*
Y2010*
G37*
Y2798D02*
G75*
G02X3040Y2895I262J-302D01*
G01*
G75*
G02X3348Y3157I604J-400*
G01*
X3052*
G75*
G03X2788Y2893J-264*
G01*
Y2798*
G36*
G75*
G02X3040Y2895I262J-302*
G01*
G75*
G02X3348Y3157I604J-400*
G01*
X3052*
G75*
G03X2788Y2893J-264*
G01*
Y2798*
G37*
X3120Y2102D02*
G75*
G02X3443Y1779I-71J-394D01*
G01*
G75*
G02X3766Y2102I394J-71*
G01*
G75*
G02X3443Y2425I71J394*
G01*
G75*
G02X3120Y2102I-394J71*
G01*
G36*
G75*
G02X3443Y1779I-71J-394*
G01*
G75*
G02X3766Y2102I394J-71*
G01*
G75*
G02X3443Y2425I71J394*
G01*
G75*
G02X3120Y2102I-394J71*
G01*
G37*
X3300Y2807D02*
G75*
G02X3443Y2566I-250J-312D01*
G01*
G75*
G02X4231I394J-71*
G01*
G75*
G02X4576Y2892I394J-71*
G01*
G75*
G02X4638Y2960I336J-247*
G01*
X3644*
G75*
G03X3300Y2807J-464*
G01*
G36*
G75*
G02X3443Y2566I-250J-312*
G01*
G75*
G02X4231I394J-71*
G01*
G75*
G02X4576Y2892I394J-71*
G01*
G75*
G02X4638Y2960I336J-247*
G01*
X3644*
G75*
G03X3300Y2807J-464*
G01*
G37*
X3908Y2102D02*
G75*
G02X4231Y1779I-71J-394D01*
G01*
G75*
G02X4554Y2102I394J-71*
G01*
G75*
G02X4231Y2425I71J394*
G01*
G75*
G02X3908Y2102I-394J71*
G01*
G36*
G75*
G02X4231Y1779I-71J-394*
G01*
G75*
G02X4554Y2102I394J-71*
G01*
G75*
G02X4231Y2425I71J394*
G01*
G75*
G02X3908Y2102I-394J71*
G01*
G37*
X4695D02*
G75*
G02X5018Y1779I-71J-394D01*
G01*
G75*
G02X5341Y2102I394J-71*
G01*
G75*
G02X5018Y2425I71J394*
G01*
G75*
G02X4695Y2102I-394J71*
G01*
G36*
G75*
G02X5018Y1779I-71J-394*
G01*
G75*
G02X5341Y2102I394J-71*
G01*
G75*
G02X5018Y2425I71J394*
G01*
G75*
G02X4695Y2102I-394J71*
G01*
G37*
X4884Y2800D02*
G75*
G02X5018Y2566I-259J-305D01*
G01*
G75*
G02X5156Y2802I394J-71*
G01*
X4912*
G75*
G03X4884Y2800I0J-157*
G01*
G36*
G75*
G02X5018Y2566I-259J-305*
G01*
G75*
G02X5156Y2802I394J-71*
G01*
X4912*
G75*
G03X4884Y2800I0J-157*
G01*
G37*
X15554Y2740D02*
Y2184D01*
G75*
G03X15916Y1822I362*
G01*
G75*
G02X15920Y1822I1J-130*
G01*
G75*
G03X15931Y1822I5J184*
G01*
G75*
G02X15936I2J-130*
G01*
X17476*
G75*
G02X17388Y2017I172J195*
G01*
G75*
G02X17908I260*
G01*
G75*
G02X17820Y1822I-260*
G01*
X19096*
G75*
G02X19309Y1952I225J-130*
G01*
G75*
G02X19258Y2106I210J154*
G01*
G75*
G02X19312Y2265I260*
G01*
G75*
G03X19184Y2310I-129J-159*
G01*
X18766*
G75*
G02X18843Y2125I-183J-185*
G01*
G75*
G02X18323I-260*
G01*
G75*
G02X18400Y2310I260*
G01*
X16900*
G75*
G02X16160Y2846J780*
G01*
G75*
G02X16059Y2914I91J244*
G01*
G75*
G02X15633Y2828I-241J97*
G01*
G75*
G02X15554Y2740I-229J124*
G01*
G36*
Y2184*
G75*
G03X15916Y1822I362*
G01*
G75*
G02X15920Y1822I1J-130*
G01*
G75*
G03X15931Y1822I5J184*
G01*
G75*
G02X15936I2J-130*
G01*
X17476*
G75*
G02X17388Y2017I172J195*
G01*
G75*
G02X17908I260*
G01*
G75*
G02X17820Y1822I-260*
G01*
X19096*
G75*
G02X19309Y1952I225J-130*
G01*
G75*
G02X19258Y2106I210J154*
G01*
G75*
G02X19312Y2265I260*
G01*
G75*
G03X19184Y2310I-129J-159*
G01*
X18766*
G75*
G02X18843Y2125I-183J-185*
G01*
G75*
G02X18323I-260*
G01*
G75*
G02X18400Y2310I260*
G01*
X16900*
G75*
G02X16160Y2846J780*
G01*
G75*
G02X16059Y2914I91J244*
G01*
G75*
G02X15633Y2828I-241J97*
G01*
G75*
G02X15554Y2740I-229J124*
G01*
G37*
X15564Y3157D02*
G75*
G02X15589Y3135I-161J-205D01*
G01*
G75*
G02X15602Y3157I229J-124*
G01*
X15564*
G36*
G75*
G02X15589Y3135I-161J-205*
G01*
G75*
G02X15602Y3157I229J-124*
G01*
X15564*
G37*
X16382Y3314D02*
G75*
G02X16511Y3090I-131J-224D01*
G01*
G75*
G02X16420Y2892I-260*
G01*
G75*
G03X16900Y2570I481J198*
G01*
X17305*
G75*
G02X17124Y2952I314J382*
G01*
Y3081*
G75*
G02X17071Y3123I130J225*
G01*
G75*
G02X17072Y3100I-259J-23*
G01*
G75*
G02X16552I-260*
G01*
G75*
G02X16665Y3314I260*
G01*
X16382*
G36*
G75*
G02X16511Y3090I-131J-224*
G01*
G75*
G02X16420Y2892I-260*
G01*
G75*
G03X16900Y2570I481J198*
G01*
X17305*
G75*
G02X17124Y2952I314J382*
G01*
Y3081*
G75*
G02X17071Y3123I130J225*
G01*
G75*
G02X17072Y3100I-259J-23*
G01*
G75*
G02X16552I-260*
G01*
G75*
G02X16665Y3314I260*
G01*
X16382*
G37*
X16959D02*
G75*
G02X16995Y3284I-147J-215D01*
G01*
G75*
G02X16994Y3306I259J23*
G01*
G75*
G02X16995Y3314I260J0*
G01*
X16959*
G36*
G75*
G02X16995Y3284I-147J-215*
G01*
G75*
G02X16994Y3306I259J23*
G01*
G75*
G02X16995Y3314I260J0*
G01*
X16959*
G37*
X19494Y2451D02*
G75*
G02X19572Y2360I-310J-346D01*
G01*
G75*
G02X19778Y2106I-54J-254*
G01*
G75*
G02X19756Y2001I-260J0*
G01*
G75*
G02X19841Y1983I-12J-260*
G01*
Y2037*
G75*
G03X19494Y2451I-421*
G01*
G36*
G75*
G02X19572Y2360I-310J-346*
G01*
G75*
G02X19778Y2106I-54J-254*
G01*
G75*
G02X19756Y2001I-260J0*
G01*
G75*
G02X19841Y1983I-12J-260*
G01*
Y2037*
G75*
G03X19494Y2451I-421*
G01*
G37*
D02*
D13*
X2262Y1708D02*
X2418D01*
G75*
G03X2658Y1948J240*
G01*
Y2893*
G75*
G02X3052Y3287I394*
G01*
X16172*
G75*
G02X16251Y3208J-79*
G01*
Y3090*
X3050Y2495D02*
G75*
G02X3644Y3090I594D01*
G01*
X15266*
G75*
G02X15404Y2952J-138*
G01*
X3837Y1708D02*
Y946D01*
G75*
G03X4508Y275I671*
G01*
X16930*
G75*
G03X17471Y816J541*
G01*
Y1161*
X4625Y2495D02*
Y2645D01*
G75*
G02X4912Y2932I287*
G01*
X14390*
G75*
G02X14725Y2598J-335*
G01*
X16251Y3090D02*
G75*
G03X16900Y2440I650D01*
G01*
X19184*
G75*
G02X19518Y2106J-335*
G01*
X17254Y3306D02*
Y3238D01*
G75*
G03X17264Y3228I10*
G01*
X17245Y3198*
G75*
G03X16999Y3444I-246*
G01*
X2589*
X19321Y1692D02*
X15936D01*
G75*
G02X15916Y1692I-11J314*
G01*
G75*
G02X15424Y2184J492*
G01*
Y2952*
X15404*
X19745Y1741D02*
X19843D01*
G75*
G03X19971Y1869J128*
G01*
Y2037*
G75*
G03X19420Y2588I-551*
G01*
X17619*
G75*
G02X17254Y2952J364*
G01*
Y3306*
D02*
D80*
X2262Y1708D03*
Y2495D03*
X3050Y1708D03*
Y2495D03*
X3837Y1708D03*
Y2495D03*
X4625Y1708D03*
Y2495D03*
X5412Y1708D03*
Y2495D03*
X8506Y1988D03*
X9294D03*
X12365D03*
X13152D03*
D02*
D99*
X2589Y3444D03*
X6329Y1712D03*
X14725Y2598D03*
X15266Y1515D03*
X15404Y2952D03*
X15817Y3011D03*
X16251Y3090D03*
X16516Y580D03*
X16812Y3100D03*
X17254Y3306D03*
X17471Y1161D03*
X17648Y2017D03*
X18101Y2932D03*
X18189Y600D03*
X18583Y2125D03*
X18770Y885D03*
X18810Y3297D03*
X19223Y3021D03*
X19312Y718D03*
X19321Y1692D03*
X19518Y2106D03*
X19666Y2923D03*
X19745Y1741D03*
X19873Y915D03*
X20424Y1909D03*
X20798Y3336D03*
X0Y0D02*
M02*
