%FSLAX23Y23*%
%MOIN*%
G04 EasyPC Gerber Version 17.0 Build 3379 *
%ADD11C,0.00100*%
%ADD10C,0.00500*%
%ADD12C,0.00800*%
%ADD14C,0.01000*%
%ADD13C,0.01969*%
X0Y0D02*
D02*
D10*
X59Y731D02*
X97D01*
Y635*
X59*
Y731*
X64Y77D02*
X258D01*
Y469*
X64*
Y77*
X97Y509D02*
X59D01*
Y606*
X97*
Y509*
X150Y549D02*
Y1160D01*
X867*
Y549*
X150*
X107Y648D02*
X144D01*
Y679*
X135Y698D02*
X128Y701D01*
X125Y707*
Y713*
X128Y719*
X135Y723*
X141Y719*
X144Y713*
Y707*
X141Y701*
X135Y698*
X125*
X116Y701*
X110Y707*
X107Y713*
X112Y513D02*
X149D01*
Y544*
X146Y563D02*
X149Y569D01*
Y578*
X146Y584*
X140Y588*
X137*
X130Y584*
X127Y578*
Y563*
X112*
Y588*
X266Y84D02*
X294D01*
X301Y87*
X304Y93*
Y105*
X301Y112*
X294Y115*
X266*
X304Y149D02*
X266D01*
X291Y134*
Y159*
X396Y454D02*
Y234D01*
X476*
Y454*
X396*
X457Y90D02*
X420D01*
Y112*
X423Y118*
X429Y121*
X435Y118*
X438Y112*
Y90*
Y112D02*
X457Y121D01*
X448Y140D02*
X454Y143D01*
X457Y149*
Y162*
X454Y168*
X448Y171*
X442Y168*
X438Y162*
Y149*
X435Y143*
X429Y140*
X423Y143*
X420Y149*
Y162*
X423Y168*
X429Y171*
X454Y190D02*
X457Y196D01*
Y206*
X454Y212*
X448Y215*
X445*
X438Y212*
X435Y206*
Y190*
X420*
Y215*
X513Y454D02*
Y234D01*
X593*
Y454*
X513*
X571Y92D02*
X534D01*
Y114*
X537Y120*
X543Y123*
X549Y120*
X552Y114*
Y92*
Y114D02*
X571Y123D01*
X562Y142D02*
X568Y145D01*
X571Y151*
Y164*
X568Y170*
X562Y173*
X556Y170*
X552Y164*
Y151*
X549Y145*
X543Y142*
X537Y145*
X534Y151*
Y164*
X537Y170*
X543Y173*
X562Y192D02*
X556Y195D01*
X552Y201*
Y208*
X556Y214*
X562Y217*
X568Y214*
X571Y208*
Y201*
X568Y195*
X562Y192*
X552*
X543Y195*
X537Y201*
X534Y208*
X631Y454D02*
Y234D01*
X711*
Y454*
X631*
X689Y1850D02*
X727D01*
Y1755*
X689*
Y1850*
X692Y91D02*
X655D01*
Y113*
X658Y119*
X664Y122*
X670Y119*
X673Y113*
Y91*
Y113D02*
X692Y122D01*
X683Y141D02*
X689Y144D01*
X692Y150*
Y163*
X689Y169*
X683Y172*
X677Y169*
X673Y163*
Y150*
X670Y144*
X664Y141*
X658Y144*
X655Y150*
Y163*
X658Y169*
X664Y172*
X692Y191D02*
X655Y216D01*
Y191*
X718Y1894D02*
X721Y1891D01*
X724Y1884*
Y1875*
X721Y1869*
X718Y1866*
X712Y1863*
X699*
X693Y1866*
X690Y1869*
X687Y1875*
Y1884*
X690Y1891*
X693Y1894*
X721Y1916D02*
X724Y1922D01*
Y1928*
X721Y1934*
X715Y1938*
X708Y1934*
X705Y1928*
Y1922*
Y1928D02*
X702Y1934D01*
X696Y1938*
X690Y1934*
X687Y1928*
Y1922*
X690Y1916*
X745Y454D02*
Y234D01*
X825*
Y454*
X745*
X749Y1850D02*
X787D01*
Y1755*
X749*
Y1850*
X778Y1894D02*
X781Y1891D01*
X784Y1884*
Y1875*
X781Y1869*
X778Y1866*
X772Y1863*
X759*
X753Y1866*
X750Y1869*
X747Y1875*
Y1884*
X750Y1891*
X753Y1894*
X784Y1928D02*
X747D01*
X772Y1913*
Y1938*
X804Y1850D02*
X842D01*
Y1755*
X804*
Y1850*
X805Y93D02*
X768D01*
Y115*
X771Y121*
X777Y124*
X783Y121*
X786Y115*
Y93*
Y115D02*
X805Y124D01*
X796Y143D02*
X802Y146D01*
X805Y152*
Y165*
X802Y171*
X796Y174*
X790Y171*
X786Y165*
Y152*
X783Y146*
X777Y143*
X771Y146*
X768Y152*
Y165*
X771Y171*
X777Y174*
X786Y202D02*
Y209D01*
X783Y215*
X777Y218*
X771Y215*
X768Y209*
Y202*
X771Y196*
X777Y193*
X783Y196*
X786Y202*
X790Y196*
X796Y193*
X802Y196*
X805Y202*
Y209*
X802Y215*
X796Y218*
X790Y215*
X786Y209*
X829Y587D02*
Y1118D01*
X188*
Y587*
X829*
X833Y1894D02*
X836Y1891D01*
X839Y1884*
Y1875*
X836Y1869*
X833Y1866*
X827Y1863*
X814*
X808Y1866*
X805Y1869*
X802Y1875*
Y1884*
X805Y1891*
X808Y1894*
X836Y1913D02*
X839Y1919D01*
Y1928*
X836Y1934*
X830Y1938*
X827*
X820Y1934*
X817Y1928*
Y1913*
X802*
Y1938*
X860Y452D02*
Y232D01*
X940*
Y452*
X860*
X915Y1643D02*
X912Y1640D01*
X905Y1637*
X896*
X890Y1640*
X887Y1643*
X883Y1649*
Y1662*
X887Y1668*
X890Y1671*
X896Y1674*
X905*
X912Y1671*
X915Y1668*
X940Y1637D02*
X952D01*
X946D02*
Y1674D01*
X940Y1668*
X983Y1640D02*
X990Y1637D01*
X999*
X1005Y1640*
X1008Y1646*
Y1649*
X1005Y1656*
X999Y1659*
X983*
Y1674*
X1008*
X915Y97D02*
X878D01*
Y119*
X881Y125*
X887Y128*
X893Y125*
X896Y119*
Y97*
Y119D02*
X915Y128D01*
X906Y147D02*
X912Y150D01*
X915Y156*
Y169*
X912Y175*
X906Y178*
X900Y175*
X896Y169*
Y156*
X893Y150*
X887Y147*
X881Y150*
X878Y156*
Y169*
X881Y175*
X887Y178*
X915Y203D02*
Y216D01*
Y210D02*
X878D01*
X884Y203*
X918Y726D02*
X921Y723D01*
X924Y717*
Y707*
X921Y701*
X918Y698*
X912Y695*
X899*
X893Y698*
X890Y701*
X887Y707*
Y717*
X890Y723*
X893Y726*
X918Y776D02*
X921Y773D01*
X924Y766*
Y757*
X921Y751*
X918Y748*
X912Y745*
X899*
X893Y748*
X890Y751*
X887Y757*
Y766*
X890Y773*
X893Y776*
X921Y798D02*
X924Y804D01*
Y810*
X921Y816*
X915Y820*
X909Y816*
X906Y810*
Y804*
Y810D02*
X902Y816D01*
X896Y820*
X890Y816*
X887Y810*
Y804*
X890Y798*
X921Y848D02*
X924Y854D01*
Y860*
X921Y867*
X915Y870*
X896*
X890Y867*
X887Y860*
Y854*
X890Y848*
X896Y845*
X915*
X921Y848*
X890Y867*
X921Y898D02*
X924Y904D01*
Y910*
X921Y916*
X915Y920*
X896*
X890Y916*
X887Y910*
Y904*
X890Y898*
X896Y895*
X915*
X921Y898*
X890Y916*
X921Y948D02*
X924Y954D01*
Y960*
X921Y967*
X915Y970*
X896*
X890Y967*
X887Y960*
Y954*
X890Y948*
X896Y945*
X915*
X921Y948*
X890Y967*
X939Y1918D02*
Y1890D01*
X942Y1884*
X948Y1880*
X960*
X967Y1884*
X970Y1890*
Y1918*
X1014Y1880D02*
X989D01*
X1010Y1902*
X1014Y1909*
X1010Y1915*
X1004Y1918*
X995*
X989Y1915*
X949Y1748D02*
Y1863D01*
X1012*
Y1748*
X949*
X974Y452D02*
Y232D01*
X1054*
Y452*
X974*
X1024Y1547D02*
X1021Y1544D01*
X1014Y1540*
X1005*
X999Y1544*
X996Y1547*
X993Y1553*
Y1565*
X996Y1572*
X999Y1575*
X1005Y1578*
X1014*
X1021Y1575*
X1024Y1572*
X1049Y1540D02*
X1061D01*
X1055D02*
Y1578D01*
X1049Y1572*
X1108Y1540D02*
Y1578D01*
X1093Y1553*
X1118*
X1009Y835D02*
Y873D01*
X1030*
X1037Y870*
X1040Y864*
X1037Y857*
X1030Y854*
X1009*
X1030D02*
X1040Y835D01*
X1068D02*
X1074Y839D01*
X1080Y845*
X1084Y854*
Y864*
X1080Y870*
X1074Y873*
X1068*
X1062Y870*
X1059Y864*
X1062Y857*
X1068Y854*
X1074*
X1080Y857*
X1084Y864*
X1020Y1639D02*
Y1677D01*
X1116*
Y1639*
X1020*
X1034Y87D02*
X997D01*
Y109*
X1000Y115*
X1006Y118*
X1012Y115*
X1015Y109*
Y87*
Y109D02*
X1034Y118D01*
X1025Y137D02*
X1031Y140D01*
X1034Y146*
Y159*
X1031Y165*
X1025Y168*
X1019Y165*
X1015Y159*
Y146*
X1012Y140*
X1006Y137*
X1000Y140*
X997Y146*
Y159*
X1000Y165*
X1006Y168*
X1034Y212D02*
Y187D01*
X1012Y209*
X1006Y212*
X1000Y209*
X997Y203*
Y193*
X1000Y187*
X1075Y695D02*
X1022D01*
Y818*
X1075*
Y695*
X1094Y452D02*
Y232D01*
X1174*
Y452*
X1094*
X1104Y1850D02*
X1142D01*
Y1755*
X1104*
Y1850*
X1148Y765D02*
Y818D01*
X1271*
Y765*
X1148*
X1133Y1894D02*
X1136Y1891D01*
X1139Y1884*
Y1875*
X1136Y1869*
X1133Y1866*
X1127Y1863*
X1114*
X1108Y1866*
X1105Y1869*
X1102Y1875*
Y1884*
X1105Y1891*
X1108Y1894*
X1139Y1922D02*
X1136Y1928D01*
X1130Y1934*
X1120Y1938*
X1111*
X1105Y1934*
X1102Y1928*
Y1922*
X1105Y1916*
X1111Y1913*
X1117Y1916*
X1120Y1922*
Y1928*
X1117Y1934*
X1111Y1938*
X1163Y1187D02*
Y1224D01*
X1185*
X1192Y1221*
X1195Y1215*
X1192Y1209*
X1185Y1206*
X1163*
X1185D02*
X1195Y1187D01*
X1220D02*
X1232D01*
X1226D02*
Y1224D01*
X1220Y1218*
X1270Y1187D02*
X1282D01*
X1276D02*
Y1224D01*
X1270Y1218*
X1154Y92D02*
X1117D01*
Y114*
X1120Y120*
X1126Y123*
X1132Y120*
X1135Y114*
Y92*
Y114D02*
X1154Y123D01*
X1145Y142D02*
X1151Y145D01*
X1154Y151*
Y164*
X1151Y170*
X1145Y173*
X1139Y170*
X1135Y164*
Y151*
X1132Y145*
X1126Y142*
X1120Y145*
X1117Y151*
Y164*
X1120Y170*
X1126Y173*
X1151Y195D02*
X1154Y201D01*
Y208*
X1151Y214*
X1145Y217*
X1139Y214*
X1135Y208*
Y201*
Y208D02*
X1132Y214D01*
X1126Y217*
X1120Y214*
X1117Y208*
Y201*
X1120Y195*
X1164Y1850D02*
X1202D01*
Y1755*
X1164*
Y1850*
X1167Y1084D02*
Y1056D01*
X1170Y1050*
X1176Y1046*
X1188*
X1195Y1050*
X1198Y1056*
Y1084*
X1223Y1046D02*
X1235D01*
X1229D02*
Y1084D01*
X1223Y1078*
X1172Y604D02*
Y576D01*
X1175Y570*
X1181Y566*
X1193*
X1200Y570*
X1203Y576*
Y604*
X1222Y576D02*
X1225Y582D01*
X1231Y585*
X1237*
X1243Y582*
X1247Y576*
X1243Y570*
X1237Y566*
X1231*
X1225Y570*
X1222Y576*
Y585*
X1225Y595*
X1231Y601*
X1237Y604*
X1172Y1515D02*
X1134D01*
Y1611*
X1172*
Y1515*
X1175Y830D02*
Y868D01*
X1196*
X1203Y865*
X1206Y859*
X1203Y852*
X1196Y849*
X1175*
X1196D02*
X1206Y830D01*
X1234Y849D02*
X1240D01*
X1246Y852*
X1250Y859*
X1246Y865*
X1240Y868*
X1234*
X1228Y865*
X1225Y859*
X1228Y852*
X1234Y849*
X1228Y846*
X1225Y840*
X1228Y834*
X1234Y830*
X1240*
X1246Y834*
X1250Y840*
X1246Y846*
X1240Y849*
X1182Y1144D02*
Y1172D01*
X1242*
Y1144*
X1182*
X1208Y453D02*
Y233D01*
X1288*
Y453*
X1208*
X1193Y1894D02*
X1196Y1891D01*
X1199Y1884*
Y1875*
X1196Y1869*
X1193Y1866*
X1187Y1863*
X1174*
X1168Y1866*
X1165Y1869*
X1162Y1875*
Y1884*
X1165Y1891*
X1168Y1894*
X1199Y1919D02*
Y1931D01*
Y1925D02*
X1162D01*
X1168Y1919*
X1196Y1966D02*
X1199Y1972D01*
Y1978*
X1196Y1984*
X1190Y1988*
X1171*
X1165Y1984*
X1162Y1978*
Y1972*
X1165Y1966*
X1171Y1963*
X1190*
X1196Y1966*
X1165Y1984*
X1224Y1850D02*
X1262D01*
Y1755*
X1224*
Y1850*
X1231Y1033D02*
Y919D01*
X1168*
Y1033*
X1231*
X1233Y1553D02*
X1393D01*
Y1623*
X1233*
Y1553*
X1243Y737D02*
Y622D01*
X1180*
Y737*
X1243*
X1280Y1503D02*
X1277Y1500D01*
X1270Y1497*
X1261*
X1255Y1500*
X1252Y1503*
X1248Y1509*
Y1522*
X1252Y1528*
X1255Y1531*
X1261Y1534*
X1270*
X1277Y1531*
X1280Y1528*
X1305Y1497D02*
X1317D01*
X1311D02*
Y1534D01*
X1305Y1528*
X1352Y1500D02*
X1358Y1497D01*
X1364*
X1370Y1500*
X1373Y1506*
X1370Y1513*
X1364Y1516*
X1358*
X1364D02*
X1370Y1519D01*
X1373Y1525*
X1370Y1531*
X1364Y1534*
X1358*
X1352Y1531*
X1253Y1894D02*
X1256Y1891D01*
X1259Y1884*
Y1875*
X1256Y1869*
X1253Y1866*
X1247Y1863*
X1234*
X1228Y1866*
X1225Y1869*
X1222Y1875*
Y1884*
X1225Y1891*
X1228Y1894*
X1250Y1913D02*
X1243Y1916D01*
X1240Y1922*
Y1928*
X1243Y1934*
X1250Y1938*
X1256Y1934*
X1259Y1928*
Y1922*
X1256Y1916*
X1250Y1913*
X1240*
X1231Y1916*
X1225Y1922*
X1222Y1928*
X1269Y93D02*
X1232D01*
Y114*
X1235Y121*
X1241Y124*
X1247Y121*
X1250Y114*
Y93*
Y114D02*
X1269Y124D01*
X1260Y142D02*
X1266Y146D01*
X1269Y152*
Y164*
X1266Y171*
X1260Y174*
X1253Y171*
X1250Y164*
Y152*
X1247Y146*
X1241Y142*
X1235Y146*
X1232Y152*
Y164*
X1235Y171*
X1241Y174*
X1269Y208D02*
X1232D01*
X1257Y193*
Y218*
X1279Y1850D02*
X1317D01*
Y1755*
X1279*
Y1850*
X1313Y1894D02*
X1316Y1891D01*
X1319Y1884*
Y1875*
X1316Y1869*
X1313Y1866*
X1307Y1863*
X1294*
X1288Y1866*
X1285Y1869*
X1282Y1875*
Y1884*
X1285Y1891*
X1288Y1894*
X1319Y1913D02*
X1282Y1938D01*
Y1913*
X1334Y1850D02*
X1372D01*
Y1755*
X1334*
Y1850*
X1368Y1894D02*
X1371Y1891D01*
X1374Y1884*
Y1875*
X1371Y1869*
X1368Y1866*
X1362Y1863*
X1349*
X1343Y1866*
X1340Y1869*
X1337Y1875*
Y1884*
X1340Y1891*
X1343Y1894*
X1355Y1922D02*
Y1928D01*
X1352Y1934*
X1346Y1938*
X1340Y1934*
X1337Y1928*
Y1922*
X1340Y1916*
X1346Y1913*
X1352Y1916*
X1355Y1922*
X1358Y1916*
X1365Y1913*
X1371Y1916*
X1374Y1922*
Y1928*
X1371Y1934*
X1365Y1938*
X1358Y1934*
X1355Y1928*
X1401Y763D02*
Y801D01*
X1422*
X1429Y798*
X1432Y792*
X1429Y785*
X1422Y782*
X1401*
X1422D02*
X1432Y763D01*
X1457D02*
X1469D01*
X1463D02*
Y801D01*
X1457Y795*
X1526Y763D02*
X1501D01*
X1522Y785*
X1526Y792*
X1522Y798*
X1516Y801*
X1507*
X1501Y798*
X1403Y1517D02*
Y1554D01*
X1435*
X1428Y1536D02*
X1403D01*
X1453Y1517D02*
Y1554D01*
X1485*
X1478Y1536D02*
X1453D01*
Y1517D02*
X1485D01*
X1503D02*
Y1554D01*
X1525*
X1532Y1551*
X1535Y1545*
X1532Y1539*
X1525Y1536*
X1503*
X1525D02*
X1535Y1517D01*
X1553D02*
Y1554D01*
X1575*
X1582Y1551*
X1585Y1545*
X1582Y1539*
X1575Y1536*
X1553*
X1575D02*
X1585Y1517D01*
X1404Y844D02*
Y882D01*
X1425*
X1432Y879*
X1435Y873*
X1432Y866*
X1425Y863*
X1404*
X1425D02*
X1435Y844D01*
X1460D02*
X1472D01*
X1466D02*
Y882D01*
X1460Y876*
X1507Y848D02*
X1513Y844D01*
X1519*
X1525Y848*
X1529Y854*
X1525Y860*
X1519Y863*
X1513*
X1519D02*
X1525Y866D01*
X1529Y873*
X1525Y879*
X1519Y882*
X1513*
X1507Y879*
X1427Y1576D02*
Y1629D01*
X1550*
Y1576*
X1427*
X1458Y407D02*
Y444D01*
X1480*
X1487Y441*
X1490Y435*
X1487Y429*
X1480Y426*
X1458*
X1480D02*
X1490Y407D01*
X1524D02*
Y444D01*
X1508Y419*
X1533*
X1458Y507D02*
Y544D01*
X1480*
X1487Y541*
X1490Y535*
X1487Y529*
X1480Y526*
X1458*
X1480D02*
X1490Y507D01*
X1512Y510D02*
X1518Y507D01*
X1524*
X1530Y510*
X1533Y516*
X1530Y523*
X1524Y526*
X1518*
X1524D02*
X1530Y529D01*
X1533Y535*
X1530Y541*
X1524Y544*
X1518*
X1512Y541*
X1458Y587D02*
Y624D01*
X1480*
X1487Y621*
X1490Y615*
X1487Y609*
X1480Y606*
X1458*
X1480D02*
X1490Y587D01*
X1533D02*
X1508D01*
X1530Y609*
X1533Y615*
X1530Y621*
X1524Y624*
X1515*
X1508Y621*
X1458Y672D02*
Y709D01*
X1480*
X1487Y706*
X1490Y700*
X1487Y694*
X1480Y691*
X1458*
X1480D02*
X1490Y672D01*
X1515D02*
X1527D01*
X1521D02*
Y709D01*
X1515Y703*
X1511Y1925D02*
Y1897D01*
X1514Y1891*
X1520Y1887*
X1532*
X1539Y1891*
X1542Y1897*
Y1925*
X1564Y1891D02*
X1570Y1887D01*
X1576*
X1582Y1891*
X1586Y1897*
X1582Y1903*
X1576Y1906*
X1570*
X1576D02*
X1582Y1909D01*
X1586Y1916*
X1582Y1922*
X1576Y1925*
X1570*
X1564Y1922*
X1519Y1748D02*
Y1863D01*
X1582*
Y1748*
X1519*
X1526Y1156D02*
Y1209D01*
X1649*
Y1156*
X1526*
X1546Y838D02*
Y891D01*
X1669*
Y838*
X1546*
X1547Y406D02*
Y459D01*
X1670*
Y406*
X1547*
Y501D02*
Y554D01*
X1670*
Y501*
X1547*
Y586D02*
Y639D01*
X1670*
Y586*
X1547*
Y671D02*
Y724D01*
X1670*
Y671*
X1547*
X1547Y755D02*
Y808D01*
X1670*
Y755*
X1547*
X1556Y1222D02*
Y1260D01*
X1577*
X1584Y1257*
X1587Y1251*
X1584Y1244*
X1577Y1241*
X1556*
X1577D02*
X1587Y1222D01*
X1606Y1232D02*
X1609Y1238D01*
X1615Y1241*
X1621*
X1627Y1238*
X1631Y1232*
X1627Y1226*
X1621Y1222*
X1615*
X1609Y1226*
X1606Y1232*
Y1241*
X1609Y1251*
X1615Y1257*
X1621Y1260*
X1629Y1690D02*
X1667D01*
Y1595*
X1629*
Y1690*
X1700Y1758D02*
X1697Y1755D01*
X1690Y1752*
X1681*
X1675Y1755*
X1672Y1758*
X1668Y1764*
Y1777*
X1672Y1783*
X1675Y1786*
X1681Y1789*
X1690*
X1697Y1786*
X1700Y1783*
X1725Y1752D02*
X1737D01*
X1731D02*
Y1789D01*
X1725Y1783*
X1793Y1752D02*
X1768D01*
X1790Y1774*
X1793Y1780*
X1790Y1786*
X1784Y1789*
X1775*
X1768Y1786*
X1663Y1484D02*
X1666Y1481D01*
X1669Y1474*
Y1465*
X1666Y1459*
X1663Y1456*
X1657Y1453*
X1644*
X1638Y1456*
X1635Y1459*
X1632Y1465*
Y1474*
X1635Y1481*
X1638Y1484*
X1669Y1509D02*
Y1521D01*
Y1515D02*
X1632D01*
X1638Y1509*
X1669Y1559D02*
Y1571D01*
Y1565D02*
X1632D01*
X1638Y1559*
X1695Y1809D02*
Y1847D01*
X1791*
Y1809*
X1695*
X1653Y957D02*
X1690D01*
Y988*
Y1007D02*
X1653D01*
Y1038*
X1671Y1032D02*
Y1007D01*
X1690D02*
Y1038D01*
Y1057D02*
X1653D01*
Y1076*
X1656Y1082*
X1659Y1085*
X1665Y1088*
X1678*
X1684Y1085*
X1687Y1082*
X1690Y1076*
Y1057*
X1949Y443D02*
X1952Y440D01*
X1958Y436*
X1964Y440*
X1967Y443*
Y474*
X1974*
X1967D02*
X1955D01*
X1999Y436D02*
Y474D01*
X2020*
X2027Y471*
X2030Y465*
X2027Y458*
X2020Y455*
X1999*
X2055Y436D02*
X2067D01*
X2061D02*
Y474D01*
X2055Y468*
X1974Y1364D02*
Y1710D01*
X1848*
Y1364*
X1974*
X2034Y1481D02*
X2037Y1478D01*
X2040Y1472*
Y1463*
X2037Y1456*
X2034Y1453*
X2028Y1450*
X2015*
X2009Y1453*
X2006Y1456*
X2003Y1463*
Y1472*
X2006Y1478*
X2009Y1481*
X2040Y1500D02*
X2003Y1516D01*
X2040Y1531*
X2025Y1506D02*
Y1525D01*
X2040Y1550D02*
X2003D01*
X2021Y1566*
X2003Y1581*
X2040*
X2057Y798D02*
Y1247D01*
X1746*
Y798*
X2057*
D02*
D11*
X434Y1802D02*
X406Y1794D01*
X378Y1782*
X350Y1766*
X326Y1741*
X306Y1710*
X290Y1666*
X286Y1650*
Y1630*
Y1610*
X290Y1594*
X294Y1578*
X302Y1574*
X306Y1570*
X314Y1565*
X322Y1562*
X374Y1526*
X414Y1502*
X438Y1486*
X446Y1482*
X442Y1490*
X426Y1510*
X422Y1542*
Y1554*
X414*
X402Y1550*
X386Y1546*
X378Y1542*
X370*
X362Y1550*
X358Y1562*
Y1574*
X366Y1582*
X374Y1590*
X390Y1594*
X406Y1585*
X410Y1582*
Y1585*
Y1594*
X406Y1618*
X410Y1645*
X418Y1661*
X426Y1670*
X438Y1674*
X450Y1670*
X458Y1661*
X470Y1670*
X478Y1686*
Y1698*
X474Y1710*
X470Y1714*
X458Y1718*
X450Y1714*
X442Y1710*
X430Y1698*
X418Y1702*
X414Y1710*
X418Y1730*
X422Y1746*
X434Y1766*
X454Y1782*
X462Y1790*
X470*
X502Y1782*
X534Y1762*
X562Y1738*
X582Y1706*
X594Y1670*
X598Y1630*
Y1602*
X590Y1578*
X586Y1565*
X590*
X598Y1570*
X606Y1574*
Y1578*
X610Y1582*
Y1585*
Y1590*
X614Y1625*
Y1658*
X602Y1698*
X586Y1734*
X558Y1762*
X526Y1782*
X482Y1798*
X434Y1802*
X614Y1686D02*
X618Y1682D01*
X622Y1645*
X626Y1638*
X630Y1634*
X642Y1630*
X658Y1618*
X694Y1602*
X714Y1618*
X738Y1630*
X734*
Y1634*
X730*
X722Y1638*
X702Y1645*
X686Y1654*
X662Y1666*
X638Y1678*
X626Y1682*
X622Y1686*
X618*
X614*
X250Y1674D02*
X242Y1666D01*
X230Y1661*
X210Y1654*
X190Y1645*
X178Y1638*
X162Y1630*
X170Y1625*
X186Y1613*
X202Y1606*
X206Y1602*
X242Y1622*
X278Y1638*
Y1654*
X282Y1666*
Y1674*
Y1686*
X274Y1682*
X250Y1674*
X158Y1602D02*
Y1578D01*
X178Y1565*
X198Y1554*
X226Y1538*
X250Y1522*
X262Y1514*
X322Y1478*
X366Y1450*
X394Y1434*
X406Y1425*
X446Y1398*
X450Y1406*
Y1422*
X446Y1446*
X426Y1462*
X386Y1490*
X362Y1502*
X330Y1522*
X306Y1538*
X274Y1554*
X158Y1625*
Y1622*
Y1602*
X726Y1618D02*
X706Y1606D01*
X674Y1585*
X638Y1562*
X614Y1546*
X574Y1522*
X530Y1494*
X506Y1482*
X486Y1470*
X474Y1462*
X466Y1454*
X454Y1450*
Y1422*
Y1406*
Y1398*
X482Y1418*
X502Y1430*
X526Y1446*
X550Y1458*
X566Y1470*
X602Y1490*
X642Y1514*
X682Y1538*
X710Y1558*
X730Y1570*
X738Y1574*
X742Y1582*
Y1602*
Y1625*
X726Y1618*
X445Y1398D02*
X447D01*
X454D02*
X456D01*
X444Y1399D02*
X447D01*
X454D02*
X457D01*
X442Y1400D02*
X448D01*
X454D02*
X458D01*
X441Y1401D02*
X448D01*
X454D02*
X460D01*
X440Y1402D02*
X449D01*
X454D02*
X461D01*
X438Y1403D02*
X449D01*
X454D02*
X462D01*
X437Y1404D02*
X450D01*
X454D02*
X464D01*
X436Y1405D02*
X450D01*
X454D02*
X465D01*
X434Y1406D02*
X450D01*
X454D02*
X466D01*
X433Y1407D02*
X450D01*
X454D02*
X468D01*
X432Y1408D02*
X450D01*
X454D02*
X469D01*
X430Y1409D02*
X450D01*
X454D02*
X470D01*
X429Y1410D02*
X450D01*
X454D02*
X472D01*
X428Y1411D02*
X450D01*
X454D02*
X473D01*
X426Y1412D02*
X450D01*
X454D02*
X474D01*
X425Y1412D02*
X450D01*
X454D02*
X475D01*
X424Y1413D02*
X450D01*
X454D02*
X477D01*
X422Y1414D02*
X450D01*
X454D02*
X478D01*
X421Y1415D02*
X450D01*
X454D02*
X479D01*
X420Y1416D02*
X450D01*
X454D02*
X481D01*
X418Y1417D02*
X450D01*
X454D02*
X482D01*
X417Y1418D02*
X450D01*
X454D02*
X484D01*
X416Y1419D02*
X450D01*
X454D02*
X485D01*
X414Y1420D02*
X450D01*
X454D02*
X487D01*
X413Y1421D02*
X450D01*
X454D02*
X488D01*
X412Y1422D02*
X450D01*
X454D02*
X490D01*
X410Y1423D02*
X450D01*
X454D02*
X491D01*
X409Y1424D02*
X450D01*
X454D02*
X493D01*
X408Y1425D02*
X450D01*
X454D02*
X494D01*
X406Y1426D02*
X450D01*
X454D02*
X496D01*
X405Y1427D02*
X450D01*
X454D02*
X498D01*
X404Y1427D02*
X449D01*
X454D02*
X499D01*
X402Y1428D02*
X449D01*
X454D02*
X501D01*
X401Y1429D02*
X449D01*
X454D02*
X502D01*
X399Y1430D02*
X449D01*
X454D02*
X504D01*
X398Y1431D02*
X449D01*
X454D02*
X505D01*
X396Y1432D02*
X449D01*
X454D02*
X506D01*
X395Y1433D02*
X449D01*
X454D02*
X508D01*
X394Y1434D02*
X448D01*
X454D02*
X509D01*
X392Y1435D02*
X448D01*
X454D02*
X511D01*
X390Y1436D02*
X448D01*
X454D02*
X512D01*
X389Y1437D02*
X448D01*
X454D02*
X514D01*
X387Y1438D02*
X448D01*
X454D02*
X515D01*
X385Y1439D02*
X448D01*
X454D02*
X516D01*
X384Y1440D02*
X447D01*
X454D02*
X518D01*
X382Y1441D02*
X447D01*
X454D02*
X519D01*
X380Y1442D02*
X447D01*
X454D02*
X521D01*
X379Y1442D02*
X447D01*
X454D02*
X522D01*
X377Y1443D02*
X447D01*
X454D02*
X523D01*
X375Y1444D02*
X447D01*
X454D02*
X525D01*
X374Y1445D02*
X447D01*
X454D02*
X526D01*
X372Y1446D02*
X446D01*
X454D02*
X528D01*
X371Y1447D02*
X444D01*
X454D02*
X530D01*
X369Y1448D02*
X443D01*
X454D02*
X532D01*
X367Y1449D02*
X442D01*
X454D02*
X534D01*
X366Y1450D02*
X441D01*
X456D02*
X535D01*
X364Y1451D02*
X440D01*
X459D02*
X537D01*
X363Y1452D02*
X439D01*
X462D02*
X539D01*
X361Y1453D02*
X437D01*
X464D02*
X541D01*
X360Y1454D02*
X436D01*
X467D02*
X543D01*
X358Y1455D02*
X435D01*
X468D02*
X545D01*
X357Y1456D02*
X434D01*
X469D02*
X547D01*
X355Y1457D02*
X433D01*
X470D02*
X549D01*
X354Y1457D02*
X432D01*
X470D02*
X550D01*
X352Y1458D02*
X430D01*
X471D02*
X552D01*
X351Y1459D02*
X429D01*
X472D02*
X553D01*
X350Y1460D02*
X428D01*
X473D02*
X554D01*
X348Y1461D02*
X427D01*
X474D02*
X555D01*
X347Y1462D02*
X426D01*
X475D02*
X557D01*
X345Y1463D02*
X424D01*
X477D02*
X558D01*
X344Y1464D02*
X423D01*
X478D02*
X559D01*
X342Y1465D02*
X422D01*
X480D02*
X560D01*
X341Y1466D02*
X420D01*
X481D02*
X562D01*
X339Y1467D02*
X419D01*
X482D02*
X563D01*
X338Y1468D02*
X418D01*
X484D02*
X564D01*
X336Y1469D02*
X416D01*
X485D02*
X565D01*
X335Y1470D02*
X415D01*
X487D02*
X567D01*
X333Y1471D02*
X414D01*
X488D02*
X568D01*
X332Y1472D02*
X412D01*
X490D02*
X570D01*
X330Y1472D02*
X411D01*
X491D02*
X572D01*
X329Y1473D02*
X409D01*
X493D02*
X574D01*
X327Y1474D02*
X408D01*
X495D02*
X575D01*
X326Y1475D02*
X407D01*
X496D02*
X577D01*
X325Y1476D02*
X405D01*
X498D02*
X579D01*
X323Y1477D02*
X404D01*
X499D02*
X580D01*
X322Y1478D02*
X403D01*
X501D02*
X582D01*
X320Y1479D02*
X401D01*
X502D02*
X584D01*
X318Y1480D02*
X400D01*
X504D02*
X585D01*
X317Y1481D02*
X399D01*
X505D02*
X587D01*
X315Y1482D02*
X397D01*
X446D02*
X446D01*
X507D02*
X589D01*
X314Y1483D02*
X396D01*
X444D02*
X446D01*
X509D02*
X590D01*
X312Y1484D02*
X395D01*
X442D02*
X445D01*
X511D02*
X592D01*
X311Y1485D02*
X393D01*
X440D02*
X445D01*
X513D02*
X594D01*
X309Y1486D02*
X392D01*
X438D02*
X444D01*
X515D02*
X595D01*
X307Y1487D02*
X391D01*
X437D02*
X444D01*
X517D02*
X597D01*
X306Y1487D02*
X389D01*
X436D02*
X444D01*
X518D02*
X599D01*
X304Y1488D02*
X388D01*
X434D02*
X443D01*
X520D02*
X600D01*
X303Y1489D02*
X387D01*
X433D02*
X443D01*
X522D02*
X602D01*
X301Y1490D02*
X385D01*
X431D02*
X442D01*
X524D02*
X604D01*
X300Y1491D02*
X383D01*
X430D02*
X441D01*
X526D02*
X605D01*
X298Y1492D02*
X381D01*
X429D02*
X440D01*
X528D02*
X607D01*
X297Y1493D02*
X379D01*
X427D02*
X440D01*
X530D02*
X608D01*
X295Y1494D02*
X377D01*
X426D02*
X439D01*
X531D02*
X610D01*
X293Y1495D02*
X376D01*
X424D02*
X438D01*
X533D02*
X612D01*
X292Y1496D02*
X374D01*
X423D02*
X437D01*
X534D02*
X613D01*
X290Y1497D02*
X372D01*
X422D02*
X437D01*
X536D02*
X615D01*
X289Y1498D02*
X370D01*
X420D02*
X436D01*
X537D02*
X616D01*
X287Y1499D02*
X368D01*
X419D02*
X435D01*
X539D02*
X618D01*
X286Y1500D02*
X366D01*
X417D02*
X434D01*
X540D02*
X619D01*
X284Y1501D02*
X364D01*
X416D02*
X434D01*
X542D02*
X621D01*
X282Y1502D02*
X362D01*
X414D02*
X433D01*
X543D02*
X622D01*
X281Y1502D02*
X361D01*
X413D02*
X432D01*
X545D02*
X624D01*
X279Y1503D02*
X359D01*
X411D02*
X431D01*
X546D02*
X626D01*
X278Y1504D02*
X358D01*
X410D02*
X431D01*
X547D02*
X627D01*
X276Y1505D02*
X356D01*
X408D02*
X430D01*
X549D02*
X629D01*
X275Y1506D02*
X355D01*
X407D02*
X429D01*
X550D02*
X630D01*
X273Y1507D02*
X353D01*
X405D02*
X428D01*
X552D02*
X632D01*
X272Y1508D02*
X352D01*
X404D02*
X428D01*
X553D02*
X633D01*
X270Y1509D02*
X350D01*
X402D02*
X427D01*
X555D02*
X635D01*
X268Y1510D02*
X349D01*
X400D02*
X426D01*
X556D02*
X637D01*
X267Y1511D02*
X347D01*
X399D02*
X426D01*
X558D02*
X638D01*
X265Y1512D02*
X346D01*
X397D02*
X426D01*
X559D02*
X640D01*
X264Y1513D02*
X344D01*
X396D02*
X426D01*
X561D02*
X641D01*
X262Y1514D02*
X343D01*
X394D02*
X426D01*
X562D02*
X643D01*
X261Y1515D02*
X341D01*
X393D02*
X426D01*
X564D02*
X644D01*
X259Y1516D02*
X340D01*
X391D02*
X426D01*
X565D02*
X646D01*
X258Y1516D02*
X338D01*
X389D02*
X426D01*
X567D02*
X647D01*
X257Y1517D02*
X337D01*
X388D02*
X425D01*
X568D02*
X649D01*
X255Y1518D02*
X335D01*
X386D02*
X425D01*
X570D02*
X651D01*
X254Y1519D02*
X334D01*
X385D02*
X425D01*
X571D02*
X652D01*
X252Y1520D02*
X332D01*
X383D02*
X425D01*
X573D02*
X654D01*
X251Y1521D02*
X331D01*
X382D02*
X425D01*
X574D02*
X655D01*
X250Y1522D02*
X330D01*
X380D02*
X425D01*
X576D02*
X657D01*
X248Y1523D02*
X328D01*
X379D02*
X425D01*
X577D02*
X658D01*
X247Y1524D02*
X327D01*
X377D02*
X425D01*
X579D02*
X660D01*
X245Y1525D02*
X325D01*
X375D02*
X425D01*
X580D02*
X662D01*
X244Y1526D02*
X324D01*
X374D02*
X424D01*
X582D02*
X663D01*
X243Y1527D02*
X323D01*
X373D02*
X424D01*
X583D02*
X665D01*
X241Y1528D02*
X321D01*
X371D02*
X424D01*
X585D02*
X666D01*
X240Y1529D02*
X320D01*
X370D02*
X424D01*
X586D02*
X668D01*
X238Y1530D02*
X318D01*
X369D02*
X424D01*
X588D02*
X669D01*
X237Y1531D02*
X317D01*
X367D02*
X424D01*
X590D02*
X671D01*
X235Y1531D02*
X315D01*
X366D02*
X424D01*
X591D02*
X672D01*
X234Y1532D02*
X314D01*
X364D02*
X424D01*
X593D02*
X674D01*
X233Y1533D02*
X313D01*
X363D02*
X423D01*
X594D02*
X676D01*
X231Y1534D02*
X311D01*
X362D02*
X423D01*
X596D02*
X677D01*
X230Y1535D02*
X310D01*
X360D02*
X423D01*
X597D02*
X679D01*
X228Y1536D02*
X308D01*
X359D02*
X423D01*
X599D02*
X680D01*
X227Y1537D02*
X307D01*
X358D02*
X423D01*
X601D02*
X682D01*
X226Y1538D02*
X305D01*
X356D02*
X423D01*
X602D02*
X683D01*
X224Y1539D02*
X304D01*
X355D02*
X423D01*
X604D02*
X685D01*
X222Y1540D02*
X302D01*
X354D02*
X423D01*
X605D02*
X686D01*
X221Y1541D02*
X300D01*
X352D02*
X423D01*
X607D02*
X687D01*
X219Y1542D02*
X298D01*
X351D02*
X370D01*
X379D02*
X422D01*
X608D02*
X689D01*
X217Y1543D02*
X296D01*
X350D02*
X369D01*
X381D02*
X422D01*
X610D02*
X690D01*
X216Y1544D02*
X294D01*
X348D02*
X368D01*
X383D02*
X422D01*
X611D02*
X691D01*
X214Y1545D02*
X292D01*
X347D02*
X367D01*
X385D02*
X422D01*
X613D02*
X692D01*
X212Y1546D02*
X290D01*
X346D02*
X366D01*
X387D02*
X422D01*
X615D02*
X694D01*
X211Y1546D02*
X289D01*
X344D02*
X366D01*
X390D02*
X422D01*
X616D02*
X695D01*
X209Y1547D02*
X287D01*
X343D02*
X365D01*
X394D02*
X422D01*
X617D02*
X696D01*
X207Y1548D02*
X285D01*
X341D02*
X364D01*
X398D02*
X422D01*
X619D02*
X698D01*
X206Y1549D02*
X283D01*
X340D02*
X363D01*
X402D02*
X422D01*
X620D02*
X699D01*
X204Y1550D02*
X281D01*
X339D02*
X362D01*
X405D02*
X422D01*
X622D02*
X700D01*
X203Y1551D02*
X279D01*
X337D02*
X362D01*
X407D02*
X422D01*
X623D02*
X702D01*
X201Y1552D02*
X277D01*
X336D02*
X362D01*
X410D02*
X422D01*
X624D02*
X703D01*
X199Y1553D02*
X275D01*
X335D02*
X361D01*
X413D02*
X422D01*
X626D02*
X704D01*
X198Y1554D02*
X274D01*
X333D02*
X361D01*
X627D02*
X706D01*
X196Y1555D02*
X272D01*
X332D02*
X361D01*
X629D02*
X707D01*
X195Y1556D02*
X271D01*
X331D02*
X360D01*
X630D02*
X708D01*
X193Y1557D02*
X269D01*
X329D02*
X360D01*
X631D02*
X709D01*
X191Y1558D02*
X268D01*
X328D02*
X360D01*
X633D02*
X711D01*
X190Y1559D02*
X266D01*
X327D02*
X359D01*
X634D02*
X712D01*
X188Y1560D02*
X265D01*
X325D02*
X359D01*
X636D02*
X714D01*
X187Y1561D02*
X263D01*
X324D02*
X359D01*
X637D02*
X716D01*
X185Y1561D02*
X262D01*
X323D02*
X358D01*
X638D02*
X717D01*
X184Y1562D02*
X260D01*
X321D02*
X358D01*
X640D02*
X719D01*
X182Y1563D02*
X259D01*
X319D02*
X358D01*
X641D02*
X720D01*
X181Y1564D02*
X257D01*
X317D02*
X358D01*
X643D02*
X722D01*
X179Y1565D02*
X256D01*
X315D02*
X358D01*
X644D02*
X723D01*
X177Y1566D02*
X254D01*
X313D02*
X358D01*
X587D02*
X592D01*
X645D02*
X725D01*
X176Y1567D02*
X253D01*
X311D02*
X358D01*
X587D02*
X594D01*
X647D02*
X726D01*
X174Y1568D02*
X251D01*
X309D02*
X358D01*
X587D02*
X596D01*
X648D02*
X728D01*
X173Y1569D02*
X250D01*
X308D02*
X358D01*
X588D02*
X597D01*
X650D02*
X730D01*
X171Y1570D02*
X248D01*
X306D02*
X358D01*
X588D02*
X599D01*
X651D02*
X731D01*
X170Y1571D02*
X247D01*
X305D02*
X358D01*
X588D02*
X601D01*
X653D02*
X733D01*
X168Y1572D02*
X245D01*
X304D02*
X358D01*
X589D02*
X603D01*
X654D02*
X735D01*
X166Y1573D02*
X244D01*
X303D02*
X358D01*
X589D02*
X605D01*
X655D02*
X737D01*
X165Y1574D02*
X242D01*
X302D02*
X359D01*
X589D02*
X606D01*
X657D02*
X739D01*
X163Y1575D02*
X240D01*
X300D02*
X360D01*
X590D02*
X606D01*
X658D02*
X739D01*
X162Y1576D02*
X239D01*
X298D02*
X361D01*
X590D02*
X606D01*
X660D02*
X740D01*
X160Y1576D02*
X237D01*
X297D02*
X361D01*
X590D02*
X606D01*
X661D02*
X740D01*
X159Y1577D02*
X236D01*
X295D02*
X362D01*
X590D02*
X606D01*
X662D02*
X740D01*
X158Y1578D02*
X234D01*
X294D02*
X363D01*
X591D02*
X607D01*
X664D02*
X741D01*
X158Y1579D02*
X233D01*
X294D02*
X364D01*
X591D02*
X608D01*
X665D02*
X741D01*
X158Y1580D02*
X231D01*
X294D02*
X365D01*
X591D02*
X609D01*
X667D02*
X742D01*
X158Y1581D02*
X230D01*
X294D02*
X366D01*
X592D02*
X610D01*
X668D02*
X742D01*
X158Y1582D02*
X228D01*
X293D02*
X367D01*
X410D02*
X410D01*
X592D02*
X610D01*
X669D02*
X742D01*
X158Y1583D02*
X227D01*
X293D02*
X368D01*
X409D02*
X410D01*
X592D02*
X610D01*
X671D02*
X742D01*
X158Y1584D02*
X225D01*
X293D02*
X369D01*
X408D02*
X410D01*
X593D02*
X610D01*
X672D02*
X742D01*
X158Y1585D02*
X224D01*
X293D02*
X370D01*
X407D02*
X410D01*
X593D02*
X610D01*
X674D02*
X742D01*
X158Y1586D02*
X222D01*
X292D02*
X371D01*
X406D02*
X410D01*
X593D02*
X610D01*
X675D02*
X742D01*
X158Y1587D02*
X221D01*
X292D02*
X372D01*
X404D02*
X410D01*
X594D02*
X610D01*
X677D02*
X742D01*
X158Y1588D02*
X219D01*
X292D02*
X373D01*
X402D02*
X410D01*
X594D02*
X610D01*
X678D02*
X742D01*
X158Y1589D02*
X218D01*
X292D02*
X374D01*
X400D02*
X410D01*
X594D02*
X610D01*
X680D02*
X742D01*
X158Y1590D02*
X216D01*
X291D02*
X375D01*
X398D02*
X410D01*
X595D02*
X610D01*
X681D02*
X742D01*
X158Y1591D02*
X215D01*
X291D02*
X379D01*
X396D02*
X410D01*
X595D02*
X611D01*
X683D02*
X742D01*
X158Y1591D02*
X213D01*
X291D02*
X382D01*
X395D02*
X410D01*
X595D02*
X611D01*
X684D02*
X742D01*
X158Y1592D02*
X212D01*
X291D02*
X386D01*
X393D02*
X410D01*
X595D02*
X611D01*
X686D02*
X742D01*
X158Y1593D02*
X210D01*
X291D02*
X390D01*
X391D02*
X410D01*
X596D02*
X611D01*
X687D02*
X742D01*
X158Y1594D02*
X209D01*
X290D02*
X410D01*
X596D02*
X611D01*
X689D02*
X742D01*
X158Y1595D02*
X207D01*
X290D02*
X410D01*
X596D02*
X611D01*
X690D02*
X742D01*
X158Y1596D02*
X206D01*
X290D02*
X410D01*
X597D02*
X611D01*
X692D02*
X742D01*
X158Y1597D02*
X204D01*
X290D02*
X410D01*
X597D02*
X611D01*
X693D02*
X742D01*
X158Y1598D02*
X203D01*
X289D02*
X410D01*
X597D02*
X611D01*
X695D02*
X742D01*
X158Y1599D02*
X201D01*
X289D02*
X410D01*
X598D02*
X612D01*
X696D02*
X742D01*
X158Y1600D02*
X200D01*
X289D02*
X409D01*
X598D02*
X612D01*
X698D02*
X742D01*
X158Y1601D02*
X198D01*
X289D02*
X409D01*
X598D02*
X612D01*
X699D02*
X742D01*
X158Y1602D02*
X197D01*
X206D02*
X207D01*
X288D02*
X409D01*
X598D02*
X612D01*
X694D02*
X695D01*
X701D02*
X742D01*
X158Y1603D02*
X195D01*
X205D02*
X209D01*
X288D02*
X409D01*
X598D02*
X612D01*
X692D02*
X696D01*
X702D02*
X742D01*
X158Y1604D02*
X194D01*
X204D02*
X210D01*
X288D02*
X409D01*
X598D02*
X612D01*
X690D02*
X697D01*
X704D02*
X742D01*
X158Y1605D02*
X192D01*
X203D02*
X212D01*
X288D02*
X409D01*
X598D02*
X612D01*
X688D02*
X698D01*
X705D02*
X742D01*
X158Y1606D02*
X191D01*
X202D02*
X214D01*
X287D02*
X408D01*
X598D02*
X612D01*
X685D02*
X700D01*
X706D02*
X742D01*
X158Y1606D02*
X189D01*
X201D02*
X215D01*
X287D02*
X408D01*
X598D02*
X612D01*
X683D02*
X701D01*
X708D02*
X742D01*
X158Y1607D02*
X188D01*
X199D02*
X217D01*
X287D02*
X408D01*
X598D02*
X612D01*
X681D02*
X702D01*
X710D02*
X742D01*
X158Y1608D02*
X186D01*
X197D02*
X219D01*
X287D02*
X408D01*
X598D02*
X613D01*
X679D02*
X703D01*
X711D02*
X742D01*
X158Y1609D02*
X185D01*
X195D02*
X220D01*
X287D02*
X408D01*
X598D02*
X613D01*
X677D02*
X704D01*
X713D02*
X742D01*
X158Y1610D02*
X183D01*
X193D02*
X222D01*
X286D02*
X408D01*
X598D02*
X613D01*
X675D02*
X705D01*
X714D02*
X742D01*
X158Y1611D02*
X182D01*
X191D02*
X224D01*
X286D02*
X408D01*
X598D02*
X613D01*
X673D02*
X707D01*
X716D02*
X742D01*
X158Y1612D02*
X180D01*
X189D02*
X226D01*
X286D02*
X407D01*
X598D02*
X613D01*
X671D02*
X708D01*
X717D02*
X742D01*
X158Y1613D02*
X179D01*
X187D02*
X227D01*
X286D02*
X407D01*
X598D02*
X613D01*
X669D02*
X709D01*
X719D02*
X742D01*
X158Y1614D02*
X177D01*
X186D02*
X229D01*
X286D02*
X407D01*
X598D02*
X613D01*
X666D02*
X710D01*
X721D02*
X742D01*
X158Y1615D02*
X176D01*
X185D02*
X231D01*
X286D02*
X407D01*
X598D02*
X613D01*
X664D02*
X711D01*
X722D02*
X742D01*
X158Y1616D02*
X174D01*
X183D02*
X232D01*
X286D02*
X407D01*
X598D02*
X613D01*
X662D02*
X712D01*
X724D02*
X742D01*
X158Y1617D02*
X173D01*
X182D02*
X234D01*
X286D02*
X407D01*
X598D02*
X614D01*
X660D02*
X714D01*
X725D02*
X742D01*
X158Y1618D02*
X171D01*
X181D02*
X236D01*
X286D02*
X407D01*
X598D02*
X614D01*
X658D02*
X715D01*
X727D02*
X742D01*
X158Y1619D02*
X170D01*
X180D02*
X237D01*
X286D02*
X407D01*
X598D02*
X614D01*
X657D02*
X717D01*
X729D02*
X742D01*
X158Y1620D02*
X168D01*
X178D02*
X239D01*
X286D02*
X407D01*
X598D02*
X614D01*
X656D02*
X719D01*
X731D02*
X742D01*
X158Y1621D02*
X167D01*
X177D02*
X241D01*
X286D02*
X407D01*
X598D02*
X614D01*
X654D02*
X721D01*
X733D02*
X742D01*
X158Y1621D02*
X165D01*
X176D02*
X242D01*
X286D02*
X407D01*
X598D02*
X614D01*
X653D02*
X722D01*
X734D02*
X742D01*
X158Y1622D02*
X164D01*
X175D02*
X244D01*
X286D02*
X407D01*
X598D02*
X614D01*
X652D02*
X724D01*
X736D02*
X742D01*
X158Y1623D02*
X162D01*
X173D02*
X247D01*
X286D02*
X407D01*
X598D02*
X614D01*
X651D02*
X726D01*
X738D02*
X742D01*
X158Y1624D02*
X160D01*
X172D02*
X249D01*
X286D02*
X407D01*
X598D02*
X614D01*
X649D02*
X728D01*
X740D02*
X742D01*
X158Y1625D02*
X159D01*
X171D02*
X251D01*
X286D02*
X408D01*
X598D02*
X614D01*
X648D02*
X730D01*
X742D02*
X742D01*
X169Y1626D02*
X253D01*
X286D02*
X408D01*
X598D02*
X614D01*
X647D02*
X732D01*
X167Y1627D02*
X255D01*
X286D02*
X408D01*
X598D02*
X614D01*
X646D02*
X734D01*
X165Y1628D02*
X257D01*
X286D02*
X408D01*
X598D02*
X614D01*
X644D02*
X735D01*
X164Y1629D02*
X259D01*
X286D02*
X408D01*
X598D02*
X614D01*
X643D02*
X737D01*
X163Y1630D02*
X261D01*
X286D02*
X408D01*
X598D02*
X614D01*
X641D02*
X734D01*
X165Y1631D02*
X263D01*
X286D02*
X408D01*
X598D02*
X614D01*
X639D02*
X734D01*
X167Y1632D02*
X266D01*
X286D02*
X409D01*
X598D02*
X614D01*
X636D02*
X734D01*
X169Y1633D02*
X268D01*
X286D02*
X409D01*
X598D02*
X614D01*
X633D02*
X734D01*
X171Y1634D02*
X270D01*
X286D02*
X409D01*
X598D02*
X614D01*
X630D02*
X730D01*
X173Y1635D02*
X272D01*
X286D02*
X409D01*
X598D02*
X614D01*
X629D02*
X728D01*
X174Y1636D02*
X274D01*
X286D02*
X409D01*
X598D02*
X614D01*
X628D02*
X726D01*
X176Y1636D02*
X276D01*
X286D02*
X409D01*
X598D02*
X614D01*
X628D02*
X725D01*
X178Y1637D02*
X278D01*
X286D02*
X409D01*
X598D02*
X614D01*
X627D02*
X723D01*
X180Y1638D02*
X278D01*
X286D02*
X409D01*
X598D02*
X614D01*
X626D02*
X720D01*
X181Y1639D02*
X278D01*
X286D02*
X410D01*
X598D02*
X614D01*
X626D02*
X718D01*
X183Y1640D02*
X278D01*
X286D02*
X410D01*
X597D02*
X614D01*
X625D02*
X716D01*
X184Y1641D02*
X278D01*
X286D02*
X410D01*
X597D02*
X614D01*
X625D02*
X713D01*
X185Y1642D02*
X278D01*
X286D02*
X410D01*
X597D02*
X614D01*
X624D02*
X711D01*
X187Y1643D02*
X278D01*
X286D02*
X410D01*
X597D02*
X614D01*
X624D02*
X709D01*
X188Y1644D02*
X278D01*
X286D02*
X410D01*
X597D02*
X614D01*
X623D02*
X706D01*
X190Y1645D02*
X278D01*
X286D02*
X410D01*
X597D02*
X614D01*
X623D02*
X704D01*
X191Y1646D02*
X278D01*
X286D02*
X411D01*
X597D02*
X614D01*
X622D02*
X702D01*
X194Y1647D02*
X278D01*
X286D02*
X411D01*
X597D02*
X614D01*
X622D02*
X700D01*
X196Y1648D02*
X278D01*
X286D02*
X412D01*
X597D02*
X614D01*
X622D02*
X698D01*
X198Y1649D02*
X278D01*
X286D02*
X412D01*
X597D02*
X614D01*
X622D02*
X696D01*
X201Y1650D02*
X278D01*
X286D02*
X413D01*
X596D02*
X614D01*
X622D02*
X694D01*
X203Y1650D02*
X278D01*
X287D02*
X413D01*
X596D02*
X614D01*
X622D02*
X693D01*
X205Y1651D02*
X278D01*
X287D02*
X413D01*
X596D02*
X614D01*
X622D02*
X691D01*
X208Y1652D02*
X278D01*
X287D02*
X414D01*
X596D02*
X614D01*
X622D02*
X689D01*
X210Y1653D02*
X278D01*
X287D02*
X414D01*
X596D02*
X614D01*
X622D02*
X687D01*
X212Y1654D02*
X279D01*
X288D02*
X415D01*
X596D02*
X614D01*
X622D02*
X685D01*
X215Y1655D02*
X279D01*
X288D02*
X415D01*
X596D02*
X614D01*
X621D02*
X683D01*
X217Y1656D02*
X279D01*
X288D02*
X416D01*
X596D02*
X614D01*
X621D02*
X681D01*
X219Y1657D02*
X280D01*
X288D02*
X416D01*
X596D02*
X614D01*
X621D02*
X679D01*
X222Y1658D02*
X280D01*
X289D02*
X417D01*
X596D02*
X614D01*
X621D02*
X678D01*
X224Y1659D02*
X280D01*
X289D02*
X417D01*
X596D02*
X614D01*
X621D02*
X676D01*
X226Y1660D02*
X281D01*
X289D02*
X418D01*
X595D02*
X614D01*
X621D02*
X674D01*
X229Y1661D02*
X281D01*
X289D02*
X418D01*
X595D02*
X613D01*
X621D02*
X672D01*
X231Y1662D02*
X281D01*
X290D02*
X419D01*
X458D02*
X459D01*
X595D02*
X613D01*
X621D02*
X670D01*
X234Y1663D02*
X282D01*
X290D02*
X420D01*
X457D02*
X460D01*
X595D02*
X613D01*
X621D02*
X668D01*
X237Y1664D02*
X282D01*
X290D02*
X421D01*
X456D02*
X462D01*
X595D02*
X613D01*
X620D02*
X666D01*
X240Y1665D02*
X282D01*
X290D02*
X422D01*
X455D02*
X463D01*
X595D02*
X612D01*
X620D02*
X664D01*
X242Y1665D02*
X282D01*
X290D02*
X422D01*
X455D02*
X464D01*
X595D02*
X612D01*
X620D02*
X663D01*
X243Y1666D02*
X282D01*
X291D02*
X423D01*
X454D02*
X466D01*
X595D02*
X612D01*
X620D02*
X661D01*
X244Y1667D02*
X282D01*
X291D02*
X424D01*
X453D02*
X467D01*
X595D02*
X612D01*
X620D02*
X659D01*
X245Y1668D02*
X282D01*
X292D02*
X425D01*
X452D02*
X469D01*
X595D02*
X611D01*
X620D02*
X657D01*
X246Y1669D02*
X282D01*
X292D02*
X426D01*
X451D02*
X470D01*
X595D02*
X611D01*
X620D02*
X655D01*
X247Y1670D02*
X282D01*
X292D02*
X428D01*
X448D02*
X471D01*
X594D02*
X611D01*
X620D02*
X653D01*
X248Y1671D02*
X282D01*
X293D02*
X431D01*
X446D02*
X471D01*
X594D02*
X610D01*
X620D02*
X651D01*
X249Y1672D02*
X282D01*
X293D02*
X434D01*
X443D02*
X472D01*
X594D02*
X610D01*
X620D02*
X649D01*
X250Y1673D02*
X282D01*
X293D02*
X437D01*
X440D02*
X472D01*
X593D02*
X610D01*
X619D02*
X648D01*
X252Y1674D02*
X282D01*
X294D02*
X473D01*
X593D02*
X610D01*
X619D02*
X646D01*
X255Y1675D02*
X282D01*
X294D02*
X473D01*
X593D02*
X609D01*
X619D02*
X644D01*
X257Y1676D02*
X282D01*
X294D02*
X474D01*
X592D02*
X609D01*
X619D02*
X642D01*
X260Y1677D02*
X282D01*
X295D02*
X474D01*
X592D02*
X609D01*
X619D02*
X640D01*
X263Y1678D02*
X282D01*
X295D02*
X475D01*
X592D02*
X608D01*
X619D02*
X638D01*
X266Y1679D02*
X282D01*
X295D02*
X475D01*
X591D02*
X608D01*
X619D02*
X635D01*
X269Y1680D02*
X282D01*
X296D02*
X476D01*
X591D02*
X608D01*
X619D02*
X632D01*
X271Y1680D02*
X282D01*
X296D02*
X476D01*
X591D02*
X608D01*
X619D02*
X630D01*
X274Y1681D02*
X282D01*
X296D02*
X476D01*
X591D02*
X607D01*
X618D02*
X627D01*
X276Y1682D02*
X282D01*
X297D02*
X477D01*
X590D02*
X607D01*
X618D02*
X626D01*
X278Y1683D02*
X282D01*
X297D02*
X477D01*
X590D02*
X607D01*
X617D02*
X625D01*
X280Y1684D02*
X282D01*
X297D02*
X478D01*
X590D02*
X606D01*
X616D02*
X624D01*
X282Y1685D02*
X282D01*
X298D02*
X478D01*
X589D02*
X606D01*
X615D02*
X623D01*
X298Y1686D02*
X478D01*
X589D02*
X606D01*
X298Y1687D02*
X478D01*
X589D02*
X606D01*
X299Y1688D02*
X478D01*
X588D02*
X605D01*
X299Y1689D02*
X478D01*
X588D02*
X605D01*
X299Y1690D02*
X478D01*
X588D02*
X605D01*
X300Y1691D02*
X478D01*
X587D02*
X605D01*
X300Y1692D02*
X478D01*
X587D02*
X604D01*
X300Y1693D02*
X478D01*
X587D02*
X604D01*
X301Y1694D02*
X478D01*
X586D02*
X604D01*
X301Y1695D02*
X478D01*
X586D02*
X603D01*
X301Y1695D02*
X478D01*
X586D02*
X603D01*
X302Y1696D02*
X478D01*
X586D02*
X603D01*
X302Y1697D02*
X478D01*
X585D02*
X603D01*
X302Y1698D02*
X428D01*
X431D02*
X478D01*
X585D02*
X602D01*
X303Y1699D02*
X425D01*
X432D02*
X478D01*
X585D02*
X602D01*
X303Y1700D02*
X423D01*
X433D02*
X478D01*
X584D02*
X601D01*
X303Y1701D02*
X420D01*
X434D02*
X477D01*
X584D02*
X601D01*
X304Y1702D02*
X418D01*
X435D02*
X477D01*
X584D02*
X600D01*
X304Y1703D02*
X418D01*
X436D02*
X477D01*
X583D02*
X600D01*
X304Y1704D02*
X417D01*
X437D02*
X476D01*
X583D02*
X600D01*
X305Y1705D02*
X417D01*
X438D02*
X476D01*
X583D02*
X599D01*
X305Y1706D02*
X416D01*
X439D02*
X476D01*
X582D02*
X599D01*
X305Y1707D02*
X416D01*
X440D02*
X475D01*
X582D02*
X598D01*
X306Y1708D02*
X415D01*
X441D02*
X475D01*
X581D02*
X598D01*
X306Y1709D02*
X415D01*
X442D02*
X475D01*
X581D02*
X598D01*
X307Y1710D02*
X414D01*
X443D02*
X474D01*
X580D02*
X597D01*
X307Y1710D02*
X415D01*
X444D02*
X474D01*
X579D02*
X597D01*
X308Y1711D02*
X415D01*
X446D02*
X473D01*
X579D02*
X596D01*
X308Y1712D02*
X415D01*
X448D02*
X472D01*
X578D02*
X596D01*
X309Y1713D02*
X415D01*
X450D02*
X471D01*
X578D02*
X595D01*
X309Y1714D02*
X415D01*
X452D02*
X468D01*
X577D02*
X595D01*
X310Y1715D02*
X416D01*
X454D02*
X466D01*
X576D02*
X595D01*
X311Y1716D02*
X416D01*
X456D02*
X463D01*
X576D02*
X594D01*
X311Y1717D02*
X416D01*
X458D02*
X460D01*
X575D02*
X594D01*
X312Y1718D02*
X416D01*
X575D02*
X593D01*
X312Y1719D02*
X416D01*
X574D02*
X593D01*
X313Y1720D02*
X417D01*
X574D02*
X593D01*
X314Y1721D02*
X417D01*
X573D02*
X592D01*
X314Y1722D02*
X417D01*
X572D02*
X592D01*
X315Y1723D02*
X417D01*
X572D02*
X591D01*
X315Y1724D02*
X417D01*
X571D02*
X591D01*
X316Y1725D02*
X417D01*
X571D02*
X590D01*
X316Y1725D02*
X418D01*
X570D02*
X590D01*
X317Y1726D02*
X418D01*
X569D02*
X590D01*
X318Y1727D02*
X418D01*
X569D02*
X589D01*
X318Y1728D02*
X418D01*
X568D02*
X589D01*
X319Y1729D02*
X418D01*
X568D02*
X588D01*
X319Y1730D02*
X419D01*
X567D02*
X588D01*
X320Y1731D02*
X419D01*
X567D02*
X588D01*
X321Y1732D02*
X419D01*
X566D02*
X587D01*
X321Y1733D02*
X419D01*
X565D02*
X587D01*
X322Y1734D02*
X420D01*
X565D02*
X586D01*
X322Y1735D02*
X420D01*
X564D02*
X585D01*
X323Y1736D02*
X420D01*
X564D02*
X584D01*
X323Y1737D02*
X420D01*
X563D02*
X583D01*
X324Y1738D02*
X421D01*
X562D02*
X582D01*
X325Y1739D02*
X421D01*
X561D02*
X581D01*
X325Y1740D02*
X421D01*
X560D02*
X580D01*
X326Y1740D02*
X421D01*
X559D02*
X580D01*
X326Y1741D02*
X421D01*
X558D02*
X579D01*
X327Y1742D02*
X422D01*
X557D02*
X578D01*
X328Y1743D02*
X422D01*
X556D02*
X577D01*
X329Y1744D02*
X422D01*
X555D02*
X576D01*
X330Y1745D02*
X422D01*
X554D02*
X575D01*
X331Y1746D02*
X423D01*
X552D02*
X574D01*
X332Y1747D02*
X423D01*
X551D02*
X573D01*
X333Y1748D02*
X424D01*
X550D02*
X572D01*
X334Y1749D02*
X425D01*
X549D02*
X571D01*
X335Y1750D02*
X425D01*
X548D02*
X570D01*
X336Y1751D02*
X426D01*
X547D02*
X569D01*
X337Y1752D02*
X426D01*
X546D02*
X568D01*
X338Y1753D02*
X427D01*
X545D02*
X567D01*
X339Y1754D02*
X427D01*
X544D02*
X566D01*
X339Y1755D02*
X428D01*
X543D02*
X565D01*
X340Y1755D02*
X428D01*
X542D02*
X565D01*
X341Y1756D02*
X429D01*
X540D02*
X564D01*
X342Y1757D02*
X430D01*
X539D02*
X563D01*
X343Y1758D02*
X430D01*
X538D02*
X562D01*
X344Y1759D02*
X431D01*
X537D02*
X561D01*
X345Y1760D02*
X431D01*
X536D02*
X560D01*
X346Y1761D02*
X432D01*
X535D02*
X559D01*
X347Y1762D02*
X432D01*
X534D02*
X558D01*
X348Y1763D02*
X433D01*
X532D02*
X556D01*
X349Y1764D02*
X434D01*
X531D02*
X555D01*
X350Y1765D02*
X434D01*
X529D02*
X553D01*
X351Y1766D02*
X435D01*
X528D02*
X552D01*
X353Y1767D02*
X436D01*
X526D02*
X550D01*
X354Y1768D02*
X437D01*
X525D02*
X549D01*
X356Y1769D02*
X438D01*
X523D02*
X547D01*
X357Y1769D02*
X439D01*
X522D02*
X546D01*
X359Y1770D02*
X441D01*
X520D02*
X544D01*
X361Y1771D02*
X442D01*
X519D02*
X543D01*
X362Y1772D02*
X443D01*
X517D02*
X541D01*
X364Y1773D02*
X444D01*
X516D02*
X540D01*
X366Y1774D02*
X445D01*
X514D02*
X538D01*
X367Y1775D02*
X447D01*
X513D02*
X537D01*
X369Y1776D02*
X448D01*
X511D02*
X535D01*
X371Y1777D02*
X449D01*
X510D02*
X534D01*
X372Y1778D02*
X450D01*
X508D02*
X532D01*
X374Y1779D02*
X451D01*
X507D02*
X531D01*
X376Y1780D02*
X452D01*
X505D02*
X529D01*
X377Y1781D02*
X454D01*
X504D02*
X528D01*
X379Y1782D02*
X455D01*
X502D02*
X526D01*
X381Y1783D02*
X456D01*
X498D02*
X523D01*
X383Y1784D02*
X457D01*
X494D02*
X521D01*
X385Y1784D02*
X457D01*
X491D02*
X518D01*
X388Y1785D02*
X458D01*
X487D02*
X516D01*
X390Y1786D02*
X459D01*
X483D02*
X513D01*
X392Y1787D02*
X460D01*
X479D02*
X511D01*
X394Y1788D02*
X461D01*
X476D02*
X508D01*
X396Y1789D02*
X462D01*
X472D02*
X505D01*
X399Y1790D02*
X503D01*
X401Y1791D02*
X500D01*
X403Y1792D02*
X498D01*
X405Y1793D02*
X495D01*
X408Y1794D02*
X493D01*
X411Y1795D02*
X490D01*
X414Y1796D02*
X487D01*
X418Y1797D02*
X485D01*
X421Y1798D02*
X481D01*
X424Y1799D02*
X470D01*
X427Y1799D02*
X459D01*
X431Y1800D02*
X448D01*
X434Y1801D02*
X436D01*
X1831Y1396D02*
Y1384D01*
X1820Y1395*
X1817Y1396*
X1814Y1395*
X1812Y1392*
Y1387*
X1814Y1384*
X1831Y1688D02*
Y1675D01*
X1820Y1686*
X1817Y1688*
X1814Y1686*
X1812Y1683*
Y1678*
X1814Y1675*
X1831Y1708D02*
X1812D01*
X1825Y1700*
Y1713*
X2000Y1703D02*
Y1691D01*
X1989Y1702*
X1986Y1703*
X1983Y1702*
X1982Y1699*
Y1694*
X1983Y1691*
X1999Y1716D02*
X2000Y1719D01*
Y1724*
X1999Y1727*
X1996Y1728*
X1994*
X1991Y1727*
X1989Y1724*
Y1716*
X1982*
Y1728*
X2004Y1375D02*
Y1381D01*
Y1378D02*
X1986D01*
X1989Y1375*
D02*
D12*
X121Y1311D02*
Y1364D01*
X164Y1311*
Y1364*
X191Y1311D02*
Y1364D01*
X212Y1337*
X234Y1364*
Y1311*
X261Y1329D02*
X296D01*
X331Y1364D02*
X335Y1311D01*
X352Y1337*
X370Y1311*
X374Y1364*
X401Y1311D02*
Y1364D01*
X422Y1337*
X444Y1364*
Y1311*
X475Y1316D02*
X484Y1311D01*
X492*
X501Y1316*
X506Y1324*
X501Y1333*
X492Y1337*
X484*
X492D02*
X501Y1342D01*
X506Y1351*
X501Y1359*
X492Y1364*
X484*
X475Y1359*
X545Y1316D02*
X554Y1311D01*
X562*
X571Y1316*
X576Y1324*
Y1351*
X571Y1359*
X562Y1364*
X554*
X545Y1359*
X541Y1351*
Y1324*
X545Y1316*
X571Y1359*
X615Y1316D02*
X624Y1311D01*
X632*
X641Y1316*
X646Y1324*
Y1351*
X641Y1359*
X632Y1364*
X624*
X615Y1359*
X611Y1351*
Y1324*
X615Y1316*
X641Y1359*
X681Y1311D02*
Y1364D01*
X707*
X716Y1359*
X720Y1355*
X724Y1346*
Y1329*
X720Y1320*
X716Y1316*
X707Y1311*
X681*
X798Y1313D02*
Y1351D01*
X819*
X826Y1348*
X829Y1342*
X826Y1335*
X819Y1332*
X798*
X819D02*
X829Y1313D01*
X848D02*
Y1351D01*
X879*
X873Y1332D02*
X848D01*
Y1313D02*
X879D01*
X898Y1351D02*
X913Y1313D01*
X929Y1351*
X951Y1313D02*
X954Y1317D01*
X951Y1320*
X948Y1317*
X951Y1313*
X1004D02*
X1016D01*
X1010D02*
Y1351D01*
X1004Y1345*
D02*
D13*
X288Y569D02*
G75*
G03X304I8D01*
G01*
G75*
G03X288I-8*
G01*
D02*
D14*
X1964Y705D02*
Y505D01*
X2064*
Y705*
X1964*
X0Y0D02*
M02*
