%FSLAX23Y23*%
%MOIN*%
G04 EasyPC Gerber Version 17.0 Build 3379 *
%ADD11C,0.00100*%
%ADD10C,0.00500*%
%ADD107C,0.00787*%
X0Y0D02*
D02*
D10*
X228Y1022D02*
Y1059D01*
X207*
X200Y1056*
X197Y1050*
X200Y1044*
X207Y1041*
X228*
X207D02*
X197Y1022D01*
X172D02*
X160D01*
X166D02*
Y1059D01*
X172Y1053*
X128Y1031D02*
X125Y1038D01*
X119Y1041*
X113*
X107Y1038*
X103Y1031*
X107Y1025*
X113Y1022*
X119*
X125Y1025*
X128Y1031*
Y1041*
X125Y1050*
X119Y1056*
X113Y1059*
X302Y193D02*
X380Y115D01*
X302Y351D02*
Y193D01*
Y351D02*
X1719D01*
X302Y1768D02*
X380Y1689D01*
X302Y1926D02*
Y1768D01*
Y1926D02*
X1719D01*
X320Y984D02*
X267D01*
Y861*
X320*
Y984*
X314Y843D02*
X277D01*
Y821*
X280Y814*
X286Y811*
X292Y814*
X295Y821*
Y843*
Y821D02*
X314Y811D01*
Y786D02*
Y774D01*
Y780D02*
X277D01*
X283Y786*
X311Y743D02*
X314Y736D01*
Y727*
X311Y721*
X305Y718*
X302*
X295Y721*
X292Y727*
Y743*
X277*
Y718*
X329Y627D02*
X357D01*
Y687*
X329*
Y627*
X359Y608D02*
X322D01*
Y586*
X325Y579*
X331Y576*
X337Y579*
X340Y586*
Y608*
Y586D02*
X359Y576D01*
Y532D02*
Y558D01*
X337Y536*
X331Y532*
X325Y536*
X322Y542*
Y551*
X325Y558*
X340Y498D02*
Y492D01*
X337Y486*
X331Y483*
X325Y486*
X322Y492*
Y498*
X325Y504*
X331Y507*
X337Y504*
X340Y498*
X343Y504*
X350Y507*
X356Y504*
X359Y498*
Y492*
X356Y486*
X350Y483*
X343Y486*
X340Y492*
X380Y1011D02*
Y1064D01*
X257*
Y1011*
X380*
X380Y115D02*
X1640D01*
X380Y1689D02*
X1640D01*
X394Y627D02*
X422D01*
Y687*
X394*
Y627*
X414Y1016D02*
X442D01*
Y1077*
X414*
Y1016*
X424Y608D02*
X387D01*
Y586*
X390Y579*
X396Y576*
X402Y579*
X405Y586*
Y608*
Y586D02*
X424Y576D01*
Y551D02*
Y539D01*
Y545D02*
X387D01*
X393Y551*
X424Y507D02*
X387Y483D01*
Y507*
X444Y993D02*
X407D01*
Y971*
X410Y964*
X416Y961*
X422Y964*
X425Y971*
Y993*
Y971D02*
X444Y961D01*
Y918D02*
Y943D01*
X422Y921*
X416Y918*
X410Y921*
X407Y927*
Y936*
X410Y943*
X444Y892D02*
X407Y868D01*
Y892*
X459Y627D02*
X487D01*
Y687*
X459*
Y627*
X479Y1016D02*
X507D01*
Y1077*
X479*
Y1016*
X489Y608D02*
X452D01*
Y586*
X455Y579*
X461Y576*
X467Y579*
X470Y586*
Y608*
Y586D02*
X489Y576D01*
Y551D02*
Y539D01*
Y545D02*
X452D01*
X458Y551*
X470Y498D02*
Y492D01*
X467Y486*
X461Y483*
X455Y486*
X452Y492*
Y498*
X455Y504*
X461Y507*
X467Y504*
X470Y498*
X473Y504*
X480Y507*
X486Y504*
X489Y498*
Y492*
X486Y486*
X480Y483*
X473Y486*
X470Y492*
X504Y993D02*
X467D01*
Y971*
X470Y964*
X476Y961*
X482Y964*
X485Y971*
Y993*
Y971D02*
X504Y961D01*
Y918D02*
Y943D01*
X482Y921*
X476Y918*
X470Y921*
X467Y927*
Y936*
X470Y943*
X495Y892D02*
X488Y889D01*
X485Y883*
Y877*
X488Y871*
X495Y868*
X501Y871*
X504Y877*
Y883*
X501Y889*
X495Y892*
X485*
X476Y889*
X470Y883*
X467Y877*
X524Y627D02*
X552D01*
Y687*
X524*
Y627*
X554Y608D02*
X517D01*
Y586*
X520Y579*
X526Y576*
X532Y579*
X535Y586*
Y608*
Y586D02*
X554Y576D01*
Y551D02*
Y539D01*
Y545D02*
X517D01*
X523Y551*
X554Y498D02*
X551Y492D01*
X545Y486*
X535Y483*
X526*
X520Y486*
X517Y492*
Y498*
X520Y504*
X526Y507*
X532Y504*
X535Y498*
Y492*
X532Y486*
X526Y483*
X589Y627D02*
X617D01*
Y687*
X589*
Y627*
X619Y608D02*
X582D01*
Y586*
X585Y579*
X591Y576*
X597Y579*
X600Y586*
Y608*
Y586D02*
X619Y576D01*
Y532D02*
Y558D01*
X597Y536*
X591Y532*
X585Y536*
X582Y542*
Y551*
X585Y558*
X616Y504D02*
X619Y498D01*
Y492*
X616Y486*
X610Y483*
X591*
X585Y486*
X582Y492*
Y498*
X585Y504*
X591Y507*
X610*
X616Y504*
X585Y486*
X644Y1242D02*
X672D01*
Y1302*
X644*
Y1242*
X668Y1191D02*
X671Y1194D01*
X674Y1201*
Y1210*
X671Y1216*
X668Y1219*
X662Y1223*
X649*
X643Y1219*
X640Y1216*
X637Y1210*
Y1201*
X640Y1194*
X643Y1191*
X674Y1166D02*
Y1154D01*
Y1160D02*
X637D01*
X643Y1166*
X665Y1123D02*
X658Y1119D01*
X655Y1113*
Y1107*
X658Y1101*
X665Y1098*
X671Y1101*
X674Y1107*
Y1113*
X671Y1119*
X665Y1123*
X655*
X646Y1119*
X640Y1113*
X637Y1107*
X713Y712D02*
Y749D01*
X692*
X685Y746*
X682Y740*
X685Y734*
X692Y731*
X713*
X692D02*
X682Y712D01*
X638D02*
X663D01*
X642Y734*
X638Y740*
X642Y746*
X648Y749*
X657*
X663Y746*
X607Y712D02*
X595D01*
X601D02*
Y749D01*
X607Y743*
X713Y772D02*
Y809D01*
X692*
X685Y806*
X682Y800*
X685Y794*
X692Y791*
X713*
X692D02*
X682Y772D01*
X638D02*
X663D01*
X642Y794*
X638Y800*
X642Y806*
X648Y809*
X657*
X663Y806*
X588Y772D02*
X613D01*
X592Y794*
X588Y800*
X592Y806*
X598Y809*
X607*
X613Y806*
X713Y832D02*
Y869D01*
X692*
X685Y866*
X682Y860*
X685Y854*
X692Y851*
X713*
X692D02*
X682Y832D01*
X638D02*
X663D01*
X642Y854*
X638Y860*
X642Y866*
X648Y869*
X657*
X663Y866*
X610Y835D02*
X604Y832D01*
X598*
X592Y835*
X588Y841*
X592Y848*
X598Y851*
X604*
X598D02*
X592Y854D01*
X588Y860*
X592Y866*
X598Y869*
X604*
X610Y866*
X713Y892D02*
Y929D01*
X692*
X685Y926*
X682Y920*
X685Y914*
X692Y911*
X713*
X692D02*
X682Y892D01*
X638D02*
X663D01*
X642Y914*
X638Y920*
X642Y926*
X648Y929*
X657*
X663Y926*
X598Y892D02*
Y929D01*
X613Y904*
X588*
X713Y952D02*
Y989D01*
X692*
X685Y986*
X682Y980*
X685Y974*
X692Y971*
X713*
X692D02*
X682Y952D01*
X638D02*
X663D01*
X642Y974*
X638Y980*
X642Y986*
X648Y989*
X657*
X663Y986*
X613Y955D02*
X607Y952D01*
X598*
X592Y955*
X588Y961*
Y964*
X592Y971*
X598Y974*
X613*
Y989*
X588*
X724Y1245D02*
X762D01*
Y1341*
X724*
Y1245*
X758Y1191D02*
X761Y1194D01*
X764Y1201*
Y1210*
X761Y1216*
X758Y1219*
X752Y1223*
X739*
X733Y1219*
X730Y1216*
X727Y1210*
Y1201*
X730Y1194*
X733Y1191*
X764Y1166D02*
Y1154D01*
Y1160D02*
X727D01*
X733Y1166*
X764Y1123D02*
X727Y1098D01*
Y1123*
X789Y714D02*
Y742D01*
X729*
Y714*
X789*
Y774D02*
Y802D01*
X729*
Y774*
X789*
Y834D02*
Y862D01*
X729*
Y834*
X789*
Y894D02*
Y922D01*
X729*
Y894*
X789*
Y954D02*
Y982D01*
X729*
Y954*
X789*
X852Y1341D02*
X814D01*
Y1245*
X852*
Y1341*
X817Y1223D02*
X854D01*
Y1191*
Y1173D02*
X817Y1148D01*
Y1173*
X942Y1341D02*
X904D01*
Y1245*
X942*
Y1341*
X902Y1223D02*
X939D01*
Y1191*
X920Y1163D02*
Y1157D01*
X917Y1151*
X911Y1148*
X905Y1151*
X902Y1157*
Y1163*
X905Y1169*
X911Y1173*
X917Y1169*
X920Y1163*
X923Y1169*
X930Y1173*
X936Y1169*
X939Y1163*
Y1157*
X936Y1151*
X930Y1148*
X923Y1151*
X920Y1157*
X978Y1018D02*
Y1255D01*
X1411*
Y1018*
X978*
X992Y808D02*
X995Y805D01*
X1002Y802*
X1011*
X1017Y805*
X1020Y808*
X1023Y814*
Y827*
X1020Y833*
X1017Y836*
X1011Y839*
X1002*
X995Y836*
X992Y833*
X948Y802D02*
X973D01*
X952Y824*
X948Y830*
X952Y836*
X958Y839*
X967*
X973Y836*
X917Y802D02*
X905D01*
X911D02*
Y839D01*
X917Y833*
X997Y863D02*
X1000Y860D01*
X1007Y857*
X1016*
X1022Y860*
X1025Y863*
X1028Y869*
Y882*
X1025Y888*
X1022Y891*
X1016Y894*
X1007*
X1000Y891*
X997Y888*
X953Y857D02*
X978D01*
X957Y879*
X953Y885*
X957Y891*
X963Y894*
X972*
X978Y891*
X903Y857D02*
X928D01*
X907Y879*
X903Y885*
X907Y891*
X913Y894*
X922*
X928Y891*
X1024Y513D02*
X987D01*
Y491*
X990Y484*
X996Y481*
X1002Y484*
X1005Y491*
Y513*
Y491D02*
X1024Y481D01*
Y456D02*
Y444D01*
Y450D02*
X987D01*
X993Y456*
X1021Y409D02*
X1024Y403D01*
Y397*
X1021Y391*
X1015Y388*
X996*
X990Y391*
X987Y397*
Y403*
X990Y409*
X996Y413*
X1015*
X1021Y409*
X990Y391*
X1035Y654D02*
X982D01*
Y531*
X1035*
Y654*
X1040Y837D02*
Y799D01*
X1136*
Y837*
X1040*
Y897D02*
Y859D01*
X1136*
Y897*
X1040*
X1107Y471D02*
X1160D01*
Y594*
X1107*
Y471*
X1148Y421D02*
X1151Y424D01*
X1154Y431*
Y440*
X1151Y446*
X1148Y449*
X1142Y453*
X1129*
X1123Y449*
X1120Y446*
X1117Y440*
Y431*
X1120Y424*
X1123Y421*
X1154Y396D02*
Y384D01*
Y390D02*
X1117D01*
X1123Y396*
X1184Y484D02*
X1222D01*
Y581*
X1184*
Y484*
X1229Y592D02*
G75*
G02X1235Y597I3J3D01*
G01*
G75*
G02X1229Y592I-3J-3*
G01*
X1218Y436D02*
X1221Y439D01*
X1224Y446*
Y455*
X1221Y461*
X1218Y464*
X1212Y468*
X1199*
X1193Y464*
X1190Y461*
X1187Y455*
Y446*
X1190Y439*
X1193Y436*
X1224Y393D02*
Y418D01*
X1202Y396*
X1196Y393*
X1190Y396*
X1187Y402*
Y411*
X1190Y418*
X1247Y746D02*
X1209D01*
Y649*
X1247*
Y746*
X1238Y856D02*
X1241Y859D01*
X1244Y866*
Y875*
X1241Y881*
X1238Y884*
X1232Y888*
X1219*
X1213Y884*
X1210Y881*
X1207Y875*
Y866*
X1210Y859*
X1213Y856*
X1244Y813D02*
Y838D01*
X1222Y816*
X1216Y813*
X1210Y816*
X1207Y822*
Y831*
X1210Y838*
X1241Y784D02*
X1244Y778D01*
Y772*
X1241Y766*
X1235Y763*
X1216*
X1210Y766*
X1207Y772*
Y778*
X1210Y784*
X1216Y788*
X1235*
X1241Y784*
X1210Y766*
X1328Y493D02*
Y572D01*
X1249*
Y493*
X1328*
X1332Y716D02*
X1294D01*
Y620*
X1332*
Y716*
X1328Y826D02*
X1331Y829D01*
X1334Y836*
Y845*
X1331Y851*
X1328Y854*
X1322Y858*
X1309*
X1303Y854*
X1300Y851*
X1297Y845*
Y836*
X1300Y829*
X1303Y826*
X1334Y801D02*
Y789D01*
Y795D02*
X1297D01*
X1303Y801*
X1315Y748D02*
Y742D01*
X1312Y736*
X1306Y733*
X1300Y736*
X1297Y742*
Y748*
X1300Y754*
X1306Y758*
X1312Y754*
X1315Y748*
X1318Y754*
X1325Y758*
X1331Y754*
X1334Y748*
Y742*
X1331Y736*
X1325Y733*
X1318Y736*
X1315Y742*
X1399Y658D02*
X1362Y642D01*
X1399Y626*
X1383Y651D02*
Y632D01*
X1399Y608D02*
X1362D01*
Y589*
X1365Y583*
X1368Y579*
X1374Y576*
X1387*
X1393Y579*
X1396Y583*
X1399Y589*
Y608*
Y558D02*
X1362Y532D01*
Y558*
X1396Y504D02*
X1399Y498D01*
Y492*
X1396Y486*
X1390Y483*
X1371*
X1365Y486*
X1362Y492*
Y498*
X1365Y504*
X1371Y507*
X1390*
X1396Y504*
X1365Y486*
X1399Y448D02*
X1396Y442D01*
X1390Y436*
X1380Y433*
X1371*
X1365Y436*
X1362Y442*
Y448*
X1365Y454*
X1371Y458*
X1377Y454*
X1380Y448*
Y442*
X1377Y436*
X1371Y433*
X1399Y401D02*
Y389D01*
Y395D02*
X1362D01*
X1368Y401*
X1492Y1391D02*
X1454D01*
Y1295*
X1492*
Y1391*
X1488Y1496D02*
X1491Y1499D01*
X1494Y1506*
Y1515*
X1491Y1521*
X1488Y1524*
X1482Y1528*
X1469*
X1463Y1524*
X1460Y1521*
X1457Y1515*
Y1506*
X1460Y1499*
X1463Y1496*
X1494Y1453D02*
Y1478D01*
X1472Y1456*
X1466Y1453*
X1460Y1456*
X1457Y1462*
Y1471*
X1460Y1478*
X1485Y1428D02*
X1478Y1424D01*
X1475Y1418*
Y1412*
X1478Y1406*
X1485Y1403*
X1491Y1406*
X1494Y1412*
Y1418*
X1491Y1424*
X1485Y1428*
X1475*
X1466Y1424*
X1460Y1418*
X1457Y1412*
X1547Y1391D02*
X1509D01*
Y1295*
X1547*
Y1391*
X1543Y1496D02*
X1546Y1499D01*
X1549Y1506*
Y1515*
X1546Y1521*
X1543Y1524*
X1537Y1528*
X1524*
X1518Y1524*
X1515Y1521*
X1512Y1515*
Y1506*
X1515Y1499*
X1518Y1496*
X1549Y1453D02*
Y1478D01*
X1527Y1456*
X1521Y1453*
X1515Y1456*
X1512Y1462*
Y1471*
X1515Y1478*
X1546Y1428D02*
X1549Y1421D01*
Y1412*
X1546Y1406*
X1540Y1403*
X1537*
X1530Y1406*
X1527Y1412*
Y1428*
X1512*
Y1403*
X1602Y1391D02*
X1564D01*
Y1295*
X1602*
Y1391*
X1598Y1496D02*
X1601Y1499D01*
X1604Y1506*
Y1515*
X1601Y1521*
X1598Y1524*
X1592Y1528*
X1579*
X1573Y1524*
X1570Y1521*
X1567Y1515*
Y1506*
X1570Y1499*
X1573Y1496*
X1604Y1453D02*
Y1478D01*
X1582Y1456*
X1576Y1453*
X1570Y1456*
X1567Y1462*
Y1471*
X1570Y1478*
X1604Y1412D02*
X1567D01*
X1592Y1428*
Y1403*
X1630Y964D02*
X1577D01*
Y841*
X1630*
Y964*
X1618Y1086D02*
X1621Y1089D01*
X1624Y1096*
Y1105*
X1621Y1111*
X1618Y1114*
X1612Y1117*
X1599*
X1593Y1114*
X1590Y1111*
X1587Y1105*
Y1096*
X1590Y1089*
X1593Y1086*
X1624Y1061D02*
Y1049D01*
Y1055D02*
X1587D01*
X1593Y1061*
X1624Y1008D02*
X1621Y1002D01*
X1615Y996*
X1605Y993*
X1596*
X1590Y996*
X1587Y1002*
Y1008*
X1590Y1014*
X1596Y1018*
X1602Y1014*
X1605Y1008*
Y1002*
X1602Y996*
X1596Y993*
X1657Y1391D02*
X1619D01*
Y1295*
X1657*
Y1391*
X1662Y561D02*
X1465D01*
Y738*
X1662*
Y561*
X1653Y1496D02*
X1656Y1499D01*
X1659Y1506*
Y1515*
X1656Y1521*
X1653Y1524*
X1647Y1528*
X1634*
X1628Y1524*
X1625Y1521*
X1622Y1515*
Y1506*
X1625Y1499*
X1628Y1496*
X1659Y1453D02*
Y1478D01*
X1637Y1456*
X1631Y1453*
X1625Y1456*
X1622Y1462*
Y1471*
X1625Y1478*
X1656Y1424D02*
X1659Y1418D01*
Y1412*
X1656Y1406*
X1650Y1403*
X1643Y1406*
X1640Y1412*
Y1418*
Y1412D02*
X1637Y1406D01*
X1631Y1403*
X1625Y1406*
X1622Y1412*
Y1418*
X1625Y1424*
X1686Y525D02*
G75*
G02X1682Y518I-2J-4D01*
G01*
G75*
G02X1686Y525I2J4*
G01*
X1719Y193D02*
X1640Y115D01*
X1719Y351D02*
Y193D01*
Y1768D02*
X1640Y1689D01*
X1719Y1926D02*
Y1768D01*
X1744Y788D02*
X1707Y772D01*
X1744Y756*
X1728Y781D02*
Y763D01*
X1744Y738D02*
X1707D01*
Y719*
X1710Y713*
X1713Y709*
X1719Y706*
X1732*
X1738Y709*
X1741Y713*
X1744Y719*
Y738*
Y688D02*
X1707Y663D01*
Y688*
X1741Y634D02*
X1744Y628D01*
Y622*
X1741Y616*
X1735Y613*
X1728Y616*
X1725Y622*
Y628*
Y622D02*
X1722Y616D01*
X1716Y613*
X1710Y616*
X1707Y622*
Y628*
X1710Y634*
X1744Y578D02*
X1741Y572D01*
X1735Y566*
X1725Y563*
X1716*
X1710Y566*
X1707Y572*
Y578*
X1710Y584*
X1716Y588*
X1722Y584*
X1725Y578*
Y572*
X1722Y566*
X1716Y563*
X1725Y528D02*
Y522D01*
X1722Y516*
X1716Y513*
X1710Y516*
X1707Y522*
Y528*
X1710Y534*
X1716Y538*
X1722Y534*
X1725Y528*
X1728Y534*
X1735Y538*
X1741Y534*
X1744Y528*
Y522*
X1741Y516*
X1735Y513*
X1728Y516*
X1725Y522*
D02*
D11*
X1396Y947D02*
Y953D01*
Y950D02*
X1415D01*
X1412Y947*
X1435Y1003D02*
X1454D01*
Y1012*
X1452Y1015*
X1451Y1017*
X1448Y1018*
X1442*
X1438Y1017*
X1437Y1015*
X1435Y1012*
Y1003*
X1440Y1028D02*
X1437Y1029D01*
X1435Y1032*
Y1039*
X1437Y1042*
X1440Y1043*
X1443Y1042*
X1445Y1039*
Y1032*
X1446Y1029*
X1449Y1028*
X1452Y1029*
X1454Y1032*
Y1039*
X1452Y1042*
X1449Y1043*
X1435Y1057D02*
X1437Y1061D01*
X1440Y1064*
X1445Y1065*
X1449*
X1452Y1064*
X1454Y1061*
Y1057*
X1452Y1054*
X1449Y1053*
X1446Y1054*
X1445Y1057*
Y1061*
X1446Y1064*
X1449Y1065*
X1435Y1090D02*
Y1078D01*
X1446Y1089*
X1449Y1090*
X1452Y1089*
X1454Y1086*
Y1081*
X1452Y1078*
X1454Y1103D02*
X1435D01*
Y1118*
X1454Y1128D02*
X1435Y1136D01*
X1454Y1143*
X1435Y1156D02*
Y1162D01*
Y1159D02*
X1454D01*
X1451Y1156*
X1435Y1190D02*
Y1178D01*
X1446Y1189*
X1449Y1190*
X1452Y1189*
X1454Y1186*
Y1181*
X1452Y1178*
X1435Y1206D02*
Y1212D01*
Y1209D02*
X1454D01*
X1451Y1206*
X1435Y1240D02*
Y1228D01*
X1446Y1239*
X1449Y1240*
X1452Y1239*
X1454Y1236*
Y1231*
X1452Y1228*
X1435Y1253D02*
X1454Y1261D01*
X1435Y1268*
X1443Y1256D02*
Y1265D01*
D02*
D107*
X355Y96D02*
X349D01*
X342Y99*
X339Y106*
X342Y112*
X349Y115*
X355*
X362Y112*
X365Y106*
X362Y99*
X355Y96*
X362Y93*
X365Y86*
X362Y80*
X355Y77*
X349*
X342Y80*
X339Y86*
X342Y93*
X349Y96*
X310Y80D02*
X304Y77D01*
X298*
X291Y80*
X288Y86*
Y106*
X291Y112*
X298Y115*
X304*
X310Y112*
X314Y106*
Y86*
X310Y80*
X291Y112*
X365Y360D02*
X339Y399D01*
X365*
X304Y360D02*
X298Y364D01*
X291Y370*
X288Y380*
Y389*
X291Y396*
X298Y399*
X304*
X310Y396*
X314Y389*
X310Y383*
X304Y380*
X298*
X291Y383*
X288Y389*
X355Y1671D02*
X349D01*
X342Y1674*
X339Y1680*
X342Y1687*
X349Y1690*
X355*
X362Y1687*
X365Y1680*
X362Y1674*
X355Y1671*
X362Y1668*
X365Y1661*
X362Y1655*
X355Y1652*
X349*
X342Y1655*
X339Y1661*
X342Y1668*
X349Y1671*
X310Y1655D02*
X304Y1652D01*
X298*
X291Y1655*
X288Y1661*
Y1680*
X291Y1687*
X298Y1690*
X304*
X310Y1687*
X314Y1680*
Y1661*
X310Y1655*
X291Y1687*
X365Y1935D02*
X339Y1974D01*
X365*
X304Y1935D02*
X298Y1938D01*
X291Y1945*
X288Y1954*
Y1964*
X291Y1970*
X298Y1974*
X304*
X310Y1970*
X314Y1964*
X310Y1958*
X304Y1954*
X298*
X291Y1958*
X288Y1964*
X1662Y77D02*
X1688D01*
X1665Y99*
X1662Y106*
X1665Y112*
X1672Y115*
X1681*
X1688Y112*
X1681Y360D02*
X1668D01*
X1675D02*
Y399D01*
X1681Y392*
X1662Y1652D02*
X1688D01*
X1665Y1674*
X1662Y1680*
X1665Y1687*
X1672Y1690*
X1681*
X1688Y1687*
X1681Y1935D02*
X1668D01*
X1675D02*
Y1974D01*
X1681Y1967*
X0Y0D02*
M02*
