%FSLAX23Y23*%
%MOIN*%
G04 EasyPC Gerber Version 17.0 Build 3379 *
%ADD28R,0.06000X0.06000*%
%ADD11C,0.00100*%
%ADD77C,0.00600*%
%ADD78C,0.01200*%
%ADD76C,0.01600*%
%ADD74C,0.03200*%
%ADD24C,0.04724*%
%ADD75C,0.05600*%
%ADD73C,0.08268*%
X0Y0D02*
D02*
D11*
X3Y3D02*
X2241D01*
Y2038*
X3*
Y3*
X67Y1453D02*
G75*
G02X119I26D01*
G01*
G75*
G02X67I-26*
G01*
X107Y1553D02*
G75*
G02X159I26D01*
G01*
G75*
G02X107I-26*
G01*
X122Y968D02*
G75*
G02X174I26D01*
G01*
G75*
G02X122I-26*
G01*
Y1023D02*
G75*
G02X174I26D01*
G01*
G75*
G02X122I-26*
G01*
X132Y1448D02*
G75*
G02X184I26D01*
G01*
G75*
G02X132I-26*
G01*
X142Y1503D02*
G75*
G02X194I26D01*
G01*
G75*
G02X142I-26*
G01*
X157Y1603D02*
G75*
G02X209I26D01*
G01*
G75*
G02X157I-26*
G01*
X237Y1498D02*
G75*
G02X289I26D01*
G01*
G75*
G02X237I-26*
G01*
X312Y1448D02*
G75*
G02X364I26D01*
G01*
G75*
G02X312I-26*
G01*
X317Y527D02*
G75*
G02X369I26D01*
G01*
G75*
G02X317I-26*
G01*
X318Y1165D02*
G75*
G02X267Y1173I-25J7D01*
G01*
G75*
G02X318Y1180I26*
G01*
G75*
G02X366Y1186I25J-7*
G01*
G75*
G02X414Y1173I23J-13*
G01*
G75*
G02X366Y1159I-26*
G01*
G75*
G02X318Y1165I-23J13*
G01*
X368Y311D02*
G75*
G02X301I-34D01*
G01*
G75*
G02X368I34*
G01*
Y1886D02*
G75*
G02X301I-34D01*
G01*
G75*
G02X368I34*
G01*
X382Y538D02*
G75*
G02X434I26D01*
G01*
G75*
G02X382I-26*
G01*
X426Y1258D02*
G75*
G03X448Y1235I28J5D01*
G01*
Y1225*
G75*
G02X416Y1258I5J38*
G01*
X426*
X447Y543D02*
G75*
G02X499I26D01*
G01*
G75*
G02X447I-26*
G01*
X448Y1290D02*
G75*
G03X426Y1268I5J-28D01*
G01*
X416*
G75*
G02X448Y1300I38J-5*
G01*
Y1290*
X457Y1158D02*
G75*
G02X509I26D01*
G01*
G75*
G02X457I-26*
G01*
X458Y1235D02*
G75*
G03X481Y1258I-5J28D01*
G01*
X491*
G75*
G02X458Y1225I-38J5*
G01*
Y1235*
X462Y1403D02*
G75*
G02X514I26D01*
G01*
G75*
G02X462I-26*
G01*
X481Y1268D02*
G75*
G03X458Y1290I-28J-5D01*
G01*
Y1300*
G75*
G02X491Y1268I-5J-38*
G01*
X481*
X512Y543D02*
G75*
G02X564I26D01*
G01*
G75*
G02X512I-26*
G01*
X587Y1433D02*
G75*
G02X639I26D01*
G01*
G75*
G02X587I-26*
G01*
X617Y1163D02*
G75*
G02X607Y1183I17J20D01*
G01*
G75*
G02X659I26*
G01*
G75*
G02X650Y1163I-26*
G01*
G75*
G02X659Y1143I-17J-20*
G01*
G75*
G02X607I-26*
G01*
G75*
G02X617Y1163I26*
G01*
X627Y543D02*
G75*
G02X679I26D01*
G01*
G75*
G02X627I-26*
G01*
X628Y1343D02*
G75*
G03X638Y1332I15J5D01*
G01*
Y1322*
G75*
G02X618Y1343I5J26*
G01*
X628*
X638Y1363D02*
G75*
G03X628Y1353I5J-15D01*
G01*
X618*
G75*
G02X638Y1373I26J-5*
G01*
Y1363*
X648Y1733D02*
G75*
G03X658Y1722I15J5D01*
G01*
Y1712*
G75*
G02X638Y1733I5J26*
G01*
X648*
X648Y1332D02*
G75*
G03X659Y1343I-5J15D01*
G01*
X669*
G75*
G02X648Y1322I-26J5*
G01*
Y1332*
X658Y1753D02*
G75*
G03X648Y1743I5J-15D01*
G01*
X638*
G75*
G02X658Y1763I26J-5*
G01*
Y1753*
X659Y1353D02*
G75*
G03X648Y1363I-15J-5D01*
G01*
Y1373*
G75*
G02X669Y1353I-5J-26*
G01*
X659*
X668Y1722D02*
G75*
G03X679Y1733I-5J15D01*
G01*
X689*
G75*
G02X668Y1712I-26J5*
G01*
Y1722*
X679Y1743D02*
G75*
G03X668Y1753I-15J-5D01*
G01*
Y1763*
G75*
G02X689Y1743I-5J-26*
G01*
X679*
X682Y1018D02*
G75*
G02X734I26D01*
G01*
G75*
G02X682I-26*
G01*
X837Y788D02*
G75*
G02X889I26D01*
G01*
G75*
G02X837I-26*
G01*
X847Y968D02*
G75*
G02X899I26D01*
G01*
G75*
G02X847I-26*
G01*
X852Y733D02*
G75*
G02X904I26D01*
G01*
G75*
G02X852I-26*
G01*
X874Y867D02*
G75*
G02X852Y892I4J26D01*
G01*
G75*
G02X904I26*
G01*
G75*
G02X888Y868I-26*
G01*
G75*
G02X909Y843I-4J-26*
G01*
G75*
G02X857I-26*
G01*
G75*
G02X874Y867I26*
G01*
X896Y492D02*
G75*
G02X948I26D01*
G01*
G75*
G02X896I-26*
G01*
X917Y1518D02*
G75*
G02X969I26D01*
G01*
G75*
G02X917I-26*
G01*
X927Y1014D02*
G75*
G02X979I26D01*
G01*
G75*
G02X927I-26*
G01*
X937Y193D02*
G75*
G02X989I26D01*
G01*
G75*
G02X937I-26*
G01*
Y953D02*
G75*
G02X989I26D01*
G01*
G75*
G02X937I-26*
G01*
X967Y1568D02*
G75*
G02X1019I26D01*
G01*
G75*
G02X967I-26*
G01*
X980Y1507D02*
G75*
G02X1032I26D01*
G01*
G75*
G02X980I-26*
G01*
X988Y479D02*
G75*
G02X1040I26D01*
G01*
G75*
G02X988I-26*
G01*
X1028Y1408D02*
G75*
G02X992Y1433I-9J24D01*
G01*
G75*
G02X1044I26*
G01*
G75*
G02X1039Y1417I-26*
G01*
G75*
G02X1074Y1393I9J-24*
G01*
G75*
G02X1022I-26*
G01*
G75*
G02X1028Y1408I26*
G01*
X1053Y538D02*
G75*
G03X1063Y527I15J5D01*
G01*
Y517*
G75*
G02X1043Y538I5J26*
G01*
X1053*
X1063Y1733D02*
G75*
G03X1073Y1722I15J5D01*
G01*
Y1712*
G75*
G02X1053Y1733I5J26*
G01*
X1063*
X1063Y558D02*
G75*
G03X1053Y548I5J-15D01*
G01*
X1043*
G75*
G02X1063Y568I26J-5*
G01*
Y558*
X1073Y527D02*
G75*
G03X1084Y538I-5J15D01*
G01*
X1094*
G75*
G02X1073Y517I-26J5*
G01*
Y527*
Y1753D02*
G75*
G03X1063Y1743I5J-15D01*
G01*
X1053*
G75*
G02X1073Y1763I26J-5*
G01*
Y1753*
X1083Y1722D02*
G75*
G03X1094Y1733I-5J15D01*
G01*
X1104*
G75*
G02X1083Y1712I-26J5*
G01*
Y1722*
X1084Y548D02*
G75*
G03X1073Y558I-15J-5D01*
G01*
Y568*
G75*
G02X1094Y548I-5J-26*
G01*
X1084*
X1093Y1202D02*
G75*
G03X1103Y1192I15J5D01*
G01*
Y1182*
G75*
G02X1083Y1202I5J26*
G01*
X1093*
X1094Y1743D02*
G75*
G03X1083Y1753I-15J-5D01*
G01*
Y1763*
G75*
G02X1104Y1743I-5J-26*
G01*
X1094*
X1103Y1223D02*
G75*
G03X1093Y1213I5J-15D01*
G01*
X1083*
G75*
G02X1103Y1233I26J-5*
G01*
Y1223*
X1113Y1192D02*
G75*
G03X1124Y1202I-5J15D01*
G01*
X1134*
G75*
G02X1113Y1182I-26J5*
G01*
Y1192*
X1124Y1213D02*
G75*
G03X1113Y1223I-15J-5D01*
G01*
Y1233*
G75*
G02X1134Y1213I-5J-26*
G01*
X1124*
X1138Y1733D02*
G75*
G03X1148Y1722I15J5D01*
G01*
Y1712*
G75*
G02X1128Y1733I5J26*
G01*
X1138*
X1145Y857D02*
G75*
G03X1168Y834I28J5D01*
G01*
Y824*
G75*
G02X1135Y857I5J38*
G01*
X1145*
X1145Y1060D02*
G75*
G02X1132Y1083I13J23D01*
G01*
G75*
G02X1145Y1105I26*
G01*
Y1278*
G75*
G02X1404Y1555I278*
G01*
G75*
G02X1449Y1538I19J-17*
G01*
G75*
G02X1405Y1519I-26*
G01*
G75*
G03X1181Y1278I18J-241*
G01*
Y1095*
G75*
G02X1184Y1083I-23J-12*
G01*
G75*
G02X1181Y1070I-26*
G01*
Y983*
G75*
G03X1260Y901I82*
G01*
G75*
G02X1304Y883I19J-18*
G01*
G75*
G02X1260Y865I-26*
G01*
G75*
G02X1207Y879I4J118*
G01*
G75*
G02X1210Y867I-34J-17*
G01*
X1200*
G75*
G03X1178Y890I-28J-5*
G01*
Y900*
G75*
G02X1180Y899I-5J-38*
G01*
G75*
G02X1145Y983I84J83*
G01*
Y1060*
X1148Y1753D02*
G75*
G03X1138Y1743I5J-15D01*
G01*
X1128*
G75*
G02X1148Y1763I26J-5*
G01*
Y1753*
X1158Y1722D02*
G75*
G03X1169Y1733I-5J15D01*
G01*
X1179*
G75*
G02X1158Y1712I-26J5*
G01*
Y1722*
X1167Y464D02*
G75*
G02X1219I26D01*
G01*
G75*
G02X1167I-26*
G01*
X1168Y890D02*
G75*
G03X1145Y867I5J-28D01*
G01*
X1135*
G75*
G02X1168Y900I38J-5*
G01*
Y890*
X1169Y1743D02*
G75*
G03X1158Y1753I-15J-5D01*
G01*
Y1763*
G75*
G02X1179Y1743I-5J-26*
G01*
X1169*
X1178Y834D02*
G75*
G03X1200Y857I-5J28D01*
G01*
X1210*
G75*
G02X1178Y824I-38J5*
G01*
Y834*
X1257Y1173D02*
G75*
G02X1309I26D01*
G01*
G75*
G02X1257I-26*
G01*
X1264Y1086D02*
G75*
G02X1217Y1103I-20J16D01*
G01*
G75*
G02X1269Y1104I26*
G01*
G75*
G02X1316Y1088I20J-16*
G01*
G75*
G02X1264Y1086I-26*
G01*
X1328Y1028D02*
G75*
G02X1277Y1038I-24J10D01*
G01*
G75*
G02X1328Y1047I26*
G01*
Y1081*
G75*
G02X1332Y1092I16J0*
G01*
X1773Y1533*
Y1608*
G75*
G02X1763Y1628I16J20*
G01*
G75*
G02X1815I26*
G01*
G75*
G02X1805Y1608I-26*
G01*
Y1526*
G75*
G02X1800Y1515I-16J0*
G01*
X1789Y1504*
G75*
G02X1818Y1478I2J-26*
G01*
G75*
G02X1785Y1453I-26*
G01*
G75*
G02X1787Y1443I-24J-10*
G01*
G75*
G02X1735I-26*
G01*
G75*
G02X1736Y1450I26*
G01*
X1360Y1074*
Y890*
G75*
G02X1404Y873I19J-18*
G01*
G75*
G02X1360Y855I-26*
G01*
Y847*
G75*
G02X1390Y821I4J-26*
G01*
G75*
G02X1341Y808I-26*
G01*
G75*
G02X1342Y804I-26J-4*
G01*
G75*
G02X1290I-26*
G01*
G75*
G02X1328Y827I26*
G01*
G75*
G02X1328Y831I15J4*
G01*
Y1028*
X1347Y425D02*
G75*
G02X1399I26D01*
G01*
G75*
G02X1347I-26*
G01*
X1372Y983D02*
G75*
G02X1424I26D01*
G01*
G75*
G02X1372I-26*
G01*
X1388Y1406D02*
G75*
G02X1367Y1432I5J26D01*
G01*
G75*
G02X1419I26*
G01*
G75*
G02X1401Y1408I-26*
G01*
G75*
G02X1423Y1382I-5J-26*
G01*
G75*
G02X1414Y1363I-26*
G01*
G75*
G02X1434Y1338I-6J-25*
G01*
G75*
G02X1382I-26*
G01*
G75*
G02X1391Y1357I26*
G01*
G75*
G02X1371Y1382I6J25*
G01*
G75*
G02X1388Y1406I26*
G01*
X1393Y627D02*
G75*
G03X1404Y617I15J5D01*
G01*
Y607*
G75*
G02X1383Y627I5J26*
G01*
X1393*
X1402Y1838D02*
G75*
G02X1454I26D01*
G01*
G75*
G02X1402I-26*
G01*
X1404Y647D02*
G75*
G03X1393Y637I5J-15D01*
G01*
X1383*
G75*
G02X1404Y658I26J-5*
G01*
Y647*
X1407Y282D02*
G75*
G02X1459I26D01*
G01*
G75*
G02X1407I-26*
G01*
X1409Y750D02*
G75*
G02X1461I26D01*
G01*
G75*
G02X1409I-26*
G01*
X1414Y617D02*
G75*
G03X1424Y627I-5J15D01*
G01*
X1434*
G75*
G02X1414Y607I-26J5*
G01*
Y617*
X1424Y637D02*
G75*
G03X1414Y647I-15J-5D01*
G01*
Y658*
G75*
G02X1434Y637I-5J-26*
G01*
X1424*
X1429Y586D02*
G75*
G02X1481I26D01*
G01*
G75*
G02X1429I-26*
G01*
X1448Y893D02*
G75*
G02X1402Y909I-20J16D01*
G01*
G75*
G02X1448Y925I26*
G01*
X1763*
G75*
G02X1774Y920I0J-16*
G01*
X1851Y843*
G75*
G02X1856Y832I-11J-11*
G01*
Y626*
X1911Y570*
X1974*
Y595*
X2054*
Y515*
X1974*
Y538*
X1905*
G75*
G02X1893Y543I0J16*
G01*
X1828Y608*
G75*
G02X1824Y619I11J11*
G01*
Y825*
X1756Y893*
X1448*
X1456Y663D02*
G75*
G02X1508I26D01*
G01*
G75*
G02X1456I-26*
G01*
X1467Y288D02*
G75*
G02X1519I26D01*
G01*
G75*
G02X1467I-26*
G01*
X1500Y953D02*
G75*
G03X1511Y943I15J5D01*
G01*
Y933*
G75*
G02X1490Y953I5J26*
G01*
X1500*
X1510Y856D02*
G75*
G03X1521Y846I15J5D01*
G01*
Y836*
G75*
G02X1500Y856I5J26*
G01*
X1510*
X1511Y973D02*
G75*
G03X1500Y963I5J-15D01*
G01*
X1490*
G75*
G02X1511Y984I26J-5*
G01*
Y973*
X1521Y876D02*
G75*
G03X1510Y866I5J-15D01*
G01*
X1500*
G75*
G02X1521Y887I26J-5*
G01*
Y876*
Y943D02*
G75*
G03X1531Y953I-5J15D01*
G01*
X1541*
G75*
G02X1521Y933I-26J5*
G01*
Y943*
X1522Y1493D02*
G75*
G02X1574I26D01*
G01*
G75*
G02X1522I-26*
G01*
X1531Y846D02*
G75*
G03X1541Y856I-5J15D01*
G01*
X1551*
G75*
G02X1531Y836I-26J5*
G01*
Y846*
X1531Y963D02*
G75*
G03X1521Y973I-15J-5D01*
G01*
Y984*
G75*
G02X1541Y963I-5J-26*
G01*
X1531*
X1541Y866D02*
G75*
G03X1531Y876I-15J-5D01*
G01*
Y887*
G75*
G02X1551Y866I-5J-26*
G01*
X1541*
X1572Y163D02*
G75*
G02X1624I26D01*
G01*
G75*
G02X1572I-26*
G01*
X1596Y1525D02*
G75*
G02X1648I26D01*
G01*
G75*
G02X1596I-26*
G01*
X1632Y1793D02*
G75*
G02X1684I26D01*
G01*
G75*
G02X1632I-26*
G01*
X1657Y1139D02*
G75*
G02X1709I26D01*
G01*
G75*
G02X1657I-26*
G01*
X1674Y630D02*
G75*
G02X1726I26D01*
G01*
G75*
G02X1674I-26*
G01*
X1682Y1568D02*
G75*
G02X1734I26D01*
G01*
G75*
G02X1682I-26*
G01*
X1684Y526D02*
G75*
G02X1673Y543I14J22D01*
G01*
X1683*
G75*
G03X1694Y533I15J5*
G01*
Y530*
G75*
G02X1704Y529I4J-26*
G01*
Y533*
G75*
G03X1714Y543I-5J15*
G01*
X1724*
G75*
G02X1712Y526I-26J5*
G01*
G75*
G02X1724Y504I-14J-22*
G01*
G75*
G02X1710Y481I-26*
G01*
G75*
G02X1725Y458I-12J-23*
G01*
G75*
G02X1725Y457I-26J0*
G01*
X1727Y459*
Y753*
G75*
G02X1695Y778I-6J25*
G01*
G75*
G02X1747I26*
G01*
G75*
G02X1746Y771I-26*
G01*
X1749Y768*
G75*
G02X1753Y759I-9J-9*
G01*
Y454*
G75*
G02X1749Y445I-13*
G01*
X1725Y421*
G75*
G02X1726Y414I-25J-7*
G01*
G75*
G02X1674I-26*
G01*
G75*
G02X1685Y436I26*
G01*
G75*
G02X1673Y458I13J22*
G01*
G75*
G02X1686Y481I26*
G01*
G75*
G02X1672Y504I12J23*
G01*
G75*
G02X1684Y526I26*
G01*
X1685Y1212D02*
G75*
G02X1737I26D01*
G01*
G75*
G02X1685I-26*
G01*
X1688Y1313D02*
G75*
G03X1698Y1302I15J5D01*
G01*
Y1292*
G75*
G02X1678Y1313I5J26*
G01*
X1688*
X1694Y563D02*
G75*
G03X1683Y553I5J-15D01*
G01*
X1673*
G75*
G02X1694Y574I26J-5*
G01*
Y563*
X1698Y1333D02*
G75*
G03X1688Y1323I5J-15D01*
G01*
X1678*
G75*
G02X1698Y1343I26J-5*
G01*
Y1333*
X1708Y1302D02*
G75*
G03X1719Y1313I-5J15D01*
G01*
X1729*
G75*
G02X1708Y1292I-26J5*
G01*
Y1302*
X1714Y553D02*
G75*
G03X1704Y563I-15J-5D01*
G01*
Y574*
G75*
G02X1724Y553I-5J-26*
G01*
X1714*
X1719Y1323D02*
G75*
G03X1708Y1333I-15J-5D01*
G01*
Y1343*
G75*
G02X1729Y1323I-5J-26*
G01*
X1719*
X1720Y311D02*
G75*
G02X1653I-34D01*
G01*
G75*
G02X1720I34*
G01*
Y1886D02*
G75*
G02X1653I-34D01*
G01*
G75*
G02X1720I34*
G01*
X1742Y1733D02*
G75*
G02X1794I26D01*
G01*
G75*
G02X1742I-26*
G01*
X1759Y734D02*
G75*
G02X1811I26D01*
G01*
G75*
G02X1759I-26*
G01*
X1768Y813D02*
G75*
G03X1778Y802I15J5D01*
G01*
Y792*
G75*
G02X1758Y813I5J26*
G01*
X1768*
X1778Y833D02*
G75*
G03X1768Y823I5J-15D01*
G01*
X1758*
G75*
G02X1778Y843I26J-5*
G01*
Y833*
X1788Y802D02*
G75*
G03X1799Y813I-5J15D01*
G01*
X1809*
G75*
G02X1788Y792I-26J5*
G01*
Y802*
X1799Y823D02*
G75*
G03X1788Y833I-15J-5D01*
G01*
Y843*
G75*
G02X1809Y823I-5J-26*
G01*
X1799*
X1815Y1760D02*
G75*
G02X1891I38D01*
G01*
G75*
G02X1815I-38*
G01*
X1816Y1355D02*
G75*
G02X1892I38D01*
G01*
G75*
G02X1816I-38*
G01*
X1832Y363D02*
G75*
G03X1855Y340I28J5D01*
G01*
Y330*
G75*
G02X1822Y363I5J38*
G01*
X1832*
X1855Y396D02*
G75*
G03X1832Y373I5J-28D01*
G01*
X1822*
G75*
G02X1855Y406I38J-5*
G01*
Y396*
X1862Y1180D02*
G75*
G02X1938I38D01*
G01*
G75*
G02X1862I-38*
G01*
X1865Y340D02*
G75*
G03X1887Y363I-5J28D01*
G01*
X1897*
G75*
G02X1865Y330I-38J5*
G01*
Y340*
X1866Y1043D02*
G75*
G02X1918I26D01*
G01*
G75*
G02X1866I-26*
G01*
X1878Y512D02*
G75*
G02X1930I26D01*
G01*
G75*
G02X1878I-26*
G01*
X1881Y1104D02*
G75*
G02X1933I26D01*
G01*
G75*
G02X1881I-26*
G01*
X1887Y373D02*
G75*
G03X1865Y396I-28J-5D01*
G01*
Y406*
G75*
G02X1897Y373I-5J-38*
G01*
X1887*
X1892Y1898D02*
G75*
G02X1968I38D01*
G01*
G75*
G02X1892I-38*
G01*
X1893Y1548D02*
G75*
G02X1884Y1568I17J20D01*
G01*
G75*
G02X1936I26*
G01*
G75*
G02X1926Y1548I-26*
G01*
G75*
G02X1936Y1528I-17J-20*
G01*
G75*
G02X1884I-26*
G01*
G75*
G02X1893Y1548I26*
G01*
X1902Y1457D02*
G75*
G02X1954I26D01*
G01*
G75*
G02X1902I-26*
G01*
X1907Y684D02*
G75*
G02X1866Y705I-16J21D01*
G01*
G75*
G02X1918I26*
G01*
G75*
G02X1912Y689I-26*
G01*
G75*
G02X1954Y668I16J-21*
G01*
G75*
G02X1902I-26*
G01*
G75*
G02X1907Y684I26*
G01*
X1982Y338D02*
G75*
G03X2005Y316I28J5D01*
G01*
Y306*
G75*
G02X1972Y338I5J38*
G01*
X1982*
X1990Y770D02*
G75*
G02Y873J51D01*
G01*
G75*
G02Y770J-51*
G01*
Y1172D02*
G75*
G02Y1275J51D01*
G01*
G75*
G02Y1172J-51*
G01*
X2001Y1372D02*
G75*
G02X2053I26D01*
G01*
G75*
G02X2001I-26*
G01*
X2002Y1534D02*
Y1782D01*
Y1865*
G75*
G02X1982Y1898I18J33*
G01*
G75*
G02X2058I38*
G01*
G75*
G02X2056Y1887I-38J0*
G01*
X2131Y1812*
G75*
G02X2137Y1799I-13J-13*
G01*
Y717*
G75*
G02X2131Y704I-18*
G01*
X2069Y642*
G75*
G02X2057Y637I-13J13*
G01*
X2054*
Y615*
X1974*
Y695*
X2054*
Y677*
X2101Y724*
Y1792*
X2038Y1855*
Y1782*
Y1598*
G75*
G02X2076Y1575I12J-23*
G01*
G75*
G02X2038Y1552I-26*
G01*
Y1534*
G75*
G02X2046Y1515I-18J-19*
G01*
G75*
G02X1994I-26*
G01*
G75*
G02X2002Y1534I26*
G01*
X2005Y371D02*
G75*
G03X1982Y348I5J-28D01*
G01*
X1972*
G75*
G02X2005Y381I38J-5*
G01*
Y371*
X2015Y316D02*
G75*
G03X2037Y338I-5J28D01*
G01*
X2047*
G75*
G02X2015Y306I-38J5*
G01*
Y316*
X2037Y348D02*
G75*
G03X2015Y371I-28J-5D01*
G01*
Y381*
G75*
G02X2047Y348I-5J-38*
G01*
X2037*
X2039Y736D02*
G75*
G02X2091I26D01*
G01*
G75*
G02X2039I-26*
G01*
X3Y1453D02*
G36*
Y1403D01*
X462*
G75*
G02X514I26*
G01*
X1024*
G75*
G02X1028Y1408I24J-10*
G01*
G75*
G02X992Y1433I-9J24*
G01*
G75*
G02X1002Y1453I26*
G01*
X630*
G75*
G02X639Y1433I-17J-20*
G01*
G75*
G02X587I-26*
G01*
G75*
G02X597Y1453I26*
G01*
X364*
G75*
G02X364Y1448I-26J-5*
G01*
G75*
G02X312I-26*
G01*
G75*
G02X313Y1453I26J0*
G01*
X184*
G75*
G02X184Y1448I-26J-5*
G01*
G75*
G02X132I-26*
G01*
G75*
G02X133Y1453I26J0*
G01*
X119*
G75*
G02X67I-26*
G01*
X3*
G37*
X67D02*
G36*
G75*
G02X119I26D01*
G01*
X133*
G75*
G02X184I26J-5*
G01*
X313*
G75*
G02X364I26J-5*
G01*
X597*
G75*
G02X630I17J-20*
G01*
X1002*
G75*
G02X1035I17J-20*
G01*
X1207*
G75*
G02X1260Y1503I216J-175*
G01*
X1031*
G75*
G02X980I-26J5*
G01*
X965*
G75*
G02X922I-21J15*
G01*
X289*
G75*
G02X289Y1498I-26J-5*
G01*
G75*
G02X237I-26*
G01*
G75*
G02X238Y1503I26J0*
G01*
X194*
G75*
G02X142I-26*
G01*
X3*
Y1453*
X67*
G37*
X1035D02*
G36*
G75*
G02X1044Y1433I-17J-20D01*
G01*
G75*
G02X1039Y1417I-26*
G01*
G75*
G02X1072Y1403I9J-24*
G01*
X1175*
G75*
G02X1207Y1453I248J-125*
G01*
X1035*
G37*
X1256D02*
G36*
G75*
G03X1216Y1403I167J-175D01*
G01*
X1381*
G75*
G02X1388Y1406I16J-20*
G01*
G75*
G02X1367Y1432I5J26*
G01*
G75*
G02X1377Y1453I26*
G01*
X1256*
G37*
X1377D02*
G36*
G75*
G02X1409I16J-20D01*
G01*
X1692*
X1742Y1503*
X1635*
G75*
G02X1609I-13J23*
G01*
X1572*
G75*
G02X1574Y1493I-24J-10*
G01*
G75*
G02X1522I-26*
G01*
G75*
G02X1524Y1503I26*
G01*
X1334*
G75*
G03X1256Y1453I89J-225*
G01*
X1377*
G37*
X1409D02*
G36*
G75*
G02X1419Y1432I-16J-20D01*
G01*
G75*
G02X1401Y1408I-26*
G01*
G75*
G02X1413Y1403I-5J-26*
G01*
X1642*
X1692Y1453*
X1409*
G37*
X1796D02*
G36*
G75*
G02X1785Y1453I-5J26D01*
G01*
G75*
G02X1787Y1443I-24J-10*
G01*
G75*
G02X1735I-26*
G01*
G75*
G02X1736Y1450I26*
G01*
X1688Y1403*
X2101*
Y1453*
X1953*
G75*
G02X1902I-26J5*
G01*
X1796*
G37*
X1902D02*
G36*
G75*
G02X1902Y1457I26J5D01*
G01*
G75*
G02X1954I26*
G01*
G75*
G02X1953Y1453I-26J0*
G01*
X2101*
Y1792*
X2038Y1855*
Y1598*
G75*
G02X2076Y1575I12J-23*
G01*
G75*
G02X2038Y1552I-26*
G01*
Y1534*
G75*
G02X2046Y1515I-18J-19*
G01*
G75*
G02X1997Y1503I-26*
G01*
X1915*
G75*
G02X1905I-5J26*
G01*
X1800*
G75*
G02X1818Y1478I-9J-24*
G01*
G75*
G02X1796Y1453I-26*
G01*
X1902*
G37*
X2137D02*
G36*
Y1403D01*
X2241*
Y1453*
X2137*
G37*
X2241D02*
G36*
Y1503D01*
X2137*
Y1453*
X2241*
G37*
X3Y1553D02*
G36*
Y1503D01*
X142*
G75*
G02X194I26*
G01*
X238*
G75*
G02X289I26J-5*
G01*
X922*
G75*
G02X917Y1518I21J15*
G01*
G75*
G02X969I26*
G01*
G75*
G02X965Y1503I-26*
G01*
X980*
G75*
G02X980Y1507I26J5*
G01*
G75*
G02X1032I26*
G01*
G75*
G02X1031Y1503I-26J0*
G01*
X1260*
G75*
G02X1383Y1553I163J-225*
G01*
X1015*
G75*
G02X972I-21J15*
G01*
X159*
G75*
G02X107I-26*
G01*
X3*
G37*
X107D02*
G36*
G75*
G02X159I26D01*
G01*
X972*
G75*
G02X967Y1568I21J15*
G01*
G75*
G02X1019I26*
G01*
G75*
G02X1015Y1553I-26*
G01*
X1383*
G75*
G02X1404Y1555I41J-275*
G01*
G75*
G02X1445Y1553I19J-17*
G01*
X1687*
G75*
G02X1682Y1568I21J15*
G01*
G75*
G02X1734I26*
G01*
G75*
G02X1730Y1553I-26*
G01*
X1773*
Y1603*
X209*
G75*
G02X157I-26*
G01*
X3*
Y1553*
X107*
G37*
X1445D02*
G36*
G75*
G02X1449Y1538I-21J-15D01*
G01*
G75*
G02X1405Y1519I-26*
G01*
G75*
G03X1334Y1503I18J-241*
G01*
X1524*
G75*
G02X1572I24J-10*
G01*
X1609*
G75*
G02X1596Y1525I13J23*
G01*
G75*
G02X1648I26*
G01*
G75*
G02X1635Y1503I-26*
G01*
X1742*
X1773Y1533*
Y1553*
X1730*
G75*
G02X1687I-21J15*
G01*
X1445*
G37*
X1805D02*
G36*
Y1526D01*
G75*
G02X1800Y1515I-16J0*
G01*
X1789Y1504*
G75*
G02X1800Y1503I2J-26*
G01*
X1905*
G75*
G02X1884Y1528I5J26*
G01*
G75*
G02X1893Y1548I26*
G01*
G75*
G02X1889Y1553I17J20*
G01*
X1805*
G37*
X1889D02*
G36*
G75*
G02X1884Y1568I21J16D01*
G01*
G75*
G02X1936I26*
G01*
G75*
G02X1930Y1553I-26J0*
G01*
X2002*
Y1603*
X1805*
Y1553*
X1889*
G37*
X1930D02*
G36*
G75*
G02X1926Y1548I-21J16D01*
G01*
G75*
G02X1936Y1528I-17J-20*
G01*
G75*
G02X1915Y1503I-26*
G01*
X1997*
G75*
G02X1994Y1515I23J13*
G01*
G75*
G02X2002Y1534I26*
G01*
Y1553*
X1930*
G37*
X2137D02*
G36*
Y1503D01*
X2241*
Y1553*
X2137*
G37*
X2241D02*
G36*
Y1603D01*
X2137*
Y1553*
X2241*
G37*
X3Y968D02*
G36*
Y943D01*
X140*
G75*
G02X122Y968I8J25*
G01*
X3*
G37*
X122D02*
G36*
G75*
G02X174I26D01*
G01*
X847*
G75*
G02X899I26*
G01*
X942*
G75*
G02X985I21J-15*
G01*
X1146*
G75*
G02X1145Y983I117J15*
G01*
Y1023*
X977*
G75*
G02X979Y1014I-25J-8*
G01*
G75*
G02X927I-26*
G01*
G75*
G02X928Y1023I26J0*
G01*
X734*
G75*
G02X734Y1018I-26J-5*
G01*
G75*
G02X682I-26*
G01*
G75*
G02X683Y1023I26J0*
G01*
X174*
G75*
G02X122I-26*
G01*
X3*
Y968*
X122*
G37*
X174D02*
G36*
G75*
G02X157Y943I-26D01*
G01*
X865*
G75*
G02X847Y968I8J25*
G01*
X174*
G37*
X899D02*
G36*
G75*
G02X882Y943I-26D01*
G01*
X939*
G75*
G02X937Y953I24J10*
G01*
G75*
G02X942Y968I26*
G01*
X899*
G37*
X985D02*
G36*
G75*
G02X989Y953I-21J-15D01*
G01*
G75*
G02X988Y943I-26J0*
G01*
X1152*
G75*
G02X1146Y968I111J40*
G01*
X985*
G37*
X1183D02*
G36*
G75*
G03X1192Y943I81J15D01*
G01*
X1328*
Y968*
X1183*
G37*
X1328D02*
G36*
Y1028D01*
G75*
G02X1282Y1023I-24J10*
G01*
X1181*
Y983*
G75*
G03X1183Y968I82J0*
G01*
X1328*
G37*
X1360D02*
G36*
Y943D01*
X1495*
G75*
G02X1490Y953I21J15*
G01*
X1500*
G75*
G03X1511Y943I15J5*
G01*
Y943*
X1521*
Y943*
G75*
G03X1531Y953I-5J15*
G01*
X1541*
G75*
G02X1537Y943I-26J5*
G01*
X2101*
Y968*
X1540*
G75*
G02X1541Y963I-24J-9*
G01*
X1531*
G75*
G03X1529Y968I-15J-5*
G01*
X1503*
G75*
G03X1500Y963I13J-9*
G01*
X1490*
G75*
G02X1491Y968I26J-5*
G01*
X1420*
G75*
G02X1377I-21J15*
G01*
X1360*
G37*
X1377D02*
G36*
G75*
G02X1372Y983I21J15D01*
G01*
G75*
G02X1424I26*
G01*
G75*
G02X1420Y968I-26*
G01*
X1491*
G75*
G02X1511Y984I24J-9*
G01*
Y973*
G75*
G03X1503Y968I5J-15*
G01*
X1529*
G75*
G03X1521Y973I-13J-9*
G01*
Y984*
G75*
G02X1540Y968I-5J-26*
G01*
X2101*
Y1023*
X1908*
G75*
G02X1876I-16J21*
G01*
X1360*
Y968*
X1377*
G37*
X2137D02*
G36*
Y943D01*
X2241*
Y968*
X2137*
G37*
X2241D02*
G36*
Y1023D01*
X2137*
Y968*
X2241*
G37*
X122Y1023D02*
G36*
G75*
G02X174I26D01*
G01*
X683*
G75*
G02X734I26J-5*
G01*
X928*
G75*
G02X977I25J-8*
G01*
X1145*
Y1060*
G75*
G02X1136Y1095I13J23*
G01*
X3*
Y1023*
X122*
G37*
X1282D02*
G36*
G75*
G02X1277Y1038I21J15D01*
G01*
G75*
G02X1328Y1047I26*
G01*
Y1081*
G75*
G02X1332Y1092I16J0*
G01*
X1335Y1095*
X1315*
G75*
G02X1316Y1088I-25J-7*
G01*
G75*
G02X1264Y1086I-26*
G01*
G75*
G02X1219Y1095I-20J16*
G01*
X1181*
Y1095*
G75*
G02Y1070I-23J-12*
G01*
Y1023*
X1282*
G37*
X1876D02*
G36*
G75*
G02X1866Y1043I16J21D01*
G01*
G75*
G02X1918I26*
G01*
G75*
G02X1908Y1023I-26*
G01*
X2101*
Y1095*
X1931*
G75*
G02X1882I-24J9*
G01*
X1380*
X1360Y1074*
Y1023*
X1876*
G37*
X2241D02*
G36*
Y1095D01*
X2137*
Y1023*
X2241*
G37*
X157Y1603D02*
G36*
G75*
G02X209I26D01*
G01*
X1773*
Y1608*
G75*
G02X1763Y1628I16J20*
G01*
G75*
G02X1815I26*
G01*
G75*
G02X1805Y1608I-26*
G01*
Y1603*
X2002*
Y1722*
X1857*
G75*
G02X1849I-4J38*
G01*
X1792*
G75*
G02X1745I-24J10*
G01*
X1175*
G75*
G02X1158Y1712I-21J15*
G01*
Y1722*
X1148*
Y1712*
G75*
G02X1132Y1722I5J26*
G01*
X1100*
G75*
G02X1083Y1712I-21J15*
G01*
Y1722*
X1073*
Y1712*
G75*
G02X1057Y1722I5J26*
G01*
X685*
G75*
G02X668Y1712I-21J15*
G01*
Y1722*
X658*
Y1712*
G75*
G02X642Y1722I5J26*
G01*
X3*
Y1603*
X157*
G37*
X2241D02*
G36*
Y1722D01*
X2137*
Y1603*
X2241*
G37*
X3Y527D02*
G36*
Y492D01*
X896*
G75*
G02X948I26*
G01*
X991*
G75*
G02X1036I23J-13*
G01*
X1675*
G75*
G02X1684Y526I23J12*
G01*
G75*
G02X1683Y527I14J22*
G01*
X1090*
G75*
G02X1073Y517I-21J15*
G01*
Y527*
G75*
G03X1074Y527I-5J15*
G01*
X1063*
X1063Y517*
G75*
G02X1047Y527I5J26*
G01*
X675*
G75*
G02X632I-21J15*
G01*
X560*
G75*
G02X517I-21J15*
G01*
X495*
G75*
G02X452I-21J15*
G01*
X432*
G75*
G02X384I-24J10*
G01*
X369*
G75*
G02X317I-26*
G01*
X3*
G37*
X317D02*
G36*
G75*
G02X369I26D01*
G01*
X384*
G75*
G02X382Y538I24J10*
G01*
G75*
G02X392Y558I26*
G01*
X3*
Y527*
X317*
G37*
X452D02*
G36*
G75*
G02X447Y543I21J15D01*
G01*
G75*
G02X452Y558I26*
G01*
X425*
G75*
G02X434Y538I-16J-20*
G01*
G75*
G02X432Y527I-26*
G01*
X452*
G37*
X517D02*
G36*
G75*
G02X512Y543I21J15D01*
G01*
G75*
G02X517Y558I26*
G01*
X495*
G75*
G02X499Y543I-21J-15*
G01*
G75*
G02X495Y527I-26*
G01*
X517*
G37*
X632D02*
G36*
G75*
G02X627Y543I21J15D01*
G01*
G75*
G02X632Y558I26*
G01*
X560*
G75*
G02X564Y543I-21J-15*
G01*
G75*
G02X560Y527I-26*
G01*
X632*
G37*
X1047D02*
G36*
G75*
G02X1043Y538I21J15D01*
G01*
X1053*
G75*
G03X1063Y527I15J5*
G01*
X1074*
G75*
G03X1084Y538I-6J15*
G01*
X1094*
G75*
G02X1090Y527I-26J5*
G01*
X1683*
G75*
G02X1673Y543I16J21*
G01*
X1683*
G75*
G03X1694Y533I15J5*
G01*
Y530*
G75*
G02X1704Y529I4J-26*
G01*
Y533*
G75*
G03X1714Y543I-5J15*
G01*
X1724*
G75*
G02X1712Y526I-26J5*
G01*
G75*
G02X1710Y481I-14J-22*
G01*
G75*
G02X1725Y458I-12J-23*
G01*
G75*
G02X1725Y457I-26J0*
G01*
X1727Y459*
Y558*
X1723*
G75*
G02X1724Y553I-24J-10*
G01*
X1714*
G75*
G03X1711Y558I-15J-5*
G01*
X1686*
G75*
G03X1683Y553I13J-10*
G01*
X1673*
G75*
G02X1675Y558I26J-5*
G01*
X1090*
G75*
G02X1094Y548I-21J-15*
G01*
X1084*
G75*
G03X1073Y558I-15J-5*
G01*
Y558*
X1063*
Y558*
G75*
G03X1053Y548I5J-15*
G01*
X1043*
G75*
G02X1047Y558I26J-5*
G01*
X675*
G75*
G02X679Y543I-21J-15*
G01*
G75*
G02X675Y527I-26*
G01*
X1047*
G37*
X1753D02*
G36*
Y492D01*
X1887*
G75*
G02X1878Y512I17J20*
G01*
G75*
G02X1883Y527I26*
G01*
X1753*
G37*
X1883D02*
G36*
G75*
G02X1925I21J-15D01*
G01*
X1974*
Y538*
X1905*
G75*
G02X1893Y543I0J16*
G01*
X1878Y558*
X1753*
Y527*
X1883*
G37*
X1925D02*
G36*
G75*
G02X1930Y512I-21J-15D01*
G01*
G75*
G02X1920Y492I-26*
G01*
X2241*
Y527*
X2054*
Y515*
X1974*
Y527*
X1925*
G37*
X2241D02*
G36*
Y558D01*
X2054*
Y527*
X2241*
G37*
X3Y1173D02*
G36*
Y1139D01*
X465*
G75*
G02X457Y1158I18J18*
G01*
G75*
G02X462Y1173I26*
G01*
X414*
G75*
G02X366Y1159I-26*
G01*
G75*
G02X318Y1165I-23J13*
G01*
G75*
G02X267Y1173I-25J7*
G01*
X3*
G37*
X267D02*
G36*
G75*
G02X277Y1192I26D01*
G01*
X3*
Y1173*
X267*
G37*
X462D02*
G36*
G75*
G02X505I21J-15D01*
G01*
X609*
G75*
G02X607Y1183I24J10*
G01*
G75*
G02X609Y1192I26*
G01*
X405*
G75*
G02X414Y1173I-17J-20*
G01*
X462*
G37*
X505D02*
G36*
G75*
G02X509Y1158I-21J-15D01*
G01*
G75*
G02X502Y1139I-26*
G01*
X608*
G75*
G02X607Y1143I26J3*
G01*
G75*
G02X617Y1163I26*
G01*
G75*
G02X609Y1173I17J20*
G01*
X505*
G37*
X657D02*
G36*
G75*
G02X650Y1163I-24J10D01*
G01*
G75*
G02X659Y1143I-17J-20*
G01*
G75*
G02X659Y1139I-26J0*
G01*
X1145*
Y1173*
X657*
G37*
X1145D02*
G36*
Y1192D01*
X1130*
G75*
G02X1113Y1182I-21J15*
G01*
Y1192*
X1103*
Y1182*
G75*
G02X1087Y1192I5J26*
G01*
X658*
G75*
G02X659Y1183I-24J-10*
G01*
G75*
G02X657Y1173I-26*
G01*
X1145*
G37*
X1181D02*
G36*
Y1139D01*
X1379*
X1412Y1173*
X1309*
G75*
G02X1257I-26*
G01*
X1181*
G37*
X1257D02*
G36*
G75*
G02X1267Y1192I26D01*
G01*
X1181*
Y1173*
X1257*
G37*
X1412D02*
G36*
X1432Y1192D01*
X1300*
G75*
G02X1309Y1173I-17J-20*
G01*
X1412*
G37*
X1458D02*
G36*
X1424Y1139D01*
X1657*
G75*
G02X1709I26*
G01*
X2101*
Y1173*
X1998*
G75*
G02X1990Y1172I-8J51*
G01*
G75*
G02X1982Y1173J51*
G01*
X1937*
G75*
G02X1862I-37J8*
G01*
X1458*
G37*
X1862D02*
G36*
G75*
G02X1862Y1180I37J8D01*
G01*
G75*
G02X1864Y1192I38J0*
G01*
X1727*
G75*
G02X1694I-17J20*
G01*
X1477*
X1458Y1173*
X1862*
G37*
X1982D02*
G36*
G75*
G02X1949Y1192I8J51D01*
G01*
X1936*
G75*
G02X1938Y1180I-36J-12*
G01*
G75*
G02X1937Y1173I-38J0*
G01*
X1982*
G37*
X2101D02*
G36*
Y1192D01*
X2031*
G75*
G02X1998Y1173I-41J31*
G01*
X2101*
G37*
X2137D02*
G36*
Y1139D01*
X2241*
Y1173*
X2137*
G37*
X2241D02*
G36*
Y1192D01*
X2137*
Y1173*
X2241*
G37*
X3Y311D02*
G36*
Y282D01*
X317*
G75*
G02X301Y311I17J29*
G01*
X3*
G37*
X301D02*
G36*
G75*
G02X368I34D01*
G01*
X1483*
G75*
G02X1504I10J-24*
G01*
X1653*
G75*
G02X1720I34*
G01*
X1989*
G75*
G02X1972Y338I20J32*
G01*
X1982*
G75*
G03X2005Y316I28J5*
G01*
Y311*
X2015*
Y316*
G75*
G03X2037Y338I-5J28*
G01*
X2047*
G75*
G02X2030Y311I-38J5*
G01*
X2241*
Y347*
X1891*
G75*
G02X1865Y330I-31J21*
G01*
Y340*
G75*
G03X1878Y347I-5J28*
G01*
X1841*
G75*
G03X1855Y340I18J21*
G01*
Y330*
G75*
G02X1828Y347I5J38*
G01*
X3*
Y311*
X301*
G37*
X368D02*
G36*
G75*
G02X352Y282I-34D01*
G01*
X1407*
G75*
G02X1459I26*
G01*
X1468*
G75*
G02X1467Y288I26J5*
G01*
G75*
G02X1483Y311I26*
G01*
X368*
G37*
X1504D02*
G36*
G75*
G02X1519Y288I-10J-24D01*
G01*
G75*
G02X1519Y282I-26J0*
G01*
X1669*
G75*
G02X1653Y311I17J29*
G01*
X1504*
G37*
X1720D02*
G36*
G75*
G02X1704Y282I-34D01*
G01*
X2241*
Y311*
X2030*
G75*
G02X2015Y306I-20J32*
G01*
Y311*
X2005*
Y306*
G75*
G02X1989Y311I5J38*
G01*
X1720*
G37*
X3Y1886D02*
G36*
Y1838D01*
X1402*
G75*
G02X1454I26*
G01*
X2002*
Y1865*
G75*
G02X1984Y1886I18J33*
G01*
X1966*
G75*
G02X1894I-36J12*
G01*
X1720*
G75*
G02X1653I-34*
G01*
X368*
G75*
G02X301I-34*
G01*
X3*
G37*
X301D02*
G36*
G75*
G02X368I34D01*
G01*
X1653*
G75*
G02X1720I34*
G01*
X1894*
G75*
G02X1892Y1898I36J12*
G01*
G75*
G02X1968I38*
G01*
G75*
G02X1966Y1886I-38*
G01*
X1984*
G75*
G02X1982Y1898I36J12*
G01*
G75*
G02X2058I38*
G01*
G75*
G02X2056Y1887I-38J0*
G01*
X2057Y1886*
X2241*
Y2038*
X3*
Y1886*
X301*
G37*
X2057D02*
G36*
X2106Y1838D01*
X2241*
Y1886*
X2057*
G37*
X3Y1241D02*
G36*
Y1223D01*
X1087*
G75*
G02X1103Y1233I21J-15*
G01*
Y1223*
X1113*
Y1233*
G75*
G02X1130Y1223I-5J-26*
G01*
X1145*
Y1241*
X485*
G75*
G02X458Y1225I-31J21*
G01*
Y1235*
G75*
G03X472Y1241I-5J28*
G01*
X435*
G75*
G03X448Y1235I18J21*
G01*
Y1225*
G75*
G02X422Y1241I5J38*
G01*
X3*
G37*
X422D02*
G36*
G75*
G02X416Y1258I31J21D01*
G01*
X426*
G75*
G03X435Y1241I28J5*
G01*
X472*
G75*
G03X481Y1258I-18J21*
G01*
X491*
G75*
G02X485Y1241I-38J5*
G01*
X1145*
Y1278*
G75*
G02X1146Y1284I278J0*
G01*
X485*
G75*
G02X491Y1268I-31J-21*
G01*
X481*
G75*
G03X472Y1284I-28J-5*
G01*
X435*
G75*
G03X426Y1268I18J-21*
G01*
X416*
G75*
G02X422Y1284I38J-5*
G01*
X3*
Y1241*
X422*
G37*
X1181D02*
G36*
Y1223D01*
X1463*
X1481Y1241*
X1181*
G37*
X1481D02*
G36*
X1524Y1284D01*
X1182*
G75*
G03X1181Y1278I242J-6*
G01*
Y1241*
X1481*
G37*
X1526D02*
G36*
X1508Y1223D01*
X1687*
G75*
G02X1734I24J-11*
G01*
X1938*
G75*
G02X1942Y1241I51J0*
G01*
X1526*
G37*
X1942D02*
G36*
G75*
G02X1990Y1275I48J-18D01*
G01*
G75*
G02X2038Y1241J-51*
G01*
X2101*
Y1284*
X1569*
X1526Y1241*
X1942*
G37*
X2038D02*
G36*
G75*
G02X2041Y1223I-48J-18D01*
G01*
X2101*
Y1241*
X2038*
G37*
X2137D02*
G36*
Y1223D01*
X2241*
Y1241*
X2137*
G37*
X2241D02*
G36*
Y1284D01*
X2137*
Y1241*
X2241*
G37*
X422Y1284D02*
G36*
G75*
G02X448Y1300I31J-21D01*
G01*
Y1290*
G75*
G03X435Y1284I5J-28*
G01*
X472*
G75*
G03X458Y1290I-18J-21*
G01*
Y1300*
G75*
G02X485Y1284I-5J-38*
G01*
X1146*
G75*
G02X1147Y1302I278J-6*
G01*
X3*
Y1284*
X422*
G37*
X1524D02*
G36*
X1542Y1302D01*
X1183*
G75*
G03X1182Y1284I241J-25*
G01*
X1524*
G37*
X2101D02*
G36*
Y1302D01*
X1725*
G75*
G02X1708Y1292I-21J15*
G01*
Y1302*
X1698*
Y1292*
G75*
G02X1682Y1302I5J26*
G01*
X1587*
X1569Y1284*
X2101*
G37*
X2241D02*
G36*
Y1302D01*
X2137*
Y1284*
X2241*
G37*
X3Y1403D02*
G36*
Y1363D01*
X622*
G75*
G02X638Y1373I21J-15*
G01*
Y1363*
X648*
Y1373*
G75*
G02X665Y1363I-5J-26*
G01*
X1159*
G75*
G02X1175Y1403I265J-85*
G01*
X1072*
G75*
G02X1074Y1393I-24J-10*
G01*
G75*
G02X1022I-26*
G01*
G75*
G02X1024Y1403I26*
G01*
X514*
G75*
G02X462I-26*
G01*
X3*
G37*
X1216D02*
G36*
G75*
G03X1197Y1363I207J-125D01*
G01*
X1379*
G75*
G02X1381Y1403I17J19*
G01*
X1216*
G37*
X1413D02*
G36*
G75*
G02X1414Y1363I-16J-20D01*
G01*
X1415Y1363*
X1603*
X1642Y1403*
X1413*
G37*
X1688D02*
G36*
X1648Y1363D01*
X1816*
G75*
G02X1891I37J-8*
G01*
X2002*
G75*
G02X2001Y1372I24J9*
G01*
G75*
G02X2053I26*
G01*
G75*
G02X2051Y1363I-26*
G01*
X2101*
Y1403*
X1688*
G37*
X2137D02*
G36*
Y1363D01*
X2241*
Y1403*
X2137*
G37*
X3Y1332D02*
G36*
Y1302D01*
X1147*
G75*
G02X1151Y1332I277J-25*
G01*
X665*
G75*
G02X648Y1322I-21J15*
G01*
Y1332*
X638*
Y1322*
G75*
G02X622Y1332I5J26*
G01*
X3*
G37*
X622D02*
G36*
G75*
G02X618Y1343I21J15D01*
G01*
X628*
G75*
G03X638Y1332I15J5*
G01*
Y1332*
X648*
Y1332*
G75*
G03X659Y1343I-5J15*
G01*
X669*
G75*
G02X665Y1332I-26J5*
G01*
X1151*
G75*
G02X1159Y1363I273J-55*
G01*
X665*
G75*
G02X669Y1353I-21J-15*
G01*
X659*
G75*
G03X648Y1363I-15J-5*
G01*
Y1363*
X638*
Y1363*
G75*
G03X628Y1353I5J-15*
G01*
X618*
G75*
G02X622Y1363I26J-5*
G01*
X3*
Y1332*
X622*
G37*
X1188D02*
G36*
G75*
G03X1183Y1302I236J-55D01*
G01*
X1542*
X1572Y1332*
X1434*
G75*
G02X1383I-25J5*
G01*
X1188*
G37*
X1383D02*
G36*
G75*
G02X1382Y1338I25J5D01*
G01*
G75*
G02X1391Y1357I26*
G01*
G75*
G02X1379Y1363I6J25*
G01*
X1197*
G75*
G03X1188Y1332I227J-85*
G01*
X1383*
G37*
X1572D02*
G36*
X1603Y1363D01*
X1415*
G75*
G02X1434Y1338I-6J-25*
G01*
G75*
G02X1434Y1332I-26J0*
G01*
X1572*
G37*
X1617D02*
G36*
X1587Y1302D01*
X1682*
G75*
G02X1678Y1313I21J15*
G01*
X1688*
G75*
G03X1698Y1302I15J5*
G01*
Y1302*
X1708*
Y1302*
G75*
G03X1719Y1313I-5J15*
G01*
X1729*
G75*
G02X1725Y1302I-26J5*
G01*
X2101*
Y1332*
X1884*
G75*
G02X1823I-30J23*
G01*
X1725*
G75*
G02X1729Y1323I-21J-15*
G01*
X1719*
G75*
G03X1710Y1332I-15J-5*
G01*
X1697*
G75*
G03X1688Y1323I6J-15*
G01*
X1678*
G75*
G02X1682Y1332I26J-5*
G01*
X1617*
G37*
X1682D02*
G36*
G75*
G02X1698Y1343I21J-15D01*
G01*
Y1333*
G75*
G03X1697Y1332I5J-15*
G01*
X1710*
G75*
G03X1708Y1333I-6J-15*
G01*
Y1343*
G75*
G02X1725Y1332I-5J-26*
G01*
X1823*
G75*
G02X1816Y1355I30J23*
G01*
G75*
G02X1816Y1363I38J0*
G01*
X1648*
X1617Y1332*
X1682*
G37*
X2101D02*
G36*
Y1363D01*
X2051*
G75*
G02X2002I-24J9*
G01*
X1891*
G75*
G02X1892Y1355I-37J-8*
G01*
G75*
G02X1884Y1332I-38J0*
G01*
X2101*
G37*
X2137D02*
G36*
Y1302D01*
X2241*
Y1332*
X2137*
G37*
X2241D02*
G36*
Y1363D01*
X2137*
Y1332*
X2241*
G37*
X642Y1722D02*
G36*
G75*
G02X638Y1733I21J15D01*
G01*
X648*
G75*
G03X658Y1722I15J5*
G01*
Y1722*
X668*
Y1722*
G75*
G03X679Y1733I-5J15*
G01*
X689*
G75*
G02X685Y1722I-26J5*
G01*
X1057*
G75*
G02X1053Y1733I21J15*
G01*
X1063*
G75*
G03X1073Y1722I15J5*
G01*
Y1722*
X1083*
Y1722*
G75*
G03X1094Y1733I-5J15*
G01*
X1104*
G75*
G02X1100Y1722I-26J5*
G01*
X1132*
G75*
G02X1128Y1733I21J15*
G01*
X1138*
G75*
G03X1148Y1722I15J5*
G01*
Y1722*
X1158*
Y1722*
G75*
G03X1169Y1733I-5J15*
G01*
X1179*
G75*
G02X1175Y1722I-26J5*
G01*
X1745*
G75*
G02X1742Y1733I24J10*
G01*
G75*
G02X1752Y1753I26*
G01*
X1175*
G75*
G02X1179Y1743I-21J-15*
G01*
X1169*
G75*
G03X1158Y1753I-15J-5*
G01*
Y1753*
X1148*
Y1753*
G75*
G03X1138Y1743I5J-15*
G01*
X1128*
G75*
G02X1132Y1753I26J-5*
G01*
X1100*
G75*
G02X1104Y1743I-21J-15*
G01*
X1094*
G75*
G03X1083Y1753I-15J-5*
G01*
Y1753*
X1073*
Y1753*
G75*
G03X1063Y1743I5J-15*
G01*
X1053*
G75*
G02X1057Y1753I26J-5*
G01*
X685*
G75*
G02X689Y1743I-21J-15*
G01*
X679*
G75*
G03X668Y1753I-15J-5*
G01*
Y1753*
X658*
Y1753*
G75*
G03X648Y1743I5J-15*
G01*
X638*
G75*
G02X642Y1753I26J-5*
G01*
X3*
Y1722*
X642*
G37*
X1849D02*
G36*
G75*
G02X1815Y1753I4J38D01*
G01*
X1785*
G75*
G02X1794Y1733I-16J-20*
G01*
G75*
G02X1792Y1722I-26*
G01*
X1849*
G37*
X2002D02*
G36*
Y1753D01*
X1890*
G75*
G02X1857Y1722I-37J7*
G01*
X2002*
G37*
X2241D02*
G36*
Y1753D01*
X2137*
Y1722*
X2241*
G37*
X642Y1753D02*
G36*
G75*
G02X658Y1763I21J-15D01*
G01*
Y1753*
X668*
Y1763*
G75*
G02X685Y1753I-5J-26*
G01*
X1057*
G75*
G02X1073Y1763I21J-15*
G01*
Y1753*
X1083*
Y1763*
G75*
G02X1100Y1753I-5J-26*
G01*
X1132*
G75*
G02X1148Y1763I21J-15*
G01*
Y1753*
X1158*
Y1763*
G75*
G02X1175Y1753I-5J-26*
G01*
X1752*
G75*
G02X1785I16J-20*
G01*
X1815*
G75*
G02X1815Y1760I37J7*
G01*
G75*
G02X1833Y1793I38*
G01*
X1684*
G75*
G02X1632I-26*
G01*
X3*
Y1753*
X642*
G37*
X2002D02*
G36*
Y1793D01*
X1872*
G75*
G02X1891Y1760I-20J-32*
G01*
G75*
G02X1890Y1753I-38J0*
G01*
X2002*
G37*
X2241D02*
G36*
Y1793D01*
X2137*
Y1753*
X2241*
G37*
X3Y788D02*
G36*
Y733D01*
X852*
G75*
G02X904I26*
G01*
X1415*
G75*
G02X1409Y750I19J18*
G01*
G75*
G02X1461I26*
G01*
G75*
G02X1454Y733I-26*
G01*
X1727*
Y753*
G75*
G02X1695Y778I-6J25*
G01*
G75*
G02X1696Y788I26*
G01*
X1336*
G75*
G02X1296I-20J17*
G01*
X889*
G75*
G02X837I-26*
G01*
X3*
G37*
X837D02*
G36*
G75*
G02X842Y802I26D01*
G01*
X3*
Y788*
X837*
G37*
X1296D02*
G36*
G75*
G02X1290Y802I20J17D01*
G01*
X885*
G75*
G02X889Y788I-21J-15*
G01*
X1296*
G37*
X1696D02*
G36*
G75*
G02X1711Y802I24J-9D01*
G01*
X1382*
G75*
G02X1341Y808I-18J19*
G01*
G75*
G02X1342Y804I-26J-4*
G01*
G75*
G02X1336Y788I-26*
G01*
X1696*
G37*
X1745D02*
G36*
G75*
G02X1747Y778I-24J-9D01*
G01*
G75*
G02X1746Y771I-26*
G01*
X1749Y768*
G75*
G02X1753Y759I-9J-9*
G01*
Y733*
X1759*
G75*
G02X1759Y734I26J2*
G01*
G75*
G02X1811I26*
G01*
G75*
G02X1811Y733I-26J0*
G01*
X1824*
Y788*
X1745*
G37*
X1824D02*
G36*
Y802D01*
X1805*
G75*
G02X1788Y792I-21J15*
G01*
Y802*
X1778*
Y792*
G75*
G02X1762Y802I5J26*
G01*
X1730*
G75*
G02X1745Y788I-9J-24*
G01*
X1824*
G37*
X1856D02*
G36*
Y733D01*
X2039*
G75*
G02X2039Y736I26J4*
G01*
G75*
G02X2091I26*
G01*
G75*
G02X2090Y733I-26J0*
G01*
X2101*
Y788*
X2028*
G75*
G02X1990Y770I-38J34*
G01*
G75*
G02X1951Y788J51*
G01*
X1856*
G37*
X1951D02*
G36*
G75*
G02X1942Y802I38J34D01*
G01*
X1856*
Y788*
X1951*
G37*
X2101D02*
G36*
Y802D01*
X2037*
G75*
G02X2028Y788I-48J19*
G01*
X2101*
G37*
X2137D02*
G36*
Y733D01*
X2241*
Y788*
X2137*
G37*
X2241D02*
G36*
Y802D01*
X2137*
Y788*
X2241*
G37*
X3Y733D02*
G36*
Y647D01*
X1388*
G75*
G02X1404Y658I21J-15*
G01*
Y647*
X1414*
Y658*
G75*
G02X1430Y647I-5J-26*
G01*
X1461*
G75*
G02X1456Y663I21J16*
G01*
G75*
G02X1508I26*
G01*
G75*
G02X1502Y647I-26J0*
G01*
X1680*
G75*
G02X1719I19J-17*
G01*
X1727*
Y733*
X1454*
G75*
G02X1415I-19J18*
G01*
X904*
G75*
G02X852I-26*
G01*
X3*
G37*
X1753D02*
G36*
Y647D01*
X1824*
Y733*
X1811*
G75*
G02X1759I-26J2*
G01*
X1753*
G37*
X1856D02*
G36*
Y647D01*
X1912*
G75*
G02X1902Y668I16J21*
G01*
G75*
G02X1907Y684I26*
G01*
G75*
G02X1866Y705I-16J21*
G01*
G75*
G02X1918I26*
G01*
G75*
G02X1912Y689I-26*
G01*
G75*
G02X1954Y668I16J-21*
G01*
G75*
G02X1943Y647I-26*
G01*
X1974*
Y695*
X2054*
Y677*
X2101Y724*
Y733*
X2090*
G75*
G02X2039I-26J4*
G01*
X1856*
G37*
X2137D02*
G36*
Y717D01*
G75*
G02X2131Y704I-18*
G01*
X2074Y647*
X2241*
Y733*
X2137*
G37*
X3Y868D02*
G36*
Y841D01*
X858*
G75*
G02X857Y843I26J2*
G01*
G75*
G02X874Y867I26*
G01*
G75*
G02X871Y868I4J26*
G01*
X3*
G37*
X871D02*
G36*
G75*
G02X852Y892I7J25D01*
G01*
G75*
G02X904I26*
G01*
G75*
G02X888Y868I-26*
G01*
G75*
G02X891Y868I-4J-26*
G01*
X1135*
G75*
G02X1168Y900I38J-5*
G01*
Y890*
G75*
G03X1145Y868I5J-28*
G01*
X1200*
G75*
G03X1178Y890I-27J-5*
G01*
Y900*
G75*
G02X1180Y899I-5J-38*
G01*
G75*
G02X1152Y943I84J83*
G01*
X988*
G75*
G02X939I-24J10*
G01*
X882*
G75*
G02X865I-8J25*
G01*
X157*
G75*
G02X140I-8J25*
G01*
X3*
Y868*
X871*
G37*
X891D02*
G36*
G75*
G02X909Y843I-7J-25D01*
G01*
G75*
G02X909Y841I-26J0*
G01*
X1141*
G75*
G02X1135Y857I31J21*
G01*
X1145*
G75*
G03X1154Y841I28J5*
G01*
X1191*
G75*
G03X1200Y857I-18J21*
G01*
X1210*
G75*
G02X1204Y841I-38J5*
G01*
X1328*
Y868*
X1300*
G75*
G02X1260Y865I-21J15*
G01*
G75*
G02X1207Y879I4J118*
G01*
G75*
G02X1210Y867I-34J-17*
G01*
X1200*
X1200Y868*
X1145*
X1145Y867*
X1135*
X1135Y868*
X891*
G37*
X1328D02*
G36*
Y943D01*
X1192*
G75*
G03X1260Y901I72J40*
G01*
G75*
G02X1304Y883I19J-18*
G01*
G75*
G02X1300Y868I-26*
G01*
X1328*
G37*
X1404D02*
G36*
G75*
G02X1360Y855I-26J5D01*
G01*
Y847*
G75*
G02X1381Y841I4J-26*
G01*
X1509*
G75*
G02X1500Y856I16J20*
G01*
X1510*
G75*
G03X1521Y846I15J5*
G01*
Y841*
X1531*
Y846*
G75*
G03X1541Y856I-5J15*
G01*
X1551*
G75*
G02X1542Y841I-26J5*
G01*
X1772*
G75*
G02X1778Y843I12J-23*
G01*
Y841*
X1788*
Y843*
G75*
G02X1795Y841I-5J-26*
G01*
X1808*
X1782Y868*
X1551*
G75*
G02X1551Y866I-25J-6*
G01*
X1541*
G75*
G03X1540Y868I-15J-5*
G01*
X1511*
G75*
G03X1510Y866I15J-6*
G01*
X1500*
G75*
G02X1500Y868I26J-5*
G01*
X1404*
G37*
X1500D02*
G36*
G75*
G02X1521Y887I25J-6D01*
G01*
Y876*
G75*
G03X1511Y868I5J-15*
G01*
X1540*
G75*
G03X1531Y876I-15J-6*
G01*
Y887*
G75*
G02X1551Y868I-5J-26*
G01*
X1782*
X1756Y893*
X1448*
G75*
G02X1402Y909I-20J16*
G01*
G75*
G02X1448Y925I26*
G01*
X1763*
G75*
G02X1774Y920I0J-16*
G01*
X1827Y868*
X1967*
G75*
G02X1990Y873I23J-46*
G01*
G75*
G02X2013Y868J-51*
G01*
X2101*
Y943*
X1537*
G75*
G02X1521Y933I-21J15*
G01*
Y943*
X1511*
Y933*
G75*
G02X1495Y943I5J26*
G01*
X1360*
Y890*
G75*
G02X1404Y873I19J-18*
G01*
G75*
G02X1404Y868I-26J0*
G01*
X1500*
G37*
X1827D02*
G36*
X1851Y843D01*
G75*
G02X1853Y841I-11J-11*
G01*
X1942*
G75*
G02X1967Y868I48J-19*
G01*
X1827*
G37*
X2013D02*
G36*
G75*
G02X2037Y841I-23J-46D01*
G01*
X2101*
Y868*
X2013*
G37*
X2137D02*
G36*
Y841D01*
X2241*
Y868*
X2137*
G37*
X2241D02*
G36*
Y943D01*
X2137*
Y868*
X2241*
G37*
X3Y492D02*
G36*
Y464D01*
X992*
G75*
G02X988Y479I21J15*
G01*
G75*
G02X991Y492I26*
G01*
X948*
G75*
G02X896I-26*
G01*
X3*
G37*
X1036D02*
G36*
G75*
G02X1040Y479I-23J-13D01*
G01*
G75*
G02X1035Y464I-26*
G01*
X1167*
G75*
G02X1219I26*
G01*
X1673*
G75*
G02X1686Y481I25J-6*
G01*
G75*
G02X1675Y492I12J23*
G01*
X1036*
G37*
X1753D02*
G36*
Y464D01*
X2241*
Y492*
X1920*
G75*
G02X1887I-17J20*
G01*
X1753*
G37*
X3Y193D02*
G36*
Y163D01*
X1572*
G75*
G02X1624I26*
G01*
X2241*
Y193*
X989*
G75*
G02X937I-26*
G01*
X3*
G37*
X937D02*
G36*
G75*
G02X989I26D01*
G01*
X2241*
Y282*
X1704*
G75*
G02X1669I-17J29*
G01*
X1519*
G75*
G02X1468I-26J5*
G01*
X1459*
G75*
G02X1407I-26*
G01*
X352*
G75*
G02X317I-17J29*
G01*
X3*
Y193*
X937*
G37*
X392Y558D02*
G36*
G75*
G02X425I16J-20D01*
G01*
X452*
G75*
G02X495I21J-15*
G01*
X517*
G75*
G02X560I21J-15*
G01*
X632*
G75*
G02X675I21J-15*
G01*
X1047*
G75*
G02X1063Y568I21J-15*
G01*
Y558*
X1073*
Y568*
G75*
G02X1090Y558I-5J-26*
G01*
X1675*
G75*
G02X1694Y574I24J-10*
G01*
Y563*
G75*
G03X1686Y558I5J-15*
G01*
X1711*
G75*
G03X1704Y563I-13J-10*
G01*
Y574*
G75*
G02X1723Y558I-5J-26*
G01*
X1727*
Y586*
X1481*
G75*
G02X1429I-26*
G01*
X3*
Y558*
X392*
G37*
X1878D02*
G36*
X1850Y586D01*
X1753*
Y558*
X1878*
G37*
X2241D02*
G36*
Y586D01*
X2054*
Y558*
X2241*
G37*
X277Y1192D02*
G36*
G75*
G02X318Y1180I17J-20D01*
G01*
G75*
G02X366Y1186I25J-7*
G01*
G75*
G02X405Y1192I23J-13*
G01*
X609*
G75*
G02X658I24J-10*
G01*
X1087*
G75*
G02X1083Y1202I21J15*
G01*
X1093*
G75*
G03X1103Y1192I15J5*
G01*
Y1192*
X1113*
Y1192*
G75*
G03X1124Y1202I-5J15*
G01*
X1134*
G75*
G02X1130Y1192I-26J5*
G01*
X1145*
Y1223*
X1130*
G75*
G02X1134Y1213I-21J-15*
G01*
X1124*
G75*
G03X1113Y1223I-15J-5*
G01*
Y1223*
X1103*
Y1223*
G75*
G03X1093Y1213I5J-15*
G01*
X1083*
G75*
G02X1087Y1223I26J-5*
G01*
X3*
Y1192*
X277*
G37*
X1267D02*
G36*
G75*
G02X1300I17J-20D01*
G01*
X1432*
X1463Y1223*
X1181*
Y1192*
X1267*
G37*
X1694D02*
G36*
G75*
G02X1685Y1212I17J20D01*
G01*
G75*
G02X1687Y1223I26J0*
G01*
X1508*
X1477Y1192*
X1694*
G37*
X1864D02*
G36*
G75*
G02X1936I36J-12D01*
G01*
X1949*
G75*
G02X1938Y1223I41J31*
G01*
X1734*
G75*
G02X1737Y1212I-24J-11*
G01*
G75*
G02X1727Y1192I-26*
G01*
X1864*
G37*
X2101D02*
G36*
Y1223D01*
X2041*
G75*
G02X2031Y1192I-51J0*
G01*
X2101*
G37*
X2241D02*
G36*
Y1223D01*
X2137*
Y1192*
X2241*
G37*
X3Y841D02*
G36*
Y802D01*
X842*
G75*
G02X885I21J-15*
G01*
X1290*
G75*
G02X1290Y804I26J2*
G01*
G75*
G02X1328Y827I26*
G01*
G75*
G02X1328Y831I15J4*
G01*
Y841*
X1204*
G75*
G02X1178Y824I-31J21*
G01*
Y834*
G75*
G03X1191Y841I-5J28*
G01*
X1154*
G75*
G03X1168Y834I18J21*
G01*
Y824*
G75*
G02X1141Y841I5J38*
G01*
X909*
G75*
G02X858I-26J2*
G01*
X3*
G37*
X1381D02*
G36*
G75*
G02X1390Y821I-17J-20D01*
G01*
G75*
G02X1382Y802I-26*
G01*
X1711*
G75*
G02X1730I9J-24*
G01*
X1762*
G75*
G02X1758Y813I21J15*
G01*
X1768*
G75*
G03X1778Y802I15J5*
G01*
Y802*
X1788*
Y802*
G75*
G03X1799Y813I-5J15*
G01*
X1809*
G75*
G02X1805Y802I-26J5*
G01*
X1824*
Y825*
X1808Y841*
X1795*
G75*
G02X1809Y823I-12J-23*
G01*
X1799*
G75*
G03X1788Y833I-15J-5*
G01*
Y841*
X1778*
Y833*
G75*
G03X1768Y823I5J-15*
G01*
X1758*
G75*
G02X1772Y841I26J-5*
G01*
X1542*
G75*
G02X1531Y836I-16J20*
G01*
Y841*
X1521*
Y836*
G75*
G02X1509Y841I5J26*
G01*
X1381*
G37*
X1853D02*
G36*
G75*
G02X1856Y832I-13J-9D01*
G01*
Y802*
X1942*
G75*
G02X1942Y841I48J19*
G01*
X1853*
G37*
X2037D02*
G36*
G75*
G02X2037Y802I-48J-19D01*
G01*
X2101*
Y841*
X2037*
G37*
X2137D02*
G36*
Y802D01*
X2241*
Y841*
X2137*
G37*
X3Y464D02*
G36*
Y425D01*
X1347*
G75*
G02X1399I26*
G01*
X1676*
G75*
G02X1685Y436I24J-11*
G01*
G75*
G02X1673Y464I13J22*
G01*
X1219*
G75*
G02X1167I-26*
G01*
X1035*
G75*
G02X992I-21J15*
G01*
X3*
G37*
X1753D02*
G36*
Y454D01*
G75*
G02X1749Y445I-13*
G01*
X1729Y425*
X2241*
Y464*
X1753*
G37*
X1136Y1095D02*
G36*
G75*
G02X1145Y1105I23J-13D01*
G01*
Y1139*
X659*
G75*
G02X608I-26J3*
G01*
X502*
G75*
G02X465I-18J18*
G01*
X3*
Y1095*
X1136*
G37*
X1219D02*
G36*
G75*
G02X1217Y1103I25J7D01*
G01*
G75*
G02X1269Y1104I26*
G01*
G75*
G02X1315Y1095I20J-16*
G01*
X1335*
X1379Y1139*
X1181*
Y1095*
X1219*
G37*
X1882D02*
G36*
G75*
G02X1881Y1104I24J9D01*
G01*
G75*
G02X1933I26*
G01*
G75*
G02X1931Y1095I-26*
G01*
X2101*
Y1139*
X1709*
G75*
G02X1657I-26*
G01*
X1424*
X1380Y1095*
X1882*
G37*
X2241D02*
G36*
Y1139D01*
X2137*
Y1095*
X2241*
G37*
X3Y425D02*
G36*
Y389D01*
X1691*
G75*
G02X1674Y414I8J25*
G01*
G75*
G02X1676Y425I26*
G01*
X1399*
G75*
G02X1347I-26*
G01*
X3*
G37*
X1729D02*
G36*
X1725Y421D01*
G75*
G02X1726Y414I-25J-7*
G01*
G75*
G02X1708Y389I-26*
G01*
X1828*
G75*
G02X1855Y406I31J-21*
G01*
Y396*
G75*
G03X1841Y389I5J-28*
G01*
X1878*
G75*
G03X1865Y396I-18J-21*
G01*
Y406*
G75*
G02X1891Y389I-5J-38*
G01*
X2241*
Y425*
X1729*
G37*
X3Y617D02*
G36*
Y586D01*
X1429*
G75*
G02X1481I26*
G01*
X1727*
Y617*
X1722*
G75*
G02X1677I-22J13*
G01*
X1430*
G75*
G02X1414Y607I-21J15*
G01*
Y617*
X1404*
Y607*
G75*
G02X1388Y617I5J26*
G01*
X3*
G37*
X1388D02*
G36*
G75*
G02X1383Y627I21J15D01*
G01*
X1393*
G75*
G03X1404Y617I15J5*
G01*
Y617*
X1414*
Y617*
G75*
G03X1424Y627I-5J15*
G01*
X1434*
G75*
G02X1430Y617I-26J5*
G01*
X1677*
G75*
G02X1674Y630I22J13*
G01*
G75*
G02X1680Y647I26*
G01*
X1502*
G75*
G02X1461I-21J16*
G01*
X1430*
G75*
G02X1434Y637I-21J-15*
G01*
X1424*
G75*
G03X1414Y647I-15J-5*
G01*
Y647*
X1404*
Y647*
G75*
G03X1393Y637I5J-15*
G01*
X1383*
G75*
G02X1388Y647I26J-5*
G01*
X3*
Y617*
X1388*
G37*
X1727D02*
G36*
Y647D01*
X1719*
G75*
G02X1726Y630I-19J-17*
G01*
G75*
G02X1722Y617I-26J0*
G01*
X1727*
G37*
X1753D02*
G36*
Y586D01*
X1850*
X1828Y608*
G75*
G02X1824Y617I11J11*
G01*
X1753*
G37*
X1824D02*
G36*
G75*
G02X1824Y619I16J2D01*
G01*
Y647*
X1753*
Y617*
X1824*
G37*
X1865D02*
G36*
X1911Y570D01*
X1974*
Y595*
X2054*
Y586*
X2241*
Y617*
X2054*
Y615*
X1974*
Y617*
X1865*
G37*
X1974D02*
G36*
Y647D01*
X1943*
G75*
G02X1912I-16J21*
G01*
X1856*
Y626*
X1865Y617*
X1974*
G37*
X2241D02*
G36*
Y647D01*
X2074*
X2069Y642*
G75*
G02X2057Y637I-13J13*
G01*
X2054*
Y617*
X2241*
G37*
X3Y1838D02*
G36*
Y1793D01*
X1632*
G75*
G02X1684I26*
G01*
X1833*
G75*
G02X1872I20J-32*
G01*
X2002*
Y1838*
X1454*
G75*
G02X1402I-26*
G01*
X3*
G37*
X2106D02*
G36*
X2131Y1812D01*
G75*
G02X2137Y1799I-13J-13*
G01*
Y1793*
X2241*
Y1838*
X2106*
G37*
X3Y163D02*
G36*
Y3D01*
X2241*
Y163*
X1624*
G75*
G02X1572I-26*
G01*
X3*
G37*
X1828Y347D02*
G36*
G75*
G02X1822Y363I31J21D01*
G01*
X1832*
G75*
G03X1841Y347I28J5*
G01*
X1878*
G75*
G03X1887Y363I-18J21*
G01*
X1897*
G75*
G02X1891Y347I-38J5*
G01*
X2241*
Y365*
X2041*
G75*
G02X2047Y348I-31J-21*
G01*
X2037*
G75*
G03X2028Y365I-28J-5*
G01*
X1991*
G75*
G03X1982Y348I18J-21*
G01*
X1972*
G75*
G02X1978Y365I38J-5*
G01*
X3*
Y347*
X1828*
G37*
X3Y389D02*
G36*
Y365D01*
X1978*
G75*
G02X2005Y381I31J-21*
G01*
Y371*
G75*
G03X1991Y365I5J-28*
G01*
X2028*
G75*
G03X2015Y371I-18J-21*
G01*
Y381*
G75*
G02X2041Y365I-5J-38*
G01*
X2241*
Y389*
X1891*
G75*
G02X1897Y373I-31J-21*
G01*
X1887*
G75*
G03X1878Y389I-28J-5*
G01*
X1841*
G75*
G03X1832Y373I18J-21*
G01*
X1822*
G75*
G02X1828Y389I38J-5*
G01*
X1708*
G75*
G02X1691I-8J25*
G01*
X3*
G37*
X1753Y1468D02*
G75*
G02X1768Y1468I7J-25D01*
G01*
G75*
G02X1766Y1478I24J10*
G01*
G75*
G02X1766Y1481I26J0*
G01*
X1753Y1468*
G36*
G75*
G02X1768Y1468I7J-25*
G01*
G75*
G02X1766Y1478I24J10*
G01*
G75*
G02X1766Y1481I26J0*
G01*
X1753Y1468*
G37*
D02*
D24*
X334Y311D03*
Y1886D03*
X1686Y311D03*
Y1886D03*
D02*
D28*
X2014Y555D03*
Y655D03*
D02*
D73*
X1990Y822D03*
Y1223D03*
D02*
D74*
X93Y1453D03*
X133Y1553D03*
X148Y968D03*
Y1023D03*
X158Y1448D03*
X168Y1503D03*
X183Y1603D03*
X263Y1498D03*
X293Y1173D03*
X338Y1448D03*
X343Y527D03*
Y1173D03*
X388D03*
X408Y538D03*
X473Y543D03*
X483Y1158D03*
X488Y1403D03*
X538Y543D03*
X613Y1433D03*
X633Y1143D03*
Y1183D03*
X643Y1348D03*
X653Y543D03*
X663Y1738D03*
X708Y1018D03*
X863Y788D03*
X873Y968D03*
X878Y733D03*
Y892D03*
X883Y843D03*
X922Y492D03*
X943Y1518D03*
X953Y1014D03*
X963Y193D03*
Y953D03*
X993Y1568D03*
X1006Y1507D03*
X1014Y479D03*
X1018Y1433D03*
X1048Y1393D03*
X1068Y543D03*
X1078Y1738D03*
X1108Y1208D03*
X1153Y1738D03*
X1158Y1083D03*
X1193Y464D03*
X1243Y1103D03*
X1278Y883D03*
X1283Y1173D03*
X1290Y1088D03*
X1303Y1038D03*
X1316Y804D03*
X1364Y821D03*
X1373Y425D03*
X1378Y873D03*
X1393Y1432D03*
X1397Y1382D03*
X1398Y983D03*
X1408Y1338D03*
X1409Y632D03*
X1423Y1538D03*
X1428Y909D03*
X1428Y1838D03*
X1433Y282D03*
X1435Y750D03*
X1455Y586D03*
X1482Y663D03*
X1493Y288D03*
X1516Y958D03*
X1526Y861D03*
X1548Y1493D03*
X1598Y163D03*
X1622Y1525D03*
X1658Y1793D03*
X1683Y1139D03*
X1698Y504D03*
X1699Y458D03*
Y548D03*
X1700Y414D03*
Y630D03*
X1703Y1318D03*
X1708Y1568D03*
X1711Y1212D03*
X1721Y778D03*
X1761Y1443D03*
X1768Y1733D03*
X1783Y818D03*
X1785Y734D03*
X1789Y1628D03*
X1792Y1478D03*
X1892Y705D03*
Y1043D03*
X1904Y512D03*
X1907Y1104D03*
X1910Y1528D03*
Y1568D03*
X1928Y668D03*
Y1457D03*
X2020Y1515D03*
X2027Y1372D03*
X2050Y1575D03*
X2065Y736D03*
D02*
D75*
X453Y1263D03*
X1173Y862D03*
X1853Y1760D03*
X1854Y1355D03*
X1860Y368D03*
X1900Y1180D03*
X1930Y1898D03*
X2010Y343D03*
X2020Y1898D03*
D02*
D76*
X1163Y1088D02*
Y1278D01*
G75*
G02X1423Y1538I260*
G01*
X1278Y883D02*
X1263D01*
G75*
G02X1163Y983J100*
G01*
Y1088*
X2014Y655D02*
X2057D01*
X2119Y717*
Y1799*
X2020Y1898*
Y1515D02*
Y1782D01*
Y1898*
D02*
D77*
X1700Y414D02*
X1740Y454D01*
Y759*
X1721Y778*
D02*
D78*
X1428Y909D02*
X1763D01*
X1840Y832*
Y619*
X1905Y554*
X2013*
X2014Y555*
X1789Y1628D02*
Y1526D01*
X1344Y1081*
Y831*
X1354Y821*
X1364*
X0Y0D02*
M02*
