%FSLAX23Y23*%
%MOIN*%
G04 EasyPC Gerber Version 17.0 Build 3379 *
%ADD28R,0.06000X0.06000*%
%ADD11C,0.00100*%
%ADD77C,0.00600*%
%ADD78C,0.01200*%
%ADD76C,0.01600*%
%ADD74C,0.03200*%
%ADD24C,0.04724*%
%ADD75C,0.05600*%
%ADD73C,0.08268*%
X0Y0D02*
D02*
D11*
X3Y3D02*
X2241D01*
Y2038*
X3*
Y3*
X86Y1428D02*
G75*
G02X67Y1453I8J25D01*
G01*
G75*
G02X119I26*
G01*
G75*
G02X112Y1434I-26*
G01*
G75*
G03X143Y1415I32J19*
G01*
X466*
G75*
G02X514Y1403I23J-13*
G01*
G75*
G02X466Y1390I-26*
G01*
X143*
G75*
G02X86Y1428J63*
G01*
X122Y968D02*
G75*
G02X174I26D01*
G01*
G75*
G02X122I-26*
G01*
Y1023D02*
G75*
G02X174I26D01*
G01*
G75*
G02X122I-26*
G01*
X125Y1577D02*
G75*
G02X133Y1581I9J-9D01*
G01*
X170*
G75*
G02X157Y1603I14J22*
G01*
G75*
G02X208Y1611I26*
G01*
X243*
G75*
G02X619Y1355J-403*
G01*
G75*
G02X660Y1367I25J-7*
G01*
X620Y1407*
G75*
G02X587Y1433I-7J25*
G01*
G75*
G02X639I26*
G01*
G75*
G02X639Y1426I-26*
G01*
X1014Y1050*
X1281*
G75*
G02X1325Y1052I23J-13*
G01*
X1468*
X1708Y1292*
G75*
G02X1677Y1318I-5J26*
G01*
G75*
G02X1729I26*
G01*
G75*
G02X1729Y1313I-26J0*
G01*
X1884Y1468*
G75*
G02X1894Y1472I9J-9*
G01*
X1906*
G75*
G02X1954Y1457I21J-15*
G01*
G75*
G02X1904Y1446I-26*
G01*
X1899*
X1845Y1392*
G75*
G02X1849Y1393I9J-37*
G01*
Y1383*
G75*
G03X1826Y1360I5J-28*
G01*
X1816*
G75*
G02X1817Y1364I38J-5*
G01*
X1483Y1030*
G75*
G02X1474Y1026I-9J9*
G01*
X1327*
G75*
G02X1281Y1025I-23J11*
G01*
X1008*
G75*
G02X999Y1028J13*
G01*
X663Y1364*
G75*
G02X669Y1348I-20J-17*
G01*
G75*
G02X629Y1326I-26*
G01*
G75*
G02X646Y1208I-385J-119*
G01*
Y1205*
G75*
G02X659Y1183I-13J-23*
G01*
G75*
G02X650Y1163I-26*
G01*
G75*
G02X659Y1143I-17J-20*
G01*
G75*
G02X610Y1131I-26*
G01*
G75*
G02X595Y1153I8J21*
G01*
Y1188*
G75*
G03X228Y1555I-367*
G01*
X159*
G75*
G02X159Y1553I-26J-2*
G01*
G75*
G02X107I-26*
G01*
G75*
G02X125Y1577I26*
G01*
X181Y1435D02*
G75*
G02X132Y1448I-23J13D01*
G01*
G75*
G02X181Y1460I26*
G01*
X316*
G75*
G02X364Y1448I23J-13*
G01*
G75*
G02X316Y1435I-26*
G01*
X181*
X187Y1485D02*
G75*
G02X142Y1503I-19J18D01*
G01*
G75*
G02X193Y1511I26*
G01*
X241*
G75*
G02X289Y1498I23J-13*
G01*
G75*
G02X241Y1485I-26*
G01*
X187*
X317Y527D02*
G75*
G02X369I26D01*
G01*
G75*
G02X317I-26*
G01*
X318Y1165D02*
G75*
G02X267Y1173I-25J7D01*
G01*
G75*
G02X318Y1180I26*
G01*
G75*
G02X366Y1186I25J-7*
G01*
G75*
G02X414Y1173I23J-13*
G01*
G75*
G02X366Y1159I-26*
G01*
G75*
G02X318Y1165I-23J13*
G01*
X368Y311D02*
G75*
G02X301I-34D01*
G01*
G75*
G02X368I34*
G01*
Y1886D02*
G75*
G02X301I-34D01*
G01*
G75*
G02X368I34*
G01*
X382Y538D02*
G75*
G02X434I26D01*
G01*
G75*
G02X382I-26*
G01*
X415Y1263D02*
G75*
G02X491I38D01*
G01*
G75*
G02X415I-38*
G01*
X447Y543D02*
G75*
G02X499I26D01*
G01*
G75*
G02X447I-26*
G01*
X457Y1158D02*
G75*
G02X509I26D01*
G01*
G75*
G02X457I-26*
G01*
X512Y543D02*
G75*
G02X564I26D01*
G01*
G75*
G02X512I-26*
G01*
X627D02*
G75*
G02X679I26D01*
G01*
G75*
G02X627I-26*
G01*
X637Y1738D02*
G75*
G02X689I26D01*
G01*
G75*
G02X637I-26*
G01*
X682Y1018D02*
G75*
G02X734I26D01*
G01*
G75*
G02X682I-26*
G01*
X837Y788D02*
G75*
G02X889I26D01*
G01*
G75*
G02X837I-26*
G01*
X847Y968D02*
G75*
G02X899I26D01*
G01*
G75*
G02X847I-26*
G01*
X852Y733D02*
G75*
G02X904I26D01*
G01*
G75*
G02X852I-26*
G01*
X874Y867D02*
G75*
G02X852Y892I4J26D01*
G01*
G75*
G02X904I26*
G01*
G75*
G02X888Y868I-26*
G01*
G75*
G02X909Y843I-4J-26*
G01*
G75*
G02X857I-26*
G01*
G75*
G02X874Y867I26*
G01*
X928Y467D02*
G75*
G02X896Y492I-7J25D01*
G01*
G75*
G02X948I26*
G01*
G75*
G02X947Y485I-26*
G01*
X987Y445*
X1175*
G75*
G02X1167Y464I18J19*
G01*
G75*
G02X1219I26*
G01*
G75*
G02X1210Y445I-26*
G01*
X1269*
X1419Y595*
G75*
G02X1429Y599I9J-9*
G01*
X1432*
G75*
G02X1481Y586I23J-13*
G01*
G75*
G02X1433Y572I-26*
G01*
X1295Y434*
X1348*
G75*
G02X1399Y425I24J-9*
G01*
G75*
G02X1353Y408I-26*
G01*
X1291*
X1244Y361*
Y218*
G75*
G02X1240Y209I-13*
G01*
X1215Y184*
G75*
G02X1206Y180I-9J9*
G01*
X986*
G75*
G02X937Y193I-23J12*
G01*
G75*
G02X986Y206I26*
G01*
X1200*
X1218Y223*
Y366*
G75*
G02X1221Y375I13*
G01*
X1265Y419*
X982*
G75*
G02X972Y423J13*
G01*
X928Y467*
X948Y948D02*
G75*
G03X958Y937I15J5D01*
G01*
Y927*
G75*
G02X938Y948I5J26*
G01*
X948*
X949Y1492D02*
G75*
G02X917Y1518I-6J25D01*
G01*
G75*
G02X969I26*
G01*
G75*
G02X968Y1510I-26*
G01*
X982Y1496*
G75*
G02X980Y1507I24J11*
G01*
G75*
G02X1032I26*
G01*
G75*
G02X1032Y1506I-26J0*
G01*
X1526*
G75*
G02X1574Y1496I23J-13*
G01*
X1597Y1518*
G75*
G02X1596Y1525I25J7*
G01*
G75*
G02X1648I26*
G01*
G75*
G02X1615Y1500I-26*
G01*
X1571Y1456*
G75*
G02X1562Y1452I-9J9*
G01*
X1409*
G75*
G02X1419Y1432I-17J-20*
G01*
G75*
G02X1401Y1408I-26*
G01*
G75*
G02X1423Y1382I-5J-26*
G01*
G75*
G02X1414Y1363I-26*
G01*
G75*
G02X1428Y1355I-6J-25*
G01*
X1541*
X1734Y1548*
Y1561*
G75*
G02X1686Y1555I-25J7*
G01*
X1443*
G75*
G02X1449Y1538I-20J-17*
G01*
G75*
G02X1397I-26*
G01*
G75*
G02X1404Y1555I26*
G01*
X1016*
G75*
G02X967Y1568I-23J13*
G01*
G75*
G02X1016Y1581I26*
G01*
X1686*
G75*
G02X1734Y1574I23J-13*
G01*
Y1721*
G75*
G02X1741Y1735I16*
G01*
X1743Y1736*
G75*
G02X1794Y1733I26J-3*
G01*
G75*
G02X1766Y1707I-26*
G01*
Y1640*
G75*
G02X1815Y1628I23J-12*
G01*
G75*
G02X1766Y1616I-26*
G01*
Y1541*
G75*
G02X1761Y1530I-16J0*
G01*
X1559Y1328*
G75*
G02X1548Y1323I-11J11*
G01*
X1430*
G75*
G02X1382Y1338I-22J14*
G01*
G75*
G02X1391Y1357I26*
G01*
G75*
G02X1374Y1369I6J25*
G01*
X1060*
G75*
G02X1022Y1393I-11J23*
G01*
G75*
G02X1028Y1408I26*
G01*
G75*
G02X992Y1433I-9J24*
G01*
G75*
G02X1001Y1452I26*
G01*
X995*
G75*
G02X985Y1456J13*
G01*
X949Y1492*
X953Y988D02*
G75*
G02X927Y1014I-1J26D01*
G01*
G75*
G02X979I26*
G01*
G75*
G02X979Y1013I-26J0*
G01*
X1120Y872*
G75*
G02X1126Y859I-13J-13*
G01*
Y779*
X1137Y768*
X1416*
G75*
G02X1461Y750I19J-18*
G01*
G75*
G02X1416Y732I-26*
G01*
X1130*
G75*
G02X1117Y737J18*
G01*
X1095Y759*
G75*
G02X1090Y772I13J13*
G01*
Y852*
X984Y958*
X979*
G75*
G03X968Y968I-15J-5*
G01*
Y973*
X953Y988*
X958Y968D02*
G75*
G03X948Y958I5J-15D01*
G01*
X938*
G75*
G02X958Y978I26J-5*
G01*
Y968*
X968Y937D02*
G75*
G03X979Y948I-5J15D01*
G01*
X989*
G75*
G02X968Y927I-26J5*
G01*
Y937*
X988Y479D02*
G75*
G02X1040I26D01*
G01*
G75*
G02X988I-26*
G01*
X1042Y543D02*
G75*
G02X1094I26D01*
G01*
G75*
G02X1042I-26*
G01*
X1052Y1738D02*
G75*
G02X1104I26D01*
G01*
G75*
G02X1052I-26*
G01*
X1082Y1208D02*
G75*
G02X1134I26D01*
G01*
G75*
G02X1082I-26*
G01*
X1127Y1738D02*
G75*
G02X1179I26D01*
G01*
G75*
G02X1127I-26*
G01*
X1132Y1083D02*
G75*
G02X1184I26D01*
G01*
G75*
G02X1132I-26*
G01*
X1135Y862D02*
G75*
G02X1211I38D01*
G01*
G75*
G02X1135I-38*
G01*
X1252Y883D02*
G75*
G02X1304I26D01*
G01*
G75*
G02X1252I-26*
G01*
X1257Y1173D02*
G75*
G02X1309I26D01*
G01*
G75*
G02X1257I-26*
G01*
X1263Y1120D02*
X1270Y1127D01*
G75*
G02X1280Y1131I9J-9*
G01*
X1364*
X1780Y1547*
G75*
G02X1790Y1551I9J-9*
G01*
X1874*
X1885Y1561*
G75*
G02X1884Y1568I25J7*
G01*
G75*
G02X1936I26*
G01*
G75*
G02X1926Y1548I-26*
G01*
G75*
G02X1936Y1528I-17J-20*
G01*
G75*
G02X1889Y1512I-26*
G01*
X1803*
X1795Y1504*
G75*
G02X1818Y1478I-3J-26*
G01*
G75*
G02X1785Y1453I-26*
G01*
G75*
G02X1787Y1443I-24J-10*
G01*
G75*
G02X1735I-26*
G01*
G75*
G02X1735Y1444I26J0*
G01*
X1387Y1096*
G75*
G02X1378Y1092I-9J9*
G01*
X1335*
X1322Y1079*
G75*
G02X1313Y1075I-9J9*
G01*
X1312*
G75*
G02X1264Y1086I-23J13*
G01*
G75*
G02X1217Y1103I-20J16*
G01*
G75*
G02X1263Y1120I26*
G01*
X1338Y818D02*
G75*
G02X1338Y821I26J4D01*
G01*
G75*
G02X1390I26*
G01*
G75*
G02X1341Y808I-26*
G01*
G75*
G02X1342Y804I-26J-4*
G01*
G75*
G02X1290I-26*
G01*
G75*
G02X1338Y818I26*
G01*
X1363Y868D02*
G75*
G03X1373Y857I15J5D01*
G01*
Y847*
G75*
G02X1353Y868I5J26*
G01*
X1363*
X1372Y983D02*
G75*
G02X1424I26D01*
G01*
G75*
G02X1372I-26*
G01*
X1373Y888D02*
G75*
G03X1363Y877I5J-15D01*
G01*
X1353*
G75*
G02X1373Y898I26J-5*
G01*
Y888*
X1383Y632D02*
G75*
G02X1435I26D01*
G01*
G75*
G02X1383I-26*
G01*
X1383Y857D02*
G75*
G03X1394Y868I-5J15D01*
G01*
X1404*
G75*
G02X1383Y847I-26J5*
G01*
Y857*
X1394Y877D02*
G75*
G03X1383Y888I-15J-5D01*
G01*
Y898*
G75*
G02X1404Y877I-5J-26*
G01*
X1394*
X1402Y909D02*
G75*
G02X1454I26D01*
G01*
G75*
G02X1402I-26*
G01*
X1402Y1838D02*
G75*
G02X1454I26D01*
G01*
G75*
G02X1402I-26*
G01*
X1407Y282D02*
G75*
G02X1459I26D01*
G01*
G75*
G02X1407I-26*
G01*
X1490Y958D02*
G75*
G02X1542I26D01*
G01*
G75*
G02X1490I-26*
G01*
X1500Y861D02*
G75*
G02X1552I26D01*
G01*
G75*
G02X1500I-26*
G01*
X1500Y313D02*
X1640Y452D01*
Y554*
G75*
G02X1643Y563I13*
G01*
X1685Y604*
Y609*
G75*
G02X1674Y630I15J21*
G01*
G75*
G02X1726I26*
G01*
G75*
G02X1711Y606I-26*
G01*
Y599*
G75*
G02X1707Y590I-13*
G01*
X1689Y572*
G75*
G02X1725Y548I9J-24*
G01*
G75*
G02X1712Y526I-26*
G01*
G75*
G02X1723Y509I-14J-22*
G01*
X1713*
G75*
G03X1703Y519I-15J-5*
G01*
Y522*
G75*
G02X1693Y523I-4J26*
G01*
Y519*
G75*
G03X1682Y509I5J-15*
G01*
X1672*
G75*
G02X1684Y526I26J-5*
G01*
G75*
G02X1673Y548I14J22*
G01*
G75*
G02X1674Y557I26J0*
G01*
X1666Y549*
Y447*
G75*
G02X1662Y437I-13*
G01*
X1519Y294*
G75*
G02X1519Y288I-25J-7*
G01*
G75*
G02X1467I-26*
G01*
G75*
G02X1500Y313I26*
G01*
X1504Y650D02*
G75*
G02X1456Y663I-23J13D01*
G01*
G75*
G02X1504Y676I26*
G01*
X1560*
X1683Y798*
Y1113*
G75*
G02X1657Y1139J26*
G01*
G75*
G02X1709I26*
G01*
G75*
G02X1707Y1131I-26J0*
G01*
G75*
G02X1709Y1126I-12J-5*
G01*
Y801*
G75*
G02X1747Y778I12J-23*
G01*
G75*
G02X1695Y774I-26*
G01*
X1575Y654*
G75*
G02X1566Y650I-9J9*
G01*
X1504*
X1583Y158D02*
G75*
G03X1593Y147I15J5D01*
G01*
Y137*
G75*
G02X1573Y158I5J26*
G01*
X1583*
X1593Y178D02*
G75*
G03X1583Y168I5J-15D01*
G01*
X1573*
G75*
G02X1593Y188I26J-5*
G01*
Y178*
X1603Y147D02*
G75*
G03X1614Y158I-5J15D01*
G01*
X1624*
G75*
G02X1603Y137I-26J5*
G01*
Y147*
X1614Y168D02*
G75*
G03X1603Y178I-15J-5D01*
G01*
Y188*
G75*
G02X1624Y168I-5J-26*
G01*
X1614*
X1632Y1793D02*
G75*
G02X1684I26D01*
G01*
G75*
G02X1632I-26*
G01*
X1685Y1212D02*
G75*
G02X1737I26D01*
G01*
G75*
G02X1685I-26*
G01*
X1685Y436D02*
G75*
G02X1673Y458I13J22D01*
G01*
G75*
G02X1686Y481I26*
G01*
G75*
G02X1672Y499I12J23*
G01*
X1682*
G75*
G03X1693Y489I15J5*
G01*
Y483*
G75*
G02X1703Y484I6J-25*
G01*
Y489*
G75*
G03X1713Y499I-5J15*
G01*
X1723*
G75*
G02X1710Y481I-26J5*
G01*
G75*
G02X1721Y471I-12J-23*
G01*
X2003*
X2047Y515*
X1974*
Y595*
X2054*
Y521*
X2088Y555*
Y695*
X2071Y711*
G75*
G02X2039Y736I-7J25*
G01*
G75*
G02X2091I26*
G01*
G75*
G02X2090Y729I-26*
G01*
X2110Y709*
G75*
G02X2114Y700I-9J-9*
G01*
Y550*
G75*
G02X2110Y541I-13*
G01*
X2018Y449*
G75*
G02X2009Y445I-9J9*
G01*
X1721*
G75*
G02X1713Y436I-23J13*
G01*
G75*
G02X1726Y414I-13J-22*
G01*
G75*
G02X1674I-26*
G01*
G75*
G02X1685Y436I26*
G01*
X1720Y311D02*
G75*
G02X1653I-34D01*
G01*
G75*
G02X1720I34*
G01*
Y1886D02*
G75*
G02X1653I-34D01*
G01*
G75*
G02X1720I34*
G01*
X1757Y818D02*
G75*
G02X1809I26D01*
G01*
G75*
G02X1757I-26*
G01*
X1759Y734D02*
G75*
G02X1811I26D01*
G01*
G75*
G02X1759I-26*
G01*
X1822Y368D02*
G75*
G02X1898I38D01*
G01*
G75*
G02X1822I-38*
G01*
X1825Y1755D02*
G75*
G03X1848Y1732I28J5D01*
G01*
Y1722*
G75*
G02X1815Y1755I5J38*
G01*
X1825*
X1826Y1350D02*
G75*
G03X1849Y1327I28J5D01*
G01*
Y1317*
G75*
G02X1816Y1350I5J38*
G01*
X1826*
X1848Y1788D02*
G75*
G03X1825Y1765I5J-28D01*
G01*
X1815*
G75*
G02X1848Y1798I38J-5*
G01*
Y1788*
X1858Y1732D02*
G75*
G03X1880Y1755I-5J28D01*
G01*
X1890*
G75*
G02X1858Y1722I-38J5*
G01*
Y1732*
X1859Y1327D02*
G75*
G03X1881Y1350I-5J28D01*
G01*
X1891*
G75*
G02X1859Y1317I-38J5*
G01*
Y1327*
X1866Y1043D02*
G75*
G02X1918I26D01*
G01*
G75*
G02X1866I-26*
G01*
X1872Y1175D02*
G75*
G03X1895Y1152I28J5D01*
G01*
Y1142*
G75*
G02X1862Y1175I5J38*
G01*
X1872*
X1878Y512D02*
G75*
G02X1930I26D01*
G01*
G75*
G02X1878I-26*
G01*
X1880Y1765D02*
G75*
G03X1858Y1788I-28J-5D01*
G01*
Y1798*
G75*
G02X1890Y1765I-5J-38*
G01*
X1880*
X1881Y1104D02*
G75*
G02X1933I26D01*
G01*
G75*
G02X1881I-26*
G01*
X1881Y1360D02*
G75*
G03X1859Y1383I-28J-5D01*
G01*
Y1393*
G75*
G02X1891Y1360I-5J-38*
G01*
X1881*
X1895Y1208D02*
G75*
G03X1872Y1185I5J-28D01*
G01*
X1862*
G75*
G02X1895Y1218I38J-5*
G01*
Y1208*
X1902Y1893D02*
G75*
G03X1925Y1870I28J5D01*
G01*
Y1860*
G75*
G02X1892Y1893I5J38*
G01*
X1902*
X1905Y1152D02*
G75*
G03X1927Y1175I-5J28D01*
G01*
X1937*
G75*
G02X1905Y1142I-38J5*
G01*
Y1152*
X1907Y684D02*
G75*
G02X1866Y705I-16J21D01*
G01*
G75*
G02X1918I26*
G01*
G75*
G02X1912Y689I-26*
G01*
G75*
G02X1954Y668I16J-21*
G01*
G75*
G02X1902I-26*
G01*
G75*
G02X1907Y684I26*
G01*
X1925Y1926D02*
G75*
G03X1902Y1903I5J-28D01*
G01*
X1892*
G75*
G02X1925Y1936I38J-5*
G01*
Y1926*
X1927Y1185D02*
G75*
G03X1905Y1208I-28J-5D01*
G01*
Y1218*
G75*
G02X1937Y1185I-5J-38*
G01*
X1927*
X1935Y1870D02*
G75*
G03X1957Y1893I-5J28D01*
G01*
X1967*
G75*
G02X1935Y1860I-38J5*
G01*
Y1870*
X1957Y1903D02*
G75*
G03X1935Y1926I-28J-5D01*
G01*
Y1936*
G75*
G02X1967Y1903I-5J-38*
G01*
X1957*
X1972Y343D02*
G75*
G02X2048I38D01*
G01*
G75*
G02X1972I-38*
G01*
X1974Y695D02*
X2054D01*
Y615*
X1974*
Y695*
X1982Y1898D02*
G75*
G02X2058I38D01*
G01*
G75*
G02X1982I-38*
G01*
X1990Y770D02*
G75*
G02Y873J51D01*
G01*
G75*
G02Y770J-51*
G01*
Y1172D02*
G75*
G02Y1275J51D01*
G01*
G75*
G02Y1172J-51*
G01*
X1994Y1515D02*
G75*
G02X2046I26D01*
G01*
G75*
G02X1994I-26*
G01*
X2001Y1372D02*
G75*
G02X2053I26D01*
G01*
G75*
G02X2001I-26*
G01*
X2024Y1575D02*
G75*
G02X2076I26D01*
G01*
G75*
G02X2024I-26*
G01*
X3Y1428D02*
G36*
Y1376D01*
X543*
G75*
G03X506Y1428I-315J-189*
G01*
X496*
G75*
G02X514Y1403I-7J-25*
G01*
G75*
G02X466Y1390I-26*
G01*
X143*
G75*
G02X86Y1428J63*
G01*
X3*
G37*
X86D02*
G36*
X86Y1428D01*
G75*
G02X67Y1453I8J25*
G01*
G75*
G02X119I26*
G01*
G75*
G02X112Y1434I-26*
G01*
G75*
G03X116Y1428I32J19*
G01*
X142*
G75*
G02X132Y1448I17J20*
G01*
G75*
G02X181Y1460I26*
G01*
X316*
G75*
G02X364Y1448I23J-13*
G01*
G75*
G02X355Y1428I-26*
G01*
X481*
G75*
G02X496I7J-25*
G01*
X506*
G75*
G03X421Y1500I-278J-240*
G01*
X289*
G75*
G02X289Y1498I-26J-3*
G01*
G75*
G02X241Y1485I-26*
G01*
X187*
G75*
G02X143Y1500I-19J18*
G01*
X3*
Y1428*
X86*
G37*
X116D02*
G36*
G75*
G03X143Y1415I27J25D01*
G01*
X466*
G75*
G02X481Y1428I23J-13*
G01*
X355*
G75*
G02X316Y1435I-17J20*
G01*
X181*
G75*
G02X142Y1428I-23J13*
G01*
X116*
G37*
X639D02*
G36*
G75*
G02X639Y1426I-26J5D01*
G01*
X688Y1376*
X1028*
G75*
G02X1028Y1408I20J16*
G01*
G75*
G02X993Y1428I-9J24*
G01*
X639*
G37*
X993D02*
G36*
G75*
G02X1001Y1452I26J5D01*
G01*
X995*
G75*
G02X985Y1456J13*
G01*
X949Y1492*
G75*
G02X924Y1500I-6J25*
G01*
X521*
G75*
G02X619Y1355I-277J-293*
G01*
G75*
G02X660Y1367I25J-7*
G01*
X620Y1407*
G75*
G02X587Y1433I-7J25*
G01*
G75*
G02X639I26*
G01*
G75*
G02X639Y1428I-26J0*
G01*
X993*
G37*
X1659D02*
G36*
X1608Y1376D01*
X1610*
X1661Y1428*
X1659*
G37*
X1661D02*
G36*
X1733Y1500D01*
X1731*
X1659Y1428*
X1661*
G37*
X1781D02*
G36*
G75*
G02X1735Y1443I-21J16D01*
G01*
G75*
G02X1735Y1444I26J0*
G01*
X1667Y1376*
X1793*
X1844Y1428*
X1781*
G37*
X1844D02*
G36*
X1884Y1468D01*
G75*
G02X1894Y1472I9J-9*
G01*
X1906*
G75*
G02X1954Y1457I21J-15*
G01*
G75*
G02X1904Y1446I-26*
G01*
X1899*
X1880Y1428*
X2241*
Y1500*
X2041*
G75*
G02X1998I-21J15*
G01*
X1806*
G75*
G02X1818Y1478I-14J-22*
G01*
G75*
G02X1785Y1453I-26*
G01*
G75*
G02X1787Y1443I-24J-10*
G01*
G75*
G02X1781Y1428I-26J0*
G01*
X1844*
G37*
X1880D02*
G36*
X1845Y1392D01*
G75*
G02X1849Y1393I9J-37*
G01*
Y1383*
G75*
G03X1835Y1376I5J-28*
G01*
X1872*
G75*
G03X1859Y1383I-18J-21*
G01*
Y1393*
G75*
G02X1885Y1376I-5J-38*
G01*
X2001*
G75*
G02X2052I26J-4*
G01*
X2241*
Y1428*
X1880*
G37*
X3Y968D02*
G36*
Y937D01*
X942*
G75*
G02X938Y948I21J15*
G01*
X948*
G75*
G03X958Y937I15J5*
G01*
Y937*
X968*
Y937*
G75*
G03X979Y948I-5J15*
G01*
X989*
G75*
G02X985Y937I-26J5*
G01*
X1004*
X984Y958*
X979*
G75*
G03X969Y968I-15J-5*
G01*
X958*
G75*
G03X948Y958I6J-15*
G01*
X938*
G75*
G02X942Y968I26J-5*
G01*
X899*
G75*
G02X847I-26*
G01*
X174*
G75*
G02X122I-26*
G01*
X3*
G37*
X122D02*
G36*
G75*
G02X174I26D01*
G01*
X847*
G75*
G02X899I26*
G01*
X942*
G75*
G02X958Y978I21J-15*
G01*
Y968*
X969Y968*
G75*
G03X968Y968I-6J-15*
G01*
Y973*
X953Y988*
G75*
G02X927Y1014I-1J26*
G01*
G75*
G02X928Y1023I26J0*
G01*
X734*
G75*
G02X734Y1018I-26J-5*
G01*
G75*
G02X682I-26*
G01*
G75*
G02X683Y1023I26J0*
G01*
X174*
G75*
G02X122I-26*
G01*
X3*
Y968*
X122*
G37*
X1025D02*
G36*
X1055Y937D01*
X1500*
G75*
G02X1490Y958I16J21*
G01*
G75*
G02X1491Y968I26*
G01*
X1420*
G75*
G02X1377I-21J15*
G01*
X1025*
G37*
X1377D02*
G36*
G75*
G02X1372Y983I21J15D01*
G01*
G75*
G02X1424I26*
G01*
G75*
G02X1420Y968I-26*
G01*
X1491*
G75*
G02X1540I24J-9*
G01*
X1683*
Y1023*
X1325*
G75*
G02X1282I-21J15*
G01*
X977*
G75*
G02X979Y1014I-25J-8*
G01*
G75*
G02X979Y1013I-26J0*
G01*
X1025Y968*
X1377*
G37*
X1540D02*
G36*
G75*
G02X1542Y958I-24J-9D01*
G01*
G75*
G02X1531Y937I-26*
G01*
X1683*
Y968*
X1540*
G37*
X1709D02*
G36*
Y937D01*
X2241*
Y968*
X1709*
G37*
X2241D02*
G36*
Y1023D01*
X1908*
G75*
G02X1876I-16J21*
G01*
X1709*
Y968*
X2241*
G37*
X122Y1023D02*
G36*
G75*
G02X174I26D01*
G01*
X683*
G75*
G02X734I26J-5*
G01*
X928*
G75*
G02X977I25J-8*
G01*
X1282*
G75*
G02X1281Y1025I21J15*
G01*
X1008*
G75*
G02X999Y1028J13*
G01*
X945Y1083*
X3*
Y1023*
X122*
G37*
X1683D02*
G36*
Y1083D01*
X1535*
X1483Y1030*
G75*
G02X1474Y1026I-9J9*
G01*
X1327*
G75*
G02X1325Y1023I-23J11*
G01*
X1683*
G37*
X1876D02*
G36*
G75*
G02X1866Y1043I16J21D01*
G01*
G75*
G02X1918I26*
G01*
G75*
G02X1908Y1023I-26*
G01*
X2241*
Y1083*
X1921*
G75*
G02X1892I-15J22*
G01*
X1709*
Y1023*
X1876*
G37*
X143Y1500D02*
G36*
G75*
G02X142Y1503I26J3D01*
G01*
G75*
G02X193Y1511I26*
G01*
X241*
G75*
G02X289Y1500I23J-13*
G01*
X421*
G75*
G03X228Y1555I-192J-312*
G01*
X159*
G75*
G02X159Y1553I-26J-2*
G01*
G75*
G02X107I-26*
G01*
G75*
G02X121Y1575I26J0*
G01*
X3*
Y1500*
X143*
G37*
X924D02*
G36*
G75*
G02X917Y1518I19J18D01*
G01*
G75*
G02X969I26*
G01*
G75*
G02X968Y1510I-26*
G01*
X982Y1496*
G75*
G02X980Y1507I24J11*
G01*
G75*
G02X1032I26*
G01*
G75*
G02X1032Y1506I-26J0*
G01*
X1526*
G75*
G02X1574Y1496I23J-13*
G01*
X1597Y1518*
G75*
G02X1596Y1525I25J7*
G01*
G75*
G02X1648I26*
G01*
G75*
G02X1615Y1500I-26*
G01*
X1571Y1456*
G75*
G02X1562Y1452I-9J9*
G01*
X1409*
G75*
G02X1401Y1408I-17J-20*
G01*
G75*
G02X1414Y1363I-5J-26*
G01*
G75*
G02X1428Y1355I-6J-25*
G01*
X1541*
X1734Y1548*
Y1561*
G75*
G02X1686Y1555I-25J7*
G01*
X1443*
G75*
G02X1449Y1538I-20J-17*
G01*
G75*
G02X1397I-26*
G01*
G75*
G02X1404Y1555I26*
G01*
X1016*
G75*
G02X967Y1568I-23J13*
G01*
G75*
G02X969Y1575I26J0*
G01*
X409*
G75*
G02X521Y1500I-165J-368*
G01*
X924*
G37*
X1733D02*
G36*
X1780Y1547D01*
G75*
G02X1790Y1551I9J-9*
G01*
X1874*
X1885Y1561*
G75*
G02X1884Y1568I25J7*
G01*
G75*
G02X1885Y1575I26J0*
G01*
X1766*
Y1541*
G75*
G02X1761Y1530I-16J0*
G01*
X1731Y1500*
X1733*
G37*
X1998D02*
G36*
G75*
G02X1994Y1515I21J15D01*
G01*
G75*
G02X2046I26*
G01*
G75*
G02X2041Y1500I-26*
G01*
X2241*
Y1575*
X2076*
G75*
G02X2024I-26*
G01*
X1935*
G75*
G02X1936Y1568I-25J-7*
G01*
G75*
G02X1926Y1548I-26*
G01*
G75*
G02X1936Y1528I-17J-20*
G01*
G75*
G02X1889Y1512I-26*
G01*
X1803*
X1795Y1504*
G75*
G02X1806Y1500I-3J-26*
G01*
X1998*
G37*
X3Y527D02*
G36*
Y479D01*
X899*
G75*
G02X896Y492I23J13*
G01*
G75*
G02X948I26*
G01*
G75*
G02X947Y485I-26*
G01*
X953Y479*
X988*
G75*
G02X1040I26*
G01*
X1171*
G75*
G02X1219Y464I21J-15*
G01*
G75*
G02X1210Y445I-26*
G01*
X1269*
X1352Y527*
X1090*
G75*
G02X1047I-21J15*
G01*
X675*
G75*
G02X632I-21J15*
G01*
X560*
G75*
G02X517I-21J15*
G01*
X495*
G75*
G02X452I-21J15*
G01*
X432*
G75*
G02X384I-24J10*
G01*
X369*
G75*
G02X317I-26*
G01*
X3*
G37*
X317D02*
G36*
G75*
G02X369I26D01*
G01*
X384*
G75*
G02X382Y538I24J10*
G01*
G75*
G02X434I26*
G01*
G75*
G02X432Y527I-26*
G01*
X452*
G75*
G02X447Y543I21J15*
G01*
G75*
G02X499I26*
G01*
G75*
G02X495Y527I-26*
G01*
X517*
G75*
G02X512Y543I21J15*
G01*
G75*
G02X564I26*
G01*
G75*
G02X560Y527I-26*
G01*
X632*
G75*
G02X627Y543I21J15*
G01*
G75*
G02X679I26*
G01*
G75*
G02X675Y527I-26*
G01*
X1047*
G75*
G02X1042Y543I21J15*
G01*
G75*
G02X1094I26*
G01*
G75*
G02X1090Y527I-26*
G01*
X1352*
X1419Y595*
G75*
G02X1429Y599I9J-9*
G01*
X1432*
G75*
G02X1481Y586I23J-13*
G01*
G75*
G02X1433Y572I-26*
G01*
X1388Y527*
X1640*
Y554*
G75*
G02X1643Y563I13*
G01*
X1685Y604*
Y609*
G75*
G02X1674Y630I15J21*
G01*
G75*
G02X1674Y632I26J0*
G01*
X1435*
G75*
G02X1383I-26*
G01*
X3*
Y527*
X317*
G37*
X1388D02*
G36*
X1340Y479D01*
X1640*
Y527*
X1388*
G37*
X1715D02*
G36*
G75*
G02X1712Y526I-16J21D01*
G01*
G75*
G02X1723Y509I-14J-22*
G01*
X1713*
G75*
G03X1703Y519I-15J-5*
G01*
Y522*
G75*
G02X1693Y523I-4J26*
G01*
Y519*
G75*
G03X1682Y509I5J-15*
G01*
X1672*
G75*
G02X1684Y526I26J-5*
G01*
G75*
G02X1674Y557I14J22*
G01*
X1666Y549*
Y479*
X1683*
G75*
G02X1686Y481I15J-21*
G01*
G75*
G02X1672Y499I12J23*
G01*
X1682*
G75*
G03X1693Y489I15J5*
G01*
Y483*
G75*
G02X1703Y484I6J-25*
G01*
Y489*
G75*
G03X1713Y499I-5J15*
G01*
X1723*
G75*
G02X1710Y481I-26J5*
G01*
G75*
G02X1721Y471I-12J-23*
G01*
X2003*
X2047Y515*
X1974*
Y527*
X1925*
G75*
G02X1930Y512I-21J-15*
G01*
G75*
G02X1878I-26*
G01*
G75*
G02X1883Y527I26*
G01*
X1715*
G37*
X1883D02*
G36*
G75*
G02X1925I21J-15D01*
G01*
X1974*
Y595*
X2054*
Y521*
X2088Y555*
Y632*
X2054*
Y615*
X1974*
Y632*
X1726*
G75*
G02X1726Y630I-26J-2*
G01*
G75*
G02X1711Y606I-26*
G01*
Y599*
G75*
G02X1707Y590I-13*
G01*
X1689Y572*
G75*
G02X1715Y527I9J-24*
G01*
X1883*
G37*
X2096D02*
G36*
X2048Y479D01*
X2241*
Y527*
X2096*
G37*
X2241D02*
G36*
Y632D01*
X2114*
Y550*
G75*
G02X2110Y541I-13*
G01*
X2096Y527*
X2241*
G37*
X3Y1173D02*
G36*
Y1083D01*
X945*
X663Y1364*
G75*
G02X629Y1326I-20J-17*
G01*
G75*
G02X646Y1208I-385J-119*
G01*
Y1205*
G75*
G02X650Y1163I-13J-23*
G01*
G75*
G02X659Y1143I-17J-20*
G01*
G75*
G02X610Y1131I-26*
G01*
G75*
G02X595Y1153I8J21*
G01*
Y1173*
X505*
G75*
G02X509Y1158I-21J-15*
G01*
G75*
G02X457I-26*
G01*
G75*
G02X462Y1173I26*
G01*
X414*
G75*
G02X366Y1159I-26*
G01*
G75*
G02X318Y1165I-23J13*
G01*
G75*
G02X267Y1173I-25J7*
G01*
X3*
G37*
X267D02*
G36*
G75*
G02X318Y1180I26D01*
G01*
G75*
G02X366Y1186I25J-7*
G01*
G75*
G02X414Y1173I23J-13*
G01*
X462*
G75*
G02X505I21J-15*
G01*
X595*
Y1188*
G75*
G03X595Y1208I-367J0*
G01*
X3*
Y1173*
X267*
G37*
X892D02*
G36*
X982Y1083D01*
X1132*
G75*
G02X1184I26*
G01*
X1227*
G75*
G02X1217Y1103I17J20*
G01*
G75*
G02X1263Y1120I26*
G01*
X1270Y1127*
G75*
G02X1280Y1131I9J-9*
G01*
X1364*
X1406Y1173*
X1309*
G75*
G02X1257I-26*
G01*
X892*
G37*
X1257D02*
G36*
G75*
G02X1309I26D01*
G01*
X1406*
X1441Y1208*
X1134*
G75*
G02X1082I-26*
G01*
X857*
X892Y1173*
X1257*
G37*
X1463D02*
G36*
X1387Y1096D01*
G75*
G02X1378Y1092I-9J9*
G01*
X1335*
X1325Y1083*
X1499*
X1589Y1173*
X1463*
G37*
X1589D02*
G36*
X1624Y1208D01*
X1498*
X1463Y1173*
X1589*
G37*
X1625D02*
G36*
X1535Y1083D01*
X1683*
Y1113*
G75*
G02X1657Y1139J26*
G01*
G75*
G02X1709I26*
G01*
G75*
G02X1707Y1131I-26J0*
G01*
G75*
G02X1709Y1126I-12J-5*
G01*
Y1083*
X1892*
G75*
G02X1881Y1104I15J22*
G01*
G75*
G02X1933I26*
G01*
G75*
G02X1921Y1083I-26*
G01*
X2241*
Y1173*
X1998*
G75*
G02X1990Y1172I-8J51*
G01*
G75*
G02X1982Y1173J51*
G01*
X1937*
G75*
G02X1905Y1142I-37J8*
G01*
Y1152*
G75*
G03X1927Y1173I-5J28*
G01*
X1873*
G75*
G03X1895Y1152I27J8*
G01*
Y1142*
G75*
G02X1862Y1173I5J38*
G01*
X1625*
G37*
X1862D02*
G36*
G75*
G02X1862Y1175I37J8D01*
G01*
X1872*
G75*
G03X1873Y1173I28J5*
G01*
X1927*
G75*
G03X1927Y1175I-27J8*
G01*
X1937*
G75*
G02X1937Y1173I-38J5*
G01*
X1982*
G75*
G02X1941Y1208I8J51*
G01*
X1926*
G75*
G02X1937Y1185I-26J-27*
G01*
X1927*
G75*
G03X1905Y1208I-28J-5*
G01*
X1894*
G75*
G03X1872Y1185I5J-27*
G01*
X1862*
G75*
G02X1873Y1208I38J-5*
G01*
X1736*
G75*
G02X1685I-26J5*
G01*
X1660*
X1625Y1173*
X1862*
G37*
X2241D02*
G36*
Y1208D01*
X2039*
G75*
G02X1998Y1173I-49J16*
G01*
X2241*
G37*
X3Y311D02*
G36*
Y282D01*
X317*
G75*
G02X301Y311I17J29*
G01*
X3*
G37*
X301D02*
G36*
G75*
G02X368I34D01*
G01*
X1218*
Y366*
G75*
G02X1218Y368I13J0*
G01*
X3*
Y311*
X301*
G37*
X368D02*
G36*
G75*
G02X352Y282I-34D01*
G01*
X1218*
Y311*
X368*
G37*
X1244D02*
G36*
Y282D01*
X1407*
G75*
G02X1459I26*
G01*
X1468*
G75*
G02X1467Y288I26J5*
G01*
G75*
G02X1483Y311I26*
G01*
X1244*
G37*
X1483D02*
G36*
G75*
G02X1500Y313I10J-24D01*
G01*
X1556Y368*
X1251*
X1244Y361*
Y311*
X1483*
G37*
X1536D02*
G36*
X1519Y294D01*
G75*
G02X1519Y288I-25J-7*
G01*
G75*
G02X1519Y282I-26J0*
G01*
X1669*
G75*
G02X1653Y311I17J29*
G01*
X1536*
G37*
X1653D02*
G36*
G75*
G02X1720I34D01*
G01*
X1989*
G75*
G02X1972Y343I20J32*
G01*
G75*
G02X1981Y368I38*
G01*
X1898*
G75*
G02X1822I-38*
G01*
X1592*
X1536Y311*
X1653*
G37*
X1720D02*
G36*
G75*
G02X1704Y282I-34D01*
G01*
X2241*
Y311*
X2030*
G75*
G02X1989I-20J32*
G01*
X1720*
G37*
X2241D02*
G36*
Y368D01*
X2038*
G75*
G02X2048Y343I-29J-25*
G01*
G75*
G02X2030Y311I-38*
G01*
X2241*
G37*
X3Y1886D02*
G36*
Y1838D01*
X1402*
G75*
G02X1454I26*
G01*
X2241*
Y1886*
X2056*
G75*
G02X1984I-36J12*
G01*
X1966*
G75*
G02X1935Y1860I-36J12*
G01*
Y1870*
G75*
G03X1955Y1886I-5J28*
G01*
X1904*
G75*
G03X1925Y1870I25J12*
G01*
Y1860*
G75*
G02X1894Y1886I5J38*
G01*
X1720*
G75*
G02X1653I-34*
G01*
X368*
G75*
G02X301I-34*
G01*
X3*
G37*
X301D02*
G36*
G75*
G02X329Y1919I34D01*
G01*
X3*
Y1886*
X301*
G37*
X1653D02*
G36*
G75*
G02X1681Y1919I34D01*
G01*
X340*
G75*
G02X368Y1886I-5J-33*
G01*
X1653*
G37*
X1894D02*
G36*
G75*
G02X1892Y1893I36J12D01*
G01*
X1902*
G75*
G03X1904Y1886I28J5*
G01*
X1955*
G75*
G03X1957Y1893I-25J12*
G01*
X1967*
G75*
G02X1966Y1886I-38J5*
G01*
X1984*
G75*
G02X1982Y1898I36J12*
G01*
G75*
G02X1988Y1919I38*
G01*
X1961*
G75*
G02X1967Y1903I-31J-21*
G01*
X1957*
G75*
G03X1948Y1919I-28J-5*
G01*
X1911*
G75*
G03X1902Y1903I18J-21*
G01*
X1892*
G75*
G02X1898Y1919I38J-5*
G01*
X1692*
G75*
G02X1720Y1886I-5J-33*
G01*
X1894*
G37*
X2241D02*
G36*
Y1919D01*
X2051*
G75*
G02X2058Y1898I-31J-21*
G01*
G75*
G02X2056Y1886I-38*
G01*
X2241*
G37*
X3Y1263D02*
G36*
Y1208D01*
X595*
G75*
G03X588Y1263I-367J-20*
G01*
X491*
G75*
G02X415I-38*
G01*
X3*
G37*
X415D02*
G36*
G75*
G02X491I38D01*
G01*
X588*
G75*
G03X565Y1334I-359J-75*
G01*
X3*
Y1263*
X415*
G37*
X802D02*
G36*
X857Y1208D01*
X1082*
G75*
G02X1134I26*
G01*
X1441*
X1496Y1263*
X802*
G37*
X1496D02*
G36*
X1567Y1334D01*
X1565*
X1559Y1328*
G75*
G02X1548Y1323I-11J11*
G01*
X1430*
G75*
G02X1383Y1334I-22J14*
G01*
X731*
X802Y1263*
X1496*
G37*
X1553D02*
G36*
X1498Y1208D01*
X1624*
X1679Y1263*
X1553*
G37*
X1679D02*
G36*
X1708Y1292D01*
G75*
G02X1677Y1318I-5J26*
G01*
G75*
G02X1683Y1334I26*
G01*
X1625*
X1553Y1263*
X1679*
G37*
X1715D02*
G36*
X1660Y1208D01*
X1685*
G75*
G02X1685Y1212I26J5*
G01*
G75*
G02X1737I26*
G01*
G75*
G02X1736Y1208I-26J0*
G01*
X1873*
G75*
G02X1895Y1218I26J-27*
G01*
Y1208*
X1894Y1208*
X1905*
X1905Y1208*
Y1218*
G75*
G02X1926Y1208I-5J-38*
G01*
X1941*
G75*
G02X1957Y1263I49J16*
G01*
X1715*
G37*
X1957D02*
G36*
G75*
G02X1990Y1275I33J-39D01*
G01*
G75*
G02X2023Y1263J-51*
G01*
X2241*
Y1334*
X1885*
G75*
G02X1859Y1317I-31J21*
G01*
Y1327*
G75*
G03X1872Y1334I-5J28*
G01*
X1835*
G75*
G03X1849Y1327I18J21*
G01*
Y1317*
G75*
G02X1822Y1334I5J38*
G01*
X1787*
X1715Y1263*
X1957*
G37*
X2023D02*
G36*
G75*
G02X2039Y1208I-33J-39D01*
G01*
X2241*
Y1263*
X2023*
G37*
X3Y1738D02*
G36*
Y1575D01*
X121*
G75*
G02X125Y1577I13J-23*
G01*
G75*
G02X133Y1581I9J-9*
G01*
X170*
G75*
G02X157Y1603I14J22*
G01*
G75*
G02X208Y1611I26*
G01*
X243*
G75*
G02X409Y1575I0J-403*
G01*
X969*
G75*
G02X1016Y1581I25J-8*
G01*
X1686*
G75*
G02X1734Y1574I23J-13*
G01*
Y1721*
G75*
G02X1741Y1735I16*
G01*
X1743Y1736*
G75*
G02X1743Y1738I26J-3*
G01*
X1179*
G75*
G02X1127I-26*
G01*
X1104*
G75*
G02X1052I-26*
G01*
X689*
G75*
G02X637I-26*
G01*
X3*
G37*
X637D02*
G36*
G75*
G02X689I26D01*
G01*
X1052*
G75*
G02X1104I26*
G01*
X1127*
G75*
G02X1179I26*
G01*
X1743*
G75*
G02X1794I26J-5*
G01*
X1822*
G75*
G02X1815Y1755I31J23*
G01*
X1825*
G75*
G03X1836Y1738I28J5*
G01*
X1869*
G75*
G03X1880Y1755I-17J23*
G01*
X1890*
G75*
G02X1883Y1738I-38J5*
G01*
X2241*
Y1793*
X1872*
G75*
G02X1890Y1765I-20J-32*
G01*
X1880*
G75*
G03X1858Y1788I-28J-5*
G01*
Y1793*
X1848*
Y1788*
G75*
G03X1825Y1765I5J-28*
G01*
X1815*
G75*
G02X1833Y1793I38J-5*
G01*
X1684*
G75*
G02X1632I-26*
G01*
X3*
Y1738*
X637*
G37*
X1794D02*
G36*
G75*
G02X1794Y1733I-26J-5D01*
G01*
G75*
G02X1766Y1707I-26*
G01*
Y1640*
G75*
G02X1815Y1628I23J-12*
G01*
G75*
G02X1766Y1616I-26*
G01*
Y1575*
X1885*
G75*
G02X1935I25J-7*
G01*
X2024*
G75*
G02X2076I26*
G01*
X2241*
Y1738*
X1883*
G75*
G02X1858Y1722I-31J23*
G01*
Y1732*
G75*
G03X1869Y1738I-5J28*
G01*
X1836*
G75*
G03X1848Y1732I17J23*
G01*
Y1722*
G75*
G02X1822Y1738I5J38*
G01*
X1794*
G37*
X3Y788D02*
G36*
Y733D01*
X852*
G75*
G02X904I26*
G01*
X1126*
G75*
G02X1117Y737I4J18*
G01*
X1095Y759*
G75*
G02X1090Y772I13J13*
G01*
Y788*
X889*
G75*
G02X837I-26*
G01*
X3*
G37*
X837D02*
G36*
G75*
G02X889I26D01*
G01*
X1090*
Y818*
X891*
G75*
G02X876I-7J25*
G01*
X3*
Y788*
X837*
G37*
X1126D02*
G36*
Y779D01*
X1137Y768*
X1416*
G75*
G02X1461Y750I19J-18*
G01*
G75*
G02X1454Y733I-26*
G01*
X1617*
X1672Y788*
X1336*
G75*
G02X1296I-20J17*
G01*
X1126*
G37*
X1296D02*
G36*
G75*
G02X1290Y804I20J17D01*
G01*
G75*
G02X1293Y818I26J0*
G01*
X1126*
Y788*
X1296*
G37*
X1672D02*
G36*
X1683Y798D01*
Y818*
X1389*
G75*
G02X1341Y808I-26J4*
G01*
G75*
G02X1342Y804I-26J-4*
G01*
G75*
G02X1336Y788I-26*
G01*
X1672*
G37*
X1745D02*
G36*
G75*
G02X1747Y778I-24J-9D01*
G01*
G75*
G02X1695Y774I-26*
G01*
X1653Y733*
X1759*
G75*
G02X1759Y734I26J2*
G01*
G75*
G02X1811I26*
G01*
G75*
G02X1811Y733I-26J0*
G01*
X2039*
G75*
G02X2039Y736I26J4*
G01*
G75*
G02X2091I26*
G01*
G75*
G02X2090Y733I-26J0*
G01*
X2241*
Y788*
X2028*
G75*
G02X1990Y770I-38J34*
G01*
G75*
G02X1951Y788J51*
G01*
X1745*
G37*
X1951D02*
G36*
G75*
G02X1939Y818I38J34D01*
G01*
X1809*
G75*
G02X1757I-26*
G01*
X1709*
Y801*
G75*
G02X1745Y788I12J-23*
G01*
X1951*
G37*
X2241D02*
G36*
Y818D01*
X2041*
G75*
G02X2028Y788I-51J4*
G01*
X2241*
G37*
X3Y733D02*
G36*
Y687D01*
X1470*
G75*
G02X1504Y676I11J-23*
G01*
X1560*
X1617Y733*
X1454*
G75*
G02X1416Y732I-19J18*
G01*
X1130*
G75*
G02X1126Y733J18*
G01*
X904*
G75*
G02X852I-26*
G01*
X3*
G37*
X1653D02*
G36*
X1608Y687D01*
X1873*
G75*
G02X1866Y705I18J19*
G01*
G75*
G02X1918I26*
G01*
G75*
G02X1912Y689I-26*
G01*
G75*
G02X1946Y687I16J-21*
G01*
X1974*
Y695*
X2054*
Y687*
X2088*
Y695*
X2071Y711*
G75*
G02X2039Y733I-7J25*
G01*
X1811*
G75*
G02X1759I-26J2*
G01*
X1653*
G37*
X2090D02*
G36*
G75*
G02X2090Y729I-26J4D01*
G01*
X2110Y709*
G75*
G02X2114Y700I-9J-9*
G01*
Y687*
X2241*
Y733*
X2090*
G37*
X3Y868D02*
G36*
Y857D01*
X862*
G75*
G02X874Y867I21J-15*
G01*
G75*
G02X871Y868I4J26*
G01*
X3*
G37*
X871D02*
G36*
G75*
G02X853Y888I7J25D01*
G01*
X3*
Y868*
X871*
G37*
X891D02*
G36*
G75*
G02X905Y857I-7J-25D01*
G01*
X1084*
X1074Y868*
X891*
G37*
X1074D02*
G36*
X1053Y888D01*
X904*
G75*
G02X888Y868I-26J5*
G01*
G75*
G02X891Y868I-4J-26*
G01*
X1074*
G37*
X1124D02*
G36*
G75*
G02X1126Y859I-16J-8D01*
G01*
Y857*
X1135*
G75*
G02X1135Y862I38J5*
G01*
G75*
G02X1135Y868I38J0*
G01*
X1124*
G37*
X1135D02*
G36*
G75*
G02X1145Y888I38J-5D01*
G01*
X1104*
X1120Y872*
G75*
G02X1124Y868I-13J-13*
G01*
X1135*
G37*
X1210D02*
G36*
G75*
G02X1211Y862I-38J-5D01*
G01*
G75*
G02X1210Y857I-38J0*
G01*
X1272*
G75*
G02X1257Y868I6J25*
G01*
X1210*
G37*
X1257D02*
G36*
G75*
G02X1252Y883I21J15D01*
G01*
G75*
G02X1253Y888I26J0*
G01*
X1201*
G75*
G02X1210Y868I-28J-26*
G01*
X1257*
G37*
X1300D02*
G36*
G75*
G02X1285Y857I-21J15D01*
G01*
X1357*
G75*
G02X1353Y868I21J15*
G01*
X1363*
G75*
G03X1373Y857I15J5*
G01*
Y857*
X1383*
Y857*
G75*
G03X1394Y868I-5J15*
G01*
X1404*
G75*
G02X1400Y857I-26J5*
G01*
X1500*
G75*
G02X1500Y861I26J4*
G01*
G75*
G02X1500Y868I26J0*
G01*
X1300*
G37*
X1500D02*
G36*
G75*
G02X1551I25J-6D01*
G01*
X1683*
Y888*
X1443*
G75*
G02X1413I-15J21*
G01*
X1400*
G75*
G02X1404Y877I-21J-15*
G01*
X1394*
G75*
G03X1383Y888I-15J-5*
G01*
Y888*
X1373*
Y888*
G75*
G03X1363Y877I5J-15*
G01*
X1353*
G75*
G02X1357Y888I26J-5*
G01*
X1304*
G75*
G02X1304Y883I-25J-5*
G01*
G75*
G02X1300Y868I-26*
G01*
X1500*
G37*
X1551D02*
G36*
G75*
G02X1552Y861I-25J-6D01*
G01*
G75*
G02X1551Y857I-26J0*
G01*
X1683*
Y868*
X1551*
G37*
X1709D02*
G36*
Y857D01*
X1953*
G75*
G02X1967Y868I37J-36*
G01*
X1709*
G37*
X1967D02*
G36*
G75*
G02X1990Y873I23J-46D01*
G01*
G75*
G02X2013Y868J-51*
G01*
X2241*
Y888*
X1709*
Y868*
X1967*
G37*
X2013D02*
G36*
G75*
G02X2027Y857I-23J-46D01*
G01*
X2241*
Y868*
X2013*
G37*
X3Y937D02*
G36*
Y888D01*
X853*
G75*
G02X852Y892I26J5*
G01*
G75*
G02X904I26*
G01*
G75*
G02X904Y888I-26J0*
G01*
X1053*
X1004Y937*
X985*
G75*
G02X968Y927I-21J15*
G01*
Y937*
X958*
Y927*
G75*
G02X942Y937I5J26*
G01*
X3*
G37*
X1055D02*
G36*
X1104Y888D01*
X1145*
G75*
G02X1201I28J-26*
G01*
X1253*
G75*
G02X1304I25J-5*
G01*
X1357*
G75*
G02X1373Y898I21J-15*
G01*
Y888*
X1383*
Y898*
G75*
G02X1400Y888I-5J-26*
G01*
X1413*
G75*
G02X1402Y909I15J21*
G01*
G75*
G02X1454I26*
G01*
G75*
G02X1443Y888I-26*
G01*
X1683*
Y937*
X1531*
G75*
G02X1500I-16J21*
G01*
X1055*
G37*
X1709D02*
G36*
Y888D01*
X2241*
Y937*
X1709*
G37*
X3Y479D02*
G36*
Y368D01*
X1218*
G75*
G02X1221Y375I13J-2*
G01*
X1265Y419*
X982*
G75*
G02X972Y423J13*
G01*
X928Y467*
G75*
G02X899Y479I-7J25*
G01*
X3*
G37*
X953D02*
G36*
X987Y445D01*
X1175*
G75*
G02X1167Y464I18J19*
G01*
G75*
G02X1171Y479I26*
G01*
X1040*
G75*
G02X988I-26*
G01*
X953*
G37*
X1340D02*
G36*
X1295Y434D01*
X1348*
G75*
G02X1399Y425I24J-9*
G01*
G75*
G02X1353Y408I-26*
G01*
X1291*
X1251Y368*
X1556*
X1640Y452*
Y479*
X1340*
G37*
X1666D02*
G36*
Y447D01*
G75*
G02X1662Y437I-13*
G01*
X1592Y368*
X1822*
G75*
G02X1898I38*
G01*
X1981*
G75*
G02X2038I29J-25*
G01*
X2241*
Y479*
X2048*
X2018Y449*
G75*
G02X2009Y445I-9J9*
G01*
X1721*
G75*
G02X1713Y436I-23J13*
G01*
G75*
G02X1726Y414I-13J-22*
G01*
G75*
G02X1674I-26*
G01*
G75*
G02X1685Y436I26*
G01*
G75*
G02X1683Y479I13J22*
G01*
X1666*
G37*
X982Y1083D02*
G36*
X1014Y1050D01*
X1281*
G75*
G02X1325Y1052I23J-13*
G01*
X1468*
X1499Y1083*
X1325*
X1322Y1079*
G75*
G02X1313Y1075I-9J9*
G01*
X1312*
G75*
G02X1264Y1086I-23J13*
G01*
G75*
G02X1227Y1083I-20J16*
G01*
X1184*
G75*
G02X1132I-26*
G01*
X982*
G37*
X3Y857D02*
G36*
Y818D01*
X876*
G75*
G02X857Y843I7J25*
G01*
G75*
G02X862Y857I26*
G01*
X3*
G37*
X905D02*
G36*
G75*
G02X909Y843I-21J-15D01*
G01*
G75*
G02X891Y818I-26*
G01*
X1090*
Y852*
X1084Y857*
X905*
G37*
X1126D02*
G36*
Y818D01*
X1293*
G75*
G02X1338I22J-13*
G01*
G75*
G02X1338Y821I26J4*
G01*
G75*
G02X1390I26*
G01*
G75*
G02X1389Y818I-26J0*
G01*
X1683*
Y857*
X1551*
G75*
G02X1500I-26J4*
G01*
X1400*
G75*
G02X1383Y847I-21J15*
G01*
Y857*
X1373*
Y847*
G75*
G02X1357Y857I5J26*
G01*
X1285*
G75*
G02X1272I-6J25*
G01*
X1210*
G75*
G02X1135I-38J5*
G01*
X1126*
G37*
X1709D02*
G36*
Y818D01*
X1757*
G75*
G02X1809I26*
G01*
X1939*
G75*
G02X1953Y857I51J4*
G01*
X1709*
G37*
X2027D02*
G36*
G75*
G02X2041Y818I-37J-36D01*
G01*
X2241*
Y857*
X2027*
G37*
X1383Y632D02*
G36*
G75*
G02X1435I26D01*
G01*
X1674*
G75*
G02X1726I26J-2*
G01*
X1974*
Y687*
X1946*
G75*
G02X1954Y668I-18J-19*
G01*
G75*
G02X1902I-26*
G01*
G75*
G02X1907Y684I26*
G01*
G75*
G02X1873Y687I-16J21*
G01*
X1608*
X1575Y654*
G75*
G02X1566Y650I-9J9*
G01*
X1504*
G75*
G02X1456Y663I-23J13*
G01*
G75*
G02X1470Y687I26*
G01*
X3*
Y632*
X1383*
G37*
X2088D02*
G36*
Y687D01*
X2054*
Y632*
X2088*
G37*
X2241D02*
G36*
Y687D01*
X2114*
Y632*
X2241*
G37*
X3Y1838D02*
G36*
Y1793D01*
X1632*
G75*
G02X1684I26*
G01*
X1833*
G75*
G02X1848Y1798I20J-32*
G01*
Y1793*
X1858*
Y1798*
G75*
G02X1872Y1793I-5J-38*
G01*
X2241*
Y1838*
X1454*
G75*
G02X1402I-26*
G01*
X3*
G37*
Y282D02*
G36*
Y178D01*
X942*
G75*
G02X937Y193I21J15*
G01*
G75*
G02X986Y206I26*
G01*
X1200*
X1218Y223*
Y282*
X352*
G75*
G02X317I-17J29*
G01*
X3*
G37*
X1244D02*
G36*
Y218D01*
G75*
G02X1240Y209I-13*
G01*
X1215Y184*
G75*
G02X1206Y180I-9J9*
G01*
X986*
G75*
G02X985Y178I-23J12*
G01*
X1577*
G75*
G02X1593Y188I21J-15*
G01*
Y178*
X1603*
Y188*
G75*
G02X1620Y178I-5J-26*
G01*
X2241*
Y282*
X1704*
G75*
G02X1669I-17J29*
G01*
X1519*
G75*
G02X1468I-26J5*
G01*
X1459*
G75*
G02X1407I-26*
G01*
X1244*
G37*
X3Y147D02*
G36*
Y3D01*
X2241*
Y147*
X1620*
G75*
G02X1603Y137I-21J15*
G01*
Y147*
X1593*
Y137*
G75*
G02X1577Y147I5J26*
G01*
X3*
G37*
X1577D02*
G36*
G75*
G02X1573Y158I21J15D01*
G01*
X1583*
G75*
G03X1593Y147I15J5*
G01*
Y147*
X1603*
Y147*
G75*
G03X1614Y158I-5J15*
G01*
X1624*
G75*
G02X1620Y147I-26J5*
G01*
X2241*
Y178*
X1620*
G75*
G02X1624Y168I-21J-15*
G01*
X1614*
G75*
G03X1603Y178I-15J-5*
G01*
Y178*
X1593*
Y178*
G75*
G03X1583Y168I5J-15*
G01*
X1573*
G75*
G02X1577Y178I26J-5*
G01*
X985*
G75*
G02X942I-21J15*
G01*
X3*
Y147*
X1577*
G37*
X565Y1334D02*
G36*
G75*
G03X543Y1376I-337J-146D01*
G01*
X3*
Y1334*
X565*
G37*
X1383D02*
G36*
G75*
G02X1382Y1338I26J4D01*
G01*
G75*
G02X1391Y1357I26*
G01*
G75*
G02X1374Y1369I6J25*
G01*
X1060*
G75*
G02X1028Y1376I-11J23*
G01*
X688*
X731Y1334*
X1383*
G37*
X1567D02*
G36*
X1610Y1376D01*
X1608*
X1565Y1334*
X1567*
G37*
X1683D02*
G36*
G75*
G02X1729Y1318I20J-16D01*
G01*
G75*
G02X1729Y1313I-26J0*
G01*
X1793Y1376*
X1667*
X1625Y1334*
X1683*
G37*
X1822D02*
G36*
G75*
G02X1816Y1350I31J21D01*
G01*
X1826*
G75*
G03X1835Y1334I28J5*
G01*
X1872*
G75*
G03X1881Y1350I-18J21*
G01*
X1891*
G75*
G02X1885Y1334I-38J5*
G01*
X2241*
Y1376*
X2052*
G75*
G02X2053Y1372I-26J-4*
G01*
G75*
G02X2001I-26*
G01*
G75*
G02X2001Y1376I26J0*
G01*
X1885*
G75*
G02X1891Y1360I-31J-21*
G01*
X1881*
G75*
G03X1872Y1376I-28J-5*
G01*
X1835*
G75*
G03X1826Y1360I18J-21*
G01*
X1816*
G75*
G02X1817Y1364I38J-5*
G01*
X1787Y1334*
X1822*
G37*
X329Y1919D02*
G36*
G75*
G02X340I5J-33D01*
G01*
X1681*
G75*
G02X1692I5J-33*
G01*
X1898*
G75*
G02X1925Y1936I31J-21*
G01*
Y1926*
G75*
G03X1911Y1919I5J-28*
G01*
X1948*
G75*
G03X1935Y1926I-18J-21*
G01*
Y1936*
G75*
G02X1961Y1919I-5J-38*
G01*
X1988*
G75*
G02X2051I31J-21*
G01*
X2241*
Y2038*
X3*
Y1919*
X329*
G37*
X197Y1581D02*
X228D01*
G75*
G02X620Y1217J-393*
G01*
G75*
G03X243Y1585I-377J-10*
G01*
X202*
G75*
G02X197Y1581I-19J18*
G01*
G36*
X228*
G75*
G02X620Y1217J-393*
G01*
G75*
G03X243Y1585I-377J-10*
G01*
X202*
G75*
G02X197Y1581I-19J18*
G01*
G37*
X995Y1484D02*
X1000Y1478D01*
X1527*
G75*
G02X1526Y1480I22J14*
G01*
X1020*
G75*
G02X1013Y1482J13*
G01*
G75*
G02X995Y1484I-7J25*
G01*
G36*
X1000Y1478*
X1527*
G75*
G02X1526Y1480I22J14*
G01*
X1020*
G75*
G02X1013Y1482J13*
G01*
G75*
G02X995Y1484I-7J25*
G01*
G37*
X1036Y1452D02*
G75*
G02X1044Y1433I-17J-20D01*
G01*
G75*
G02X1039Y1417I-26*
G01*
G75*
G02X1074Y1395I9J-24*
G01*
X1374*
G75*
G02X1388Y1406I23J-13*
G01*
G75*
G02X1367Y1432I5J26*
G01*
G75*
G02X1376Y1452I26*
G01*
X1036*
G36*
G75*
G02X1044Y1433I-17J-20*
G01*
G75*
G02X1039Y1417I-26*
G01*
G75*
G02X1074Y1395I9J-24*
G01*
X1374*
G75*
G02X1388Y1406I23J-13*
G01*
G75*
G02X1367Y1432I5J26*
G01*
G75*
G02X1376Y1452I26*
G01*
X1036*
G37*
X1309Y1105D02*
G75*
G02X1310Y1104I-20J-17D01*
G01*
X1311Y1105*
X1309*
G36*
G75*
G02X1310Y1104I-20J-17*
G01*
X1311Y1105*
X1309*
G37*
X1760Y1469D02*
G75*
G02X1768Y1468I1J-26D01*
G01*
G75*
G02X1766Y1475I24J10*
G01*
X1760Y1469*
G36*
G75*
G02X1768Y1468I1J-26*
G01*
G75*
G02X1766Y1475I24J10*
G01*
X1760Y1469*
G37*
D02*
D24*
X334Y311D03*
Y1886D03*
X1686Y311D03*
Y1886D03*
D02*
D28*
X2014Y555D03*
Y655D03*
D02*
D73*
X1990Y822D03*
Y1223D03*
D02*
D74*
X93Y1453D03*
X133Y1553D03*
X148Y968D03*
Y1023D03*
X158Y1448D03*
X168Y1503D03*
X183Y1603D03*
X263Y1498D03*
X293Y1173D03*
X338Y1448D03*
X343Y527D03*
Y1173D03*
X388D03*
X408Y538D03*
X473Y543D03*
X483Y1158D03*
X488Y1403D03*
X538Y543D03*
X613Y1433D03*
X633Y1143D03*
Y1183D03*
X643Y1348D03*
X653Y543D03*
X663Y1738D03*
X708Y1018D03*
X863Y788D03*
X873Y968D03*
X878Y733D03*
Y892D03*
X883Y843D03*
X922Y492D03*
X943Y1518D03*
X953Y1014D03*
X963Y193D03*
Y953D03*
X993Y1568D03*
X1006Y1507D03*
X1014Y479D03*
X1018Y1433D03*
X1048Y1393D03*
X1068Y543D03*
X1078Y1738D03*
X1108Y1208D03*
X1153Y1738D03*
X1158Y1083D03*
X1193Y464D03*
X1243Y1103D03*
X1278Y883D03*
X1283Y1173D03*
X1290Y1088D03*
X1303Y1038D03*
X1316Y804D03*
X1364Y821D03*
X1373Y425D03*
X1378Y873D03*
X1393Y1432D03*
X1397Y1382D03*
X1398Y983D03*
X1408Y1338D03*
X1409Y632D03*
X1423Y1538D03*
X1428Y909D03*
X1428Y1838D03*
X1433Y282D03*
X1435Y750D03*
X1455Y586D03*
X1482Y663D03*
X1493Y288D03*
X1516Y958D03*
X1526Y861D03*
X1548Y1493D03*
X1598Y163D03*
X1622Y1525D03*
X1658Y1793D03*
X1683Y1139D03*
X1698Y504D03*
X1699Y458D03*
Y548D03*
X1700Y414D03*
Y630D03*
X1703Y1318D03*
X1708Y1568D03*
X1711Y1212D03*
X1721Y778D03*
X1761Y1443D03*
X1768Y1733D03*
X1783Y818D03*
X1785Y734D03*
X1789Y1628D03*
X1792Y1478D03*
X1892Y705D03*
Y1043D03*
X1904Y512D03*
X1907Y1104D03*
X1910Y1528D03*
Y1568D03*
X1928Y668D03*
Y1457D03*
X2020Y1515D03*
X2027Y1372D03*
X2050Y1575D03*
X2065Y736D03*
D02*
D75*
X453Y1263D03*
X1173Y862D03*
X1853Y1760D03*
X1854Y1355D03*
X1860Y368D03*
X1900Y1180D03*
X1930Y1898D03*
X2010Y343D03*
X2020Y1898D03*
D02*
D76*
X1435Y750D02*
X1130D01*
X1108Y772*
Y859*
X953Y1014*
D02*
D77*
X263Y1498D02*
X173D01*
G75*
G02X168Y1503J5*
G01*
X338Y1448D02*
X158D01*
X488Y1403D02*
X143D01*
G75*
G02X93Y1453J50*
G01*
X633Y1143D02*
X618D01*
G75*
G02X608Y1153J10*
G01*
Y1188*
G75*
G03X228Y1568I-380*
G01*
X133*
G75*
G03Y1553I8J-8*
G01*
X633Y1183D02*
Y1208D01*
G75*
G03X243Y1598I-390*
G01*
X173*
G75*
G03X183Y1603I3J8*
G01*
X943Y1518D02*
Y1516D01*
X995Y1465*
X1562*
X1622Y1525*
X993Y1568D02*
X1708D01*
X1243Y1103D02*
X1264D01*
X1280Y1118*
X1370*
X1790Y1538*
X1880*
X1910Y1568*
X1290Y1088D02*
X1313D01*
X1330Y1105*
X1378*
X1798Y1525*
X1910*
Y1528*
X1303Y1038D02*
X1008D01*
X613Y1433*
X1373Y425D02*
Y421D01*
X1286*
X1231Y366*
Y218*
X1206Y193*
X964*
X963Y193*
X1397Y1382D02*
X1059D01*
X1048Y1393*
X1455Y586D02*
X1429D01*
X1275Y432*
X982*
X922Y492*
X1482Y663D02*
X1566D01*
X1696Y793*
Y1126*
X1683Y1139*
X1548Y1493D02*
X1020D01*
X1006Y1507*
X1699Y458D02*
X2009D01*
X2101Y550*
Y700*
X2065Y736*
X1700Y630D02*
X1698D01*
Y599*
X1653Y554*
Y447*
X1493Y288*
X1928Y1457D02*
Y1459D01*
X1894*
X1474Y1039*
X1305*
X1303Y1038*
D02*
D78*
X1768Y1733D02*
X1769Y1733D01*
X1750Y1721*
Y1541*
X1548Y1339*
X1408*
Y1338*
X0Y0D02*
M02*
