%FSLAX23Y23*%
%MOIN*%
G04 EasyPC Gerber Version 17.0 Build 3379 *
%ADD98R,0.01181X0.03150*%
%ADD100R,0.01181X0.05118*%
%ADD95R,0.01181X0.07874*%
%ADD97R,0.01378X0.07874*%
%ADD96R,0.01800X0.02000*%
%ADD16R,0.02800X0.03500*%
%ADD25R,0.03937X0.04291*%
%ADD28R,0.06000X0.06000*%
%ADD27R,0.02000X0.01800*%
%ADD17R,0.03500X0.02800*%
%ADD99R,0.05906X0.03543*%
%ADD18R,0.04291X0.03937*%
%ADD74C,0.03200*%
%ADD24C,0.04724*%
%ADD75C,0.05600*%
%ADD73C,0.08268*%
X0Y0D02*
D02*
D16*
X743Y1267D03*
Y1318D03*
X833Y1267D03*
Y1318D03*
X923Y1267D03*
Y1318D03*
X1203Y507D03*
Y558D03*
X1228Y672D03*
Y723D03*
X1313Y642D03*
Y693D03*
X1473Y1317D03*
Y1368D03*
X1528Y1317D03*
Y1368D03*
X1583Y1317D03*
Y1368D03*
X1638Y1317D03*
Y1368D03*
D02*
D17*
X1063Y818D03*
Y877D03*
X1114Y818D03*
Y877D03*
D02*
D18*
X283Y1038D03*
X353D03*
D02*
D24*
X334Y311D03*
Y1886D03*
X1686Y311D03*
Y1886D03*
D02*
D25*
X293Y888D03*
Y958D03*
X1008Y558D03*
Y627D03*
X1133Y498D03*
Y568D03*
X1603Y868D03*
Y938D03*
D02*
D27*
X744Y728D03*
Y788D03*
Y848D03*
Y908D03*
Y968D03*
X774Y728D03*
Y788D03*
Y848D03*
Y908D03*
Y968D03*
D02*
D28*
X2014Y555D03*
Y655D03*
D02*
D73*
X1990Y822D03*
Y1223D03*
D02*
D74*
X93Y1453D03*
X133Y1553D03*
X148Y968D03*
Y1023D03*
X158Y1448D03*
X168Y1503D03*
X183Y1603D03*
X263Y1498D03*
X293Y1173D03*
X338Y1448D03*
X343Y527D03*
Y1173D03*
X388D03*
X408Y538D03*
X473Y543D03*
X483Y1158D03*
X488Y1403D03*
X538Y543D03*
X613Y1433D03*
X633Y1143D03*
Y1183D03*
X643Y1348D03*
X653Y543D03*
X663Y1738D03*
X708Y1018D03*
X863Y788D03*
X873Y968D03*
X878Y733D03*
Y892D03*
X883Y843D03*
X922Y492D03*
X943Y1518D03*
X953Y1014D03*
X963Y193D03*
Y953D03*
X993Y1568D03*
X1006Y1507D03*
X1014Y479D03*
X1018Y1433D03*
X1048Y1393D03*
X1068Y543D03*
X1078Y1738D03*
X1108Y1208D03*
X1153Y1738D03*
X1158Y1083D03*
X1193Y464D03*
X1243Y1103D03*
X1278Y883D03*
X1283Y1173D03*
X1290Y1088D03*
X1303Y1038D03*
X1316Y804D03*
X1364Y821D03*
X1373Y425D03*
X1378Y873D03*
X1393Y1432D03*
X1397Y1382D03*
X1398Y983D03*
X1408Y1338D03*
X1409Y632D03*
X1423Y1538D03*
X1428Y909D03*
X1428Y1838D03*
X1433Y282D03*
X1435Y750D03*
X1455Y586D03*
X1482Y663D03*
X1493Y288D03*
X1516Y958D03*
X1526Y861D03*
X1548Y1493D03*
X1598Y163D03*
X1622Y1525D03*
X1658Y1793D03*
X1683Y1139D03*
X1698Y504D03*
X1699Y458D03*
Y548D03*
X1700Y414D03*
Y630D03*
X1703Y1318D03*
X1708Y1568D03*
X1711Y1212D03*
X1721Y778D03*
X1761Y1443D03*
X1768Y1733D03*
X1783Y818D03*
X1785Y734D03*
X1789Y1628D03*
X1792Y1478D03*
X1892Y705D03*
Y1043D03*
X1904Y512D03*
X1907Y1104D03*
X1910Y1528D03*
Y1568D03*
X1928Y668D03*
Y1457D03*
X2020Y1515D03*
X2027Y1372D03*
X2050Y1575D03*
X2065Y736D03*
D02*
D75*
X453Y1263D03*
X1173Y862D03*
X1853Y1760D03*
X1854Y1355D03*
X1860Y368D03*
X1900Y1180D03*
X1930Y1898D03*
X2010Y343D03*
X2020Y1898D03*
D02*
D95*
X1023Y955D03*
Y1314D03*
X1049Y955D03*
Y1314D03*
X1074Y955D03*
Y1314D03*
X1100Y955D03*
Y1314D03*
X1125Y955D03*
Y1314D03*
X1151Y955D03*
Y1314D03*
X1177Y955D03*
Y1314D03*
X1202Y955D03*
Y1314D03*
X1228Y955D03*
Y1314D03*
X1253Y955D03*
Y1314D03*
X1279Y955D03*
Y1314D03*
X1305Y955D03*
Y1314D03*
X1330Y955D03*
Y1314D03*
X1356Y955D03*
Y1314D03*
D02*
D96*
X343Y641D03*
Y672D03*
X408Y641D03*
Y672D03*
X428Y1032D03*
Y1062D03*
X473Y641D03*
Y672D03*
X493Y1032D03*
Y1062D03*
X538Y641D03*
Y672D03*
X603Y641D03*
Y672D03*
X658Y1257D03*
Y1287D03*
D02*
D97*
X396Y99D03*
Y361D03*
Y1674D03*
Y1935D03*
X428Y99D03*
Y361D03*
Y1674D03*
Y1935D03*
X459Y99D03*
Y361D03*
Y1674D03*
Y1935D03*
X491Y99D03*
Y361D03*
Y1674D03*
Y1935D03*
X522Y99D03*
Y361D03*
Y1674D03*
Y1935D03*
X554Y99D03*
Y361D03*
Y1674D03*
Y1935D03*
X585Y99D03*
Y361D03*
Y1674D03*
Y1935D03*
X617Y99D03*
Y361D03*
Y1674D03*
Y1935D03*
X648Y99D03*
Y361D03*
Y1674D03*
Y1935D03*
X680Y99D03*
Y361D03*
Y1674D03*
Y1935D03*
X711Y99D03*
Y361D03*
Y1674D03*
Y1935D03*
X743Y99D03*
Y361D03*
Y1674D03*
Y1935D03*
X774Y99D03*
Y361D03*
Y1674D03*
Y1935D03*
X806Y99D03*
Y361D03*
Y1674D03*
Y1935D03*
X837Y99D03*
Y361D03*
Y1674D03*
Y1935D03*
X869Y99D03*
Y361D03*
Y1674D03*
Y1935D03*
X900Y99D03*
Y361D03*
Y1674D03*
Y1935D03*
X932Y99D03*
Y361D03*
Y1674D03*
Y1935D03*
X963Y99D03*
Y361D03*
Y1674D03*
Y1935D03*
X995Y99D03*
Y361D03*
Y1674D03*
Y1935D03*
X1026Y99D03*
Y361D03*
Y1674D03*
Y1935D03*
X1058Y99D03*
Y361D03*
Y1674D03*
Y1935D03*
X1089Y99D03*
Y361D03*
Y1674D03*
Y1935D03*
X1121Y99D03*
Y361D03*
Y1674D03*
Y1935D03*
X1152Y99D03*
Y361D03*
Y1674D03*
Y1935D03*
X1184Y99D03*
Y361D03*
Y1674D03*
Y1935D03*
X1215Y99D03*
Y361D03*
Y1674D03*
Y1935D03*
X1247Y99D03*
Y361D03*
Y1674D03*
Y1935D03*
X1278Y99D03*
Y361D03*
Y1674D03*
Y1935D03*
X1310Y99D03*
Y361D03*
Y1674D03*
Y1935D03*
X1341Y99D03*
Y361D03*
Y1674D03*
Y1935D03*
X1373Y99D03*
Y361D03*
Y1674D03*
Y1935D03*
X1404Y99D03*
Y361D03*
Y1674D03*
Y1935D03*
X1436Y99D03*
Y361D03*
Y1674D03*
Y1935D03*
X1467Y99D03*
Y361D03*
Y1674D03*
Y1935D03*
X1499Y99D03*
Y361D03*
Y1674D03*
Y1935D03*
X1530Y99D03*
Y361D03*
Y1674D03*
Y1935D03*
X1562Y99D03*
Y361D03*
Y1674D03*
Y1935D03*
X1593Y99D03*
Y361D03*
Y1674D03*
Y1935D03*
X1625Y99D03*
Y361D03*
Y1674D03*
Y1935D03*
D02*
D98*
X1259Y491D03*
Y574D03*
X1279Y491D03*
Y574D03*
X1298Y491D03*
Y574D03*
X1318Y491D03*
Y574D03*
D02*
D99*
X1288Y532D03*
D02*
D100*
X1473Y514D03*
X1475Y785D03*
X1499Y514D03*
X1500Y785D03*
X1524Y514D03*
X1526Y785D03*
X1550Y514D03*
X1552Y785D03*
X1575Y514D03*
X1577Y785D03*
X1601Y514D03*
X1603Y785D03*
X1626Y514D03*
X1628Y785D03*
X1652Y514D03*
X1654Y785D03*
X0Y0D02*
M02*
