%FSLAX24Y24*%
%MOIN*%
G04 EasyPC Gerber Version 18.0.1 Build 3581 *
%ADD10C,0.00100*%
%ADD99C,0.03200*%
%ADD112C,0.05600*%
%ADD122C,0.08268*%
X0Y0D02*
D02*
D10*
X25Y25D02*
X9474D01*
Y3568*
X25*
Y25*
X1387Y2588D02*
G75*
G02X1907I260D01*
G01*
G75*
G02X1387I-260*
G01*
X2086Y3129D02*
G75*
G02X2606I260D01*
G01*
G75*
G02X2086I-260*
G01*
X2149Y891D02*
G75*
G02X3176I513D01*
G01*
G75*
G02X2149I-513*
G01*
X4517Y2450D02*
G75*
G02X5037I260D01*
G01*
G75*
G02X4517I-260*
G01*
X6165Y891D02*
G75*
G02X7192I513D01*
G01*
G75*
G02X6165I-513*
G01*
X7165Y2627D02*
G75*
G02X7685I260D01*
G01*
G75*
G02X7165I-260*
G01*
X8319Y511D02*
G75*
G03X8556Y274I277J40D01*
G01*
Y173*
G75*
G02X8218Y511I40J378*
G01*
X8319*
X8556Y828D02*
G75*
G03X8319Y591I40J-277D01*
G01*
X8218*
G75*
G02X8556Y929I378J-40*
G01*
Y828*
X8636Y274D02*
G75*
G03X8873Y511I-40J277D01*
G01*
X8974*
G75*
G02X8636Y173I-378J40*
G01*
Y274*
X8873Y591D02*
G75*
G03X8636Y828I-277J-40D01*
G01*
Y929*
G75*
G02X8974Y591I-40J-378*
G01*
X8873*
X25Y2588D02*
G36*
Y891D01*
X2149*
G75*
G02X3176I513*
G01*
X6165*
G75*
G02X7192I513*
G01*
X8427*
G75*
G02X8556Y929I169J-340*
G01*
Y891*
X8636*
Y929*
G75*
G02X8765Y891I-40J-378*
G01*
X9474*
Y2588*
X7682*
G75*
G02X7168I-257J39*
G01*
X4998*
G75*
G02X5037Y2450I-220J-138*
G01*
G75*
G02X4517I-260*
G01*
G75*
G02X4557Y2588I260*
G01*
X1907*
G75*
G02X1387I-260*
G01*
X25*
G37*
X1387D02*
G36*
G75*
G02X1907I260D01*
G01*
X4557*
G75*
G02X4998I220J-138*
G01*
X7168*
G75*
G02X7165Y2627I257J39*
G01*
G75*
G02X7685I260*
G01*
G75*
G02X7682Y2588I-260J0*
G01*
X9474*
Y3129*
X2606*
G75*
G02X2086I-260*
G01*
X25*
Y2588*
X1387*
G37*
X2086Y3129D02*
G36*
G75*
G02X2606I260D01*
G01*
X9474*
Y3568*
X25*
Y3129*
X2086*
G37*
X25Y891D02*
G36*
Y342D01*
X8279*
G75*
G02X8218Y511I317J209*
G01*
X8319*
G75*
G03X8410Y342I277J40*
G01*
X8783*
G75*
G03X8873Y511I-186J209*
G01*
X8974*
G75*
G02X8914Y342I-378J40*
G01*
X9474*
Y891*
X8765*
G75*
G02X8974Y591I-169J-340*
G01*
X8873*
G75*
G03X8636Y828I-277J-40*
G01*
Y891*
X8556*
Y828*
G75*
G03X8319Y591I40J-277*
G01*
X8218*
G75*
G02X8427Y891I378J-40*
G01*
X7192*
G75*
G02X6165I-513*
G01*
X3176*
G75*
G02X2149I-513*
G01*
X25*
G37*
Y342D02*
G36*
Y25D01*
X9474*
Y342*
X8914*
G75*
G02X8636Y173I-317J209*
G01*
Y274*
G75*
G03X8783Y342I-40J277*
G01*
X8410*
G75*
G03X8556Y274I186J209*
G01*
Y173*
G75*
G02X8279Y342I40J378*
G01*
X25*
G37*
D02*
D99*
X1647Y2588D03*
X2346Y3129D03*
X4777Y2450D03*
X7425Y2627D03*
D02*
D112*
X8596Y551D03*
D02*
D122*
X2663Y891D03*
X6679D03*
X0Y0D02*
M02*
